<svg width="38" height="38" viewBox="0 0 38 38" fill="none" xmlns="http://www.w3.org/2000/svg">
<path d="M32.435 5.56497C29.7778 2.90778 26.3924 1.09821 22.7067 0.365086C19.0211 -0.368033 15.2008 0.00822881 11.729 1.44629C8.25723 2.88436 5.28983 5.31963 3.20209 8.44417C1.11434 11.5687 1.15856e-05 15.2422 1.12484e-05 19C1.15856e-05 22.7578 1.11434 26.4313 3.20209 29.5558C5.28983 32.6804 8.25723 35.1156 11.729 36.5537C15.2008 37.9918 19.0211 38.368 22.7067 37.6349C26.3924 36.9018 29.7778 35.0922 32.435 32.435C35.9982 28.8718 38 24.0391 38 19C38 13.9609 35.9982 9.12816 32.435 5.56497ZM27.9455 17.399C28.3638 17.4002 28.7646 17.567 29.0604 17.8627C29.3561 18.1585 29.5229 18.5593 29.5241 18.9776C29.525 19.1866 29.4844 19.3937 29.4048 19.587C29.3252 19.7803 29.2082 19.9559 29.0604 20.1037C28.9126 20.2515 28.737 20.3686 28.5437 20.4481C28.3504 20.5277 28.1433 20.5683 27.9343 20.5674H20.9705C20.8681 20.5722 20.7712 20.6151 20.6987 20.6875C20.6263 20.76 20.5834 20.8569 20.5786 20.9593V27.9231C20.5479 28.3207 20.3682 28.692 20.0755 28.9629C19.7829 29.2338 19.3988 29.3843 19 29.3843C18.6012 29.3843 18.2171 29.2338 17.9245 28.9629C17.6318 28.692 17.4522 28.3207 17.4214 27.9231L17.4214 20.9593C17.4166 20.8569 17.3737 20.76 17.3013 20.6875C17.2288 20.6151 17.1319 20.5722 17.0295 20.5674L10.0657 20.5674C9.8567 20.5683 9.64958 20.5277 9.45631 20.4481C9.26304 20.3686 9.08744 20.2515 8.93964 20.1037C8.79184 19.9559 8.67477 19.7803 8.59518 19.587C8.51558 19.3937 8.47505 19.1866 8.4759 18.9776C8.47715 18.5593 8.64387 18.1585 8.93964 17.8627C9.23542 17.567 9.63623 17.4002 10.0545 17.399L17.0183 17.399C17.0702 17.4006 17.1219 17.3916 17.1702 17.3725C17.2185 17.3534 17.2624 17.3246 17.2991 17.2879C17.3358 17.2512 17.3646 17.2073 17.3837 17.159C17.4028 17.1107 17.4118 17.059 17.4102 17.0071L17.4102 10.0433C17.4102 9.83454 17.4513 9.62781 17.5312 9.43492C17.6111 9.24204 17.7282 9.06678 17.8758 8.91915C18.0235 8.77152 18.1987 8.65442 18.3916 8.57452C18.5845 8.49463 18.7912 8.45351 19 8.45351C19.2088 8.45351 19.4155 8.49463 19.6084 8.57452C19.8013 8.65442 19.9765 8.77152 20.1242 8.91915C20.2718 9.06678 20.3889 9.24204 20.4688 9.43492C20.5487 9.62781 20.5898 9.83454 20.5898 10.0433L20.5898 17.0071C20.5882 17.059 20.5972 17.1107 20.6163 17.159C20.6354 17.2073 20.6642 17.2512 20.7009 17.2879C20.7376 17.3246 20.7815 17.3534 20.8298 17.3725C20.8781 17.3916 20.9298 17.4006 20.9817 17.399H27.9455Z" fill="#1B2A41"/>
</svg>
