<svg width="14" height="14" viewBox="0 0 14 14" fill="none" xmlns="http://www.w3.org/2000/svg">
<path d="M14 7C14 5.61553 13.5895 4.26215 12.8203 3.11101C12.0511 1.95987 10.9579 1.06266 9.67879 0.532846C8.3997 0.003033 6.99224 -0.13559 5.63437 0.134506C4.2765 0.404603 3.02922 1.07129 2.05026 2.05026C1.07129 3.02922 0.404603 4.2765 0.134506 5.63437C-0.13559 6.99224 0.003033 8.3997 0.532846 9.67879C1.06266 10.9579 1.95987 12.0511 3.11101 12.8203C4.26215 13.5895 5.61553 14 7 14C8.85652 14 10.637 13.2625 11.9497 11.9497C13.2625 10.637 14 8.85652 14 7ZM9.7475 8.91333C9.85615 9.02263 9.91713 9.17048 9.91713 9.32458C9.91713 9.47869 9.85615 9.62654 9.7475 9.73584C9.69327 9.79051 9.62876 9.83391 9.55767 9.86352C9.48659 9.89314 9.41034 9.90838 9.33333 9.90838C9.25633 9.90838 9.18008 9.89314 9.109 9.86352C9.03791 9.83391 8.9734 9.79051 8.91917 9.73584L7.105 7.92167C7.07708 7.89625 7.04068 7.88217 7.00292 7.88217C6.96516 7.88217 6.92876 7.89625 6.90084 7.92167L5.08667 9.73584C4.97508 9.8314 4.83153 9.88134 4.68472 9.87567C4.53791 9.87 4.39865 9.80914 4.29476 9.70525C4.19087 9.60136 4.13001 9.46209 4.12434 9.31528C4.11867 9.16847 4.1686 9.02493 4.26417 8.91333L6.07834 7.09917C6.10375 7.07124 6.11783 7.03484 6.11783 6.99709C6.11783 6.95933 6.10375 6.92293 6.07834 6.895L4.26417 5.08084C4.20949 5.02661 4.1661 4.96209 4.13648 4.89101C4.10687 4.81992 4.09162 4.74368 4.09162 4.66667C4.09162 4.58966 4.10687 4.51342 4.13648 4.44233C4.1661 4.37125 4.20949 4.30673 4.26417 4.2525C4.37346 4.14386 4.52131 4.08287 4.67542 4.08287C4.82953 4.08287 4.97737 4.14386 5.08667 4.2525L6.90084 6.06667C6.91393 6.08062 6.92974 6.09174 6.9473 6.09934C6.96486 6.10694 6.98379 6.11086 7.00292 6.11086C7.02205 6.11086 7.04098 6.10694 7.05854 6.09934C7.0761 6.09174 7.09191 6.08062 7.105 6.06667L8.91917 4.2525C8.97356 4.19811 9.03813 4.15497 9.10919 4.12553C9.18025 4.0961 9.25642 4.08095 9.33333 4.08095C9.41025 4.08095 9.48642 4.0961 9.55748 4.12553C9.62854 4.15497 9.69311 4.19811 9.7475 4.2525C9.80189 4.30689 9.84503 4.37146 9.87447 4.44252C9.9039 4.51359 9.91905 4.58975 9.91905 4.66667C9.91905 4.74359 9.9039 4.81975 9.87447 4.89081C9.84503 4.96188 9.80189 5.02645 9.7475 5.08084L7.93333 6.895C7.91938 6.90809 7.90827 6.92391 7.90066 6.94147C7.89306 6.95902 7.88914 6.97795 7.88914 6.99709C7.88914 7.01622 7.89306 7.03515 7.90066 7.0527C7.90827 7.07026 7.91938 7.08608 7.93333 7.09917L9.7475 8.91333Z" fill="#1B2A41"/>
</svg>
