<svg width="30" height="28" viewBox="0 0 30 28" fill="none" xmlns="http://www.w3.org/2000/svg">
<path fill-rule="evenodd" clip-rule="evenodd" d="M15 5.38722e-05C13.7598 5.38722e-05 12.7257 0.0521467 11.9406 0.112054C10.4323 0.22796 9.19277 1.19233 8.56979 2.49921L7.88489 3.93567C6.82857 3.975 5.77275 4.02731 4.71766 4.0926C2.40319 4.23781 0.550851 6.04804 0.340213 8.41436C0.171702 10.3047 0 12.9517 0 15.9047C0 18.8577 0.171702 21.5047 0.340213 23.395C0.550851 25.7613 2.40319 27.5715 4.71766 27.7167C6.91085 27.8541 10.3353 28 15 28C19.6647 28 23.0891 27.8541 25.2823 27.7167C27.5968 27.5715 29.4491 25.7613 29.6598 23.395C29.8283 21.5053 30 18.8577 30 15.9047C30 12.9517 29.8283 10.3047 29.6598 8.41436C29.4491 6.04804 27.5968 4.23781 25.2823 4.0926C24.2273 4.02731 23.1714 3.975 22.1151 3.93567L21.4302 2.49921C20.8072 1.19233 19.5677 0.22796 18.0594 0.112054C17.0413 0.0357389 16.0208 -0.00162057 15 5.38722e-05ZM12.1321 2.70889C13.0865 2.63762 14.0431 2.60287 15 2.6047C16.1706 2.6047 17.1409 2.65354 17.8679 2.70889C18.3862 2.74926 18.87 3.08461 19.1343 3.63875L20.1555 5.77976C20.2572 5.9929 20.4139 6.1737 20.6088 6.30267C20.8038 6.43165 21.0295 6.50391 21.2617 6.51167C22.8255 6.56376 24.113 6.62888 25.1253 6.69269C26.1957 6.75976 27.0217 7.57892 27.1168 8.65008C27.2809 10.4844 27.4468 13.0506 27.4468 15.9047C27.4468 18.7587 27.2808 21.3249 27.1174 23.1586C27.0217 24.2304 26.1957 25.0496 25.126 25.1167C22.9845 25.2514 19.6123 25.3954 15 25.3954C10.3877 25.3954 7.01489 25.2514 4.87468 25.1167C3.80426 25.0496 2.9783 24.2304 2.88319 23.1593C2.66744 20.7473 2.55733 18.3267 2.55319 15.9047C2.55319 13.0506 2.71915 10.4844 2.88255 8.65073C2.9783 7.57892 3.80425 6.75976 4.87404 6.69269C5.88702 6.62888 7.17447 6.56311 8.7383 6.51167C8.97062 6.50403 9.19649 6.43182 9.39154 6.30284C9.58659 6.17386 9.74342 5.993 9.84511 5.77976L10.8657 3.63875C11.13 3.08526 11.6138 2.74861 12.1321 2.70889ZM8.61702 15.6279C8.61702 12.0316 11.4747 9.11631 15 9.11631C18.5253 9.11631 21.383 12.0316 21.383 15.6279C21.383 19.2243 18.5253 22.1395 15 22.1395C11.4747 22.1395 8.61702 19.2243 8.61702 15.6279Z" fill="#606060"/>
</svg>
