<svg width="18" height="18" viewBox="0 0 18 18" fill="none" xmlns="http://www.w3.org/2000/svg">
<path d="M3.61668 15.3502V16.9502M14.2833 15.3502V16.9502M8.95001 15.3502V0.950195M6.28335 7.3502V8.1502M11.6167 7.3502V8.1502M0.950012 10.5502V5.7502C0.950012 3.4878 0.950012 2.3558 1.77668 1.6534C2.60335 0.950995 3.9349 0.950195 6.59712 0.950195H11.3029C13.9651 0.950195 15.2958 0.950195 16.1233 1.6534C16.95 2.3558 16.95 3.4878 16.95 5.7502V10.5502C16.95 12.8126 16.95 13.9446 16.1233 14.647C15.2967 15.3494 13.9651 15.3502 11.3029 15.3502H6.59712C3.9349 15.3502 2.60423 15.3502 1.77668 14.647C0.950012 13.9446 0.950012 12.8126 0.950012 10.5502Z" stroke="white" stroke-width="1.9" stroke-linecap="round" stroke-linejoin="round"/>
</svg>
