<svg
        width="22"
        height="22"
        viewBox="0 0 22 22"
        fill="none"
        xmlns="http://www.w3.org/2000/svg"
>
    <path
            d="M2.84405 4.36731L5.12838 18.4429C5.23287 19.0872 5.55821 19.6728 6.04643 20.0954C6.53466 20.5179 7.15408 20.7499 7.79432 20.75H11.4138M18.6549 4.36731L16.3716 18.4429C16.2671 19.0872 15.9418 19.6728 15.4536 20.0954C14.9653 20.5179 14.3459 20.7499 13.7057 20.75H10.0862M8.61162 9.77454V15.3428M12.8884 9.77454V15.3428M0.75 4.36731H20.75M13.7522 4.36731V2.40426C13.7522 1.96552 13.5813 1.54476 13.2772 1.23452C12.9731 0.924287 12.5606 0.75 12.1305 0.75H9.36946C8.93938 0.75 8.52691 0.924287 8.2228 1.23452C7.91869 1.54476 7.74784 1.96552 7.74784 2.40426V4.36731H13.7522Z"
            stroke="currentColor"
            stroke-width="1.5"
            stroke-linecap="round"
            stroke-linejoin="round"
    />
</svg>
