<svg width="18" height="18" viewBox="0 0 18 18" fill="none" xmlns="http://www.w3.org/2000/svg">
    <path
            d="M8.86816 0.481445C8.9259 0.481445 8.96581 0.494214 8.99902 0.513672C9.00075 0.514684 9.0056 0.517394 9.0127 0.526367C9.02047 0.536288 9.03309 0.556164 9.04688 0.591797L9.05078 0.600586L11.1865 5.84082L11.2979 6.1123L11.5889 6.13867L17.0322 6.62988C17.1169 6.64551 17.148 6.66848 17.1553 6.6748L17.1572 6.67676C17.1851 6.7012 17.2177 6.74099 17.2471 6.80957C17.2563 6.83258 17.2604 6.85416 17.25 6.89258C17.2403 6.92824 17.2199 6.96431 17.1719 7.00488L17.167 7.00977L17.1611 7.01465L13.0088 10.7441L12.7988 10.9326L12.8613 11.209L14.1172 16.7432C14.1447 16.8373 14.1091 16.9227 14.0547 16.9648C13.9995 17.0006 13.9542 17.0143 13.8926 17.0156C13.8494 17.0031 13.8135 16.9854 13.8135 16.9854L9.12402 14.0508L8.86816 13.8916L8.61328 14.0508L3.92383 16.9854C3.92383 16.9854 3.88848 17.0028 3.8457 17.0156C3.80035 17.0159 3.75684 17.0029 3.67676 16.9619C3.65178 16.9453 3.62828 16.9209 3.60742 16.873C3.59304 16.8363 3.61133 16.7754 3.61133 16.7754L4.875 11.209L4.9375 10.9326L4.72754 10.7441L0.576172 7.01465C0.499746 6.92791 0.487305 6.89258 0.490234 6.8125C0.518819 6.74569 0.550252 6.70309 0.580078 6.6748C0.625087 6.64504 0.701172 6.62988 0.701172 6.62988L6.14746 6.13867L6.43945 6.1123L6.5498 5.84082L8.68652 0.600586C8.70234 0.55936 8.71687 0.538347 8.74023 0.512695C8.77175 0.494068 8.81051 0.481488 8.86816 0.481445Z"
            stroke="currentColor"
            stroke-width="0.9625"
    />
</svg>
