<svg width="24" height="23" viewBox="0 0 24 23" fill="none" xmlns="http://www.w3.org/2000/svg">
<path d="M10.4265 8.57764H12.9265V14.8276H10.4265V8.57764ZM10.4252 16.0776H12.9252V18.5776H10.4252V16.0776Z" fill="#FF0000"/>
<path d="M13.8852 1.3275C13.4502 0.50875 12.6027 0 11.6752 0C10.7477 0 9.90021 0.50875 9.46521 1.32875L0.292709 18.6575C0.089651 19.0382 -0.0108982 19.4651 0.000936077 19.8964C0.0127703 20.3277 0.136581 20.7485 0.360208 21.1175C0.580704 21.4883 0.894299 21.7951 1.2699 22.0073C1.64549 22.2195 2.07005 22.3299 2.50146 22.3275H20.849C21.734 22.3275 22.5352 21.875 22.9915 21.1175C23.2151 20.7485 23.3389 20.3277 23.3507 19.8964C23.3626 19.4651 23.262 19.0382 23.059 18.6575L13.8852 1.3275ZM2.50146 19.8275L11.6752 2.49875L20.8552 19.8275H2.50146Z" fill="#FF0000"/>
</svg>
