<svg width="11" height="10" viewBox="0 0 11 10" fill="none" xmlns="http://www.w3.org/2000/svg">
<path d="M5.02995 8.20076L2.35453 9.87483C2.27591 9.91505 2.20294 9.93134 2.13563 9.9237C2.0688 9.91556 2.0037 9.89163 1.94032 9.85192C1.87644 9.81118 1.82829 9.75365 1.79586 9.67932C1.76343 9.60498 1.76048 9.52377 1.78701 9.43569L2.49899 6.29683L0.14417 4.18134C0.0778375 4.12533 0.034107 4.05838 0.0129788 3.98048C-0.00814947 3.90258 -0.00348157 3.82799 0.0269824 3.75671C0.0574463 3.68543 0.097983 3.62688 0.148593 3.58106C0.199693 3.53676 0.268483 3.50672 0.354961 3.49094L3.46228 3.20989L4.67396 0.237515C4.70738 0.153507 4.75553 0.0929186 4.81842 0.0557511C4.88132 0.0185837 4.95183 0 5.02995 0C5.10808 0 5.17883 0.0185837 5.24222 0.0557511C5.3056 0.0929186 5.35351 0.153507 5.38594 0.237515L6.59762 3.20989L9.7042 3.49094C9.79117 3.50621 9.86021 3.53651 9.91131 3.58182C9.96241 3.62663 10.0032 3.68492 10.0337 3.75671C10.0636 3.82799 10.068 3.90258 10.0469 3.98048C10.0258 4.05838 9.98206 4.12533 9.91573 4.18134L7.56092 6.29683L8.27289 9.43569C8.3004 9.52275 8.2977 9.60371 8.26478 9.67855C8.23186 9.7534 8.18346 9.81093 8.11958 9.85115C8.05669 9.89188 7.99159 9.91607 7.92427 9.9237C7.85745 9.93134 7.78473 9.91505 7.70611 9.87483L5.02995 8.20076Z" fill="white" fill-opacity="0.4"/>
</svg>
