<svg width="10" height="10" viewBox="0 0 10 10" fill="none" xmlns="http://www.w3.org/2000/svg">
<path d="M5.00497 8.20076L2.34283 9.87483C2.26461 9.91505 2.192 9.93134 2.12502 9.9237C2.05853 9.91556 1.99375 9.89163 1.93068 9.85192C1.86712 9.81118 1.81921 9.75365 1.78694 9.67932C1.75467 9.60498 1.75174 9.52377 1.77814 9.43569L2.48657 6.29683L0.143454 4.18134C0.0774509 4.12533 0.0339376 4.05838 0.0129143 3.98048C-0.008109 3.90258 -0.00346428 3.82799 0.0268484 3.75671C0.057161 3.68543 0.0974964 3.62688 0.147855 3.58106C0.198702 3.53676 0.26715 3.50672 0.353198 3.49094L3.44509 3.20989L4.65075 0.237515C4.684 0.153507 4.73191 0.0929186 4.79449 0.0557511C4.85707 0.0185837 4.92723 0 5.00497 0C5.08271 0 5.15311 0.0185837 5.21618 0.0557511C5.27925 0.0929186 5.32692 0.153507 5.35919 0.237515L6.56485 3.20989L9.656 3.49094C9.74254 3.50621 9.81124 3.53651 9.86208 3.58182C9.91293 3.62663 9.95351 3.68492 9.98382 3.75671C10.0136 3.82799 10.018 3.90258 9.99702 3.98048C9.976 4.05838 9.93249 4.12533 9.86648 4.18134L7.52336 6.29683L8.2318 9.43569C8.25918 9.52275 8.25649 9.60371 8.22373 9.67855C8.19098 9.7534 8.14282 9.81093 8.07926 9.85115C8.01668 9.89188 7.9519 9.91607 7.88492 9.9237C7.81842 9.93134 7.74606 9.91505 7.66784 9.87483L5.00497 8.20076Z" fill="#FFD600"/>
</svg>
