<svg width="12" height="12" viewBox="0 0 12 12" fill="none" xmlns="http://www.w3.org/2000/svg">
<path fill-rule="evenodd"
      clip-rule="evenodd"
      d="M2.5545 4.68692C2.55463 3.62904 2.9126 2.60232 3.57019 1.77366C4.22779 0.945008 5.14635 0.363155 6.17653 0.1227C7.20672 -0.117754 8.28795 -0.0026717 9.24444 0.449239C10.2009 0.901149 10.9764 1.66331 11.4449 2.61182C11.9133 3.56032 12.0471 4.63939 11.8246 5.6736C11.6021 6.7078 11.0362 7.63632 10.2191 8.30819C9.40201 8.98007 8.38165 9.3558 7.32394 9.37429C6.26622 9.39278 5.23335 9.05295 4.39325 8.41004L3.27575 9.52692L4.167 10.4182C4.2267 10.4758 4.27431 10.5448 4.30706 10.621C4.33982 10.6973 4.35706 10.7793 4.35778 10.8623C4.3585 10.9453 4.34269 11.0276 4.31127 11.1044C4.27984 11.1812 4.23343 11.251 4.17475 11.3097C4.11607 11.3683 4.04628 11.4148 3.96947 11.4462C3.89266 11.4776 3.81036 11.4934 3.72738 11.4927C3.64439 11.492 3.56238 11.4747 3.48612 11.442C3.40987 11.4092 3.34091 11.3616 3.28325 11.3019L2.392 10.4113L1.067 11.7363C0.949726 11.8535 0.7907 11.9193 0.624906 11.9192C0.459112 11.9192 0.300132 11.8533 0.182939 11.736C0.0657467 11.6187 -5.85643e-05 11.4597 3.91087e-08 11.2939C5.86425e-05 11.1281 0.0659763 10.9691 0.183252 10.8519L1.50825 9.52692L0.631377 8.65004C0.571683 8.59239 0.524069 8.52342 0.491313 8.44717C0.458558 8.37092 0.441316 8.2889 0.440595 8.20592C0.439874 8.12293 0.455687 8.04063 0.487113 7.96382C0.518539 7.88701 0.564947 7.81723 0.62363 7.75854C0.682313 7.69986 0.752095 7.65345 0.828905 7.62203C0.905716 7.5906 0.988015 7.57479 1.071 7.57551C1.15399 7.57623 1.236 7.59347 1.31225 7.62623C1.38851 7.65898 1.45747 7.7066 1.51513 7.76629L2.392 8.64317L3.51075 7.52442C2.88912 6.70922 2.55308 5.71208 2.5545 4.68692ZM7.242 1.24942C6.33032 1.24942 5.45598 1.61158 4.81132 2.25624C4.16667 2.90089 3.8045 3.77523 3.8045 4.68692C3.8045 5.5986 4.16667 6.47294 4.81132 7.1176C5.45598 7.76225 6.33032 8.12442 7.242 8.12442C8.15368 8.12442 9.02803 7.76225 9.67268 7.1176C10.3173 6.47294 10.6795 5.5986 10.6795 4.68692C10.6795 3.77523 10.3173 2.90089 9.67268 2.25624C9.02803 1.61158 8.15368 1.24942 7.242 1.24942Z"
      fill="currentColor"/>
</svg>
