<svg width="620" height="671" viewBox="0 0 620 671" fill="none" xmlns="http://www.w3.org/2000/svg">
<path d="M295 4.01929C304.282 -1.3397 315.718 -1.3397 325 4.01929L589.448 156.699C598.73 162.058 604.448 171.961 604.448 182.679V488.039C604.448 498.757 598.73 508.66 589.448 514.019L325 666.699C315.718 672.058 304.282 672.058 295 666.699L30.5518 514.019C21.2698 508.66 15.5519 498.757 15.5518 488.039V182.679C15.5518 171.961 21.2697 162.058 30.5518 156.699L295 4.01929ZM325 34.0193C315.718 28.6603 304.282 28.6603 295 34.0193L56.5322 171.699C47.2502 177.058 41.5322 186.962 41.5322 197.679V473.039C41.5323 483.757 47.2503 493.66 56.5322 499.019L295 636.699C304.282 642.058 315.718 642.058 325 636.699L563.468 499.019C572.75 493.66 578.468 483.757 578.468 473.039V197.679C578.468 186.962 572.75 177.058 563.468 171.699L325 34.0193Z" fill="#1B2A41"/>
<path d="M295 33.6595C304.282 28.3005 315.718 28.3005 325 33.6595L563.468 171.339C572.75 176.698 578.468 186.602 578.468 197.32V472.679C578.468 483.397 572.75 493.301 563.468 498.66L325 636.339C315.718 641.698 304.282 641.698 295 636.339L56.5321 498.66C47.2501 493.301 41.5321 483.397 41.5321 472.679V197.32C41.5321 186.602 47.2501 176.698 56.5321 171.339L295 33.6595Z" fill="white"/>
<mask id="mask0_2043_8403" style="mask-type:alpha" maskUnits="userSpaceOnUse" x="51" y="45" width="518" height="580">
<path d="M295.152 49.8165C304.356 44.5735 315.644 44.5735 324.848 49.8164L552.924 179.728C562.291 185.064 568.076 195.016 568.076 205.796V464.922C568.076 475.702 562.291 485.654 552.924 490.989L324.848 620.901C315.644 626.144 304.356 626.144 295.152 620.901L67.0762 490.989C57.7088 485.654 51.9244 475.702 51.9244 464.922V205.796C51.9244 195.016 57.7087 185.064 67.0762 179.728L295.152 49.8165Z" fill="#E5AAAA"/>
</mask>
<g mask="url(#mask0_2043_8403)">
<rect x="52" y="201.359" width="356" height="268" fill="#1B2A41"/>
<rect x="422" y="201.359" width="146" height="268" fill="#1B2A41"/>
<path d="M294.156 620.868C303.357 626.131 314.653 626.147 323.869 620.912L566 483.359L52 482.359L294.156 620.868Z" fill="#1B2A41"/>
<path d="M294.181 49.7772C303.371 44.5568 314.629 44.5568 323.819 49.7772L566 187.359H52L294.181 49.7772Z" fill="#1B2A41"/>
<rect x="408" y="247.359" width="14" height="356" transform="rotate(90 408 247.359)" fill="white"/>
<rect x="408" y="175.999" width="43" height="356" transform="rotate(90 408 175.999)" fill="#1B2A41"/>
<rect x="408" y="95.3586" width="14" height="106" fill="white"/>
</g>
<path d="M474 129.359L455 133.359L431 135.359L415 136.359H397L381 133.359L360 127.359L342 122.359L325 114.359L314 105.359" stroke="white" stroke-width="4"/>
<path d="M316.218 108.72C314.891 107.612 311.603 103.755 310.347 101.632C308.707 98.8587 307.685 98.1196 306.879 92.6038C306.073 87.0879 306.558 80.8317 307.337 77.7051C307.933 75.3115 308.832 73.4912 309.787 72.0503C311.913 75.573 311.875 77.5258 313.121 80.1639C314.432 82.94 316.01 85.3217 317.248 90.0296C318.066 95.6224 318.159 98.6504 317.355 101.793C315.465 107.241 316.592 107.606 316.218 108.72Z" fill="white"/>
<path d="M405.491 137.101C403.279 136.935 396.967 135.361 394.072 134.082C390.289 132.411 388.671 132.401 383.713 127.244C378.756 122.086 374.594 115.192 373.073 111.346C371.909 108.402 371.49 105.831 371.411 103.614C376.26 105.705 377.677 107.773 380.947 109.597C384.388 111.517 387.812 112.826 392.619 116.818C397.646 122.047 400.003 125.139 401.509 129.02C403.601 136.119 405.051 135.658 405.491 137.101Z" fill="white"/>
<path d="M345.781 149.594C347.866 150.351 354.267 151.508 357.432 151.531C361.567 151.56 363.047 152.216 369.685 149.549C376.323 146.883 382.95 142.306 385.915 139.424C388.185 137.217 389.624 135.045 390.606 133.057C385.326 132.972 383.185 134.275 379.454 134.596C375.528 134.933 371.868 134.721 365.847 136.386C359.116 139.09 355.696 140.941 352.73 143.861C347.907 149.475 346.775 148.459 345.781 149.594Z" fill="white"/>
<path d="M369.846 131.623C367.72 130.988 361.89 128.105 359.334 126.237C355.995 123.797 354.416 123.443 350.673 117.346C346.93 111.249 344.335 103.625 343.67 99.5441C343.161 96.4195 343.3 93.8178 343.696 91.6353C347.987 94.713 348.93 97.0352 351.736 99.5154C354.688 102.125 357.754 104.135 361.598 109.06C365.393 115.242 367.037 118.765 367.68 122.879C368.209 130.26 369.723 130.12 369.846 131.623Z" fill="white"/>
<path d="M339.864 122.039C338.213 121.043 333.902 117.334 332.128 115.194C329.812 112.398 328.562 111.758 326.611 105.756C324.66 99.7534 323.96 92.6947 324.19 89.0709C324.366 86.2966 324.982 84.1069 325.732 82.3299C328.721 85.874 329.062 88.0569 330.926 90.7731C332.888 93.6314 335.06 96.0024 337.321 101.026C339.299 107.112 339.993 110.47 339.738 114.116C338.76 120.526 340.051 120.73 339.864 122.039Z" fill="white"/>
<path d="M312.84 134.457C314.727 135.623 320.757 138.061 323.852 138.728C327.894 139.6 329.209 140.544 336.251 139.286C343.294 138.028 350.714 134.898 354.205 132.681C356.877 130.984 358.728 129.15 360.095 127.404C354.943 126.244 352.581 127.084 348.863 126.637C344.951 126.167 341.411 125.213 335.177 125.616C328.036 126.892 324.311 128.007 320.811 130.261C314.946 134.774 314.044 133.549 312.84 134.457Z" fill="white"/>
<path d="M450.451 133.298C449.103 133.406 445.153 133.053 443.288 132.556C440.853 131.905 439.877 132.052 436.405 129.412C432.933 126.773 429.777 123.012 428.499 120.839C427.52 119.176 427.025 117.666 426.769 116.339C429.887 117.141 430.935 118.253 433.077 119.044C435.33 119.876 437.516 120.343 440.787 122.294C444.307 124.97 446.019 126.61 447.291 128.806C449.22 132.885 450.049 132.471 450.451 133.298Z" fill="white"/>
<path d="M286.669 106.157C288.143 105.255 292.849 103.374 295.263 102.864C298.415 102.197 299.442 101.465 304.926 102.467C310.41 103.469 316.181 105.931 318.894 107.669C320.971 109 322.408 110.435 323.468 111.8C319.45 112.687 317.612 112.026 314.714 112.362C311.664 112.716 308.903 113.448 304.046 113.115C298.486 112.099 295.587 111.219 292.867 109.451C288.311 105.917 287.604 106.869 286.669 106.157Z" fill="white"/>
<path d="M397.318 162.837C399.451 162.851 405.77 161.867 408.787 160.895C412.728 159.625 414.265 159.741 420.057 155.307C425.85 150.874 431.255 144.759 433.51 141.286C435.236 138.628 436.178 136.26 436.721 134.198C431.68 135.778 429.899 137.598 426.411 139.05C422.742 140.578 419.217 141.538 413.815 144.894C407.941 149.39 405.052 152.094 402.803 155.601C399.319 162.066 398.041 161.525 397.318 162.837Z" fill="white"/>
<path d="M440.808 150.293C441.159 149.053 442.795 145.566 443.867 143.992C445.268 141.938 445.46 141.025 449.007 138.474C452.555 135.923 457.012 133.904 459.405 133.23C461.238 132.714 462.77 132.601 464.058 132.662C462.292 135.299 460.936 136 459.506 137.758C458.001 139.609 456.851 141.479 453.994 144.001C450.397 146.587 448.342 147.77 445.929 148.433C441.593 149.273 441.691 150.114 440.808 150.293Z" fill="white"/>
<path d="M330.035 575.648C327.224 572.644 326.856 570.726 325.09 568.404C323.231 565.96 321.194 563.956 319.005 559.608C317.046 554.307 316.325 551.365 316.459 548.125C316.624 546.816 316.686 545.799 316.69 544.997L305.676 539.309L298.67 537.663C298.87 537.807 299.057 537.946 299.226 538.08C302.073 540.334 303.428 540.702 306.582 546.169C309.736 551.635 311.887 558.394 312.414 561.987C312.817 564.737 312.669 567.008 312.304 568.902C308.645 566.056 307.858 563.991 305.471 561.72C302.959 559.332 300.342 557.462 297.088 553.017C293.89 547.474 292.514 544.334 292.006 540.714C291.874 538.419 291.622 536.947 291.351 535.943L287.787 535.106L273.334 534.211C275.392 535.12 277.22 536.225 280.639 539.825C285.565 545.012 289.687 551.93 291.184 555.785C292.33 558.736 292.735 561.309 292.801 563.526C287.964 561.406 286.559 559.331 283.3 557.488C279.87 555.547 276.455 554.216 271.672 550.197C266.677 544.938 264.337 541.832 262.855 537.942C262.254 535.857 261.702 534.423 261.214 533.4L247.588 532.453L238.679 532.667C238.559 532.691 238.437 532.72 238.314 532.744C238.32 532.721 238.328 532.698 238.333 532.676L236.1 532.728C239.212 533.294 241.069 533.474 246.265 536.999C252.184 541.015 257.685 546.895 259.971 550.342C261.72 552.98 262.666 555.408 263.203 557.56C258.026 556.521 256.21 554.793 252.632 553.687C248.868 552.523 245.246 551.953 239.716 549.046C233.713 544.974 230.765 542.438 228.486 538.954C227.148 536.479 226.127 535.054 225.336 534.166L214.243 536.519L198.859 540.801L198.857 540.799L187.595 544.189C189.616 544.245 190.719 544.136 194.27 545.812C198.214 547.673 202.083 550.698 203.784 552.558C205.086 553.982 205.882 555.356 206.408 556.602C203.193 556.463 201.936 555.594 199.678 555.264C197.301 554.918 195.065 554.915 191.46 553.685C187.461 551.798 185.447 550.549 183.746 548.665C182.693 547.282 181.937 546.519 181.375 546.06L175.962 547.687L158.314 555.497L156.695 551.839L167.033 547.265C168.049 545.143 169.048 544.182 169.939 542.442C171.027 540.32 171.764 538.251 174.036 535.192C177.017 531.916 178.783 530.333 181.005 529.183C185.071 527.462 184.803 526.66 185.629 526.301C185.542 527.589 184.666 531.339 183.944 533.1C183.001 535.4 183.001 536.333 180.061 539.564C178.743 541.013 177.22 542.39 175.747 543.578L193.307 538.297C193.565 536.872 193.98 535.308 194.637 533.596C196.123 529.732 200.142 522.627 204.888 517.088C209.633 511.55 211.161 511.345 214.753 509.285C217.502 507.708 223.479 505.433 225.568 505.004C225.134 506.438 223.772 506.174 221.705 513.221C220.233 517.118 217.968 520.364 213.155 525.98C208.567 530.385 205.317 532.055 202.045 534.311C200.98 535.045 200.123 535.783 199.268 536.535L213.291 532.632L231.141 528.845L231.328 528.841L239.811 528.641C240.288 527.646 240.866 526.61 241.582 525.542C243.884 522.107 249.417 516.253 255.357 512.267C261.297 508.28 262.882 508.616 266.933 507.786C270.035 507.152 276.534 506.955 278.732 507.262C277.995 508.578 276.676 507.821 273.124 514.314C270.828 517.786 267.866 520.306 261.843 524.348C256.831 526.95 253.39 527.655 249.99 528.612L269.561 529.968L270.402 530.021C271.293 528.584 272.448 527.077 274.001 525.556C276.956 522.663 283.565 518.06 290.193 515.368C296.821 512.676 298.304 513.327 302.439 513.341C305.605 513.352 312.01 514.486 314.098 515.235C313.108 516.372 311.97 515.362 307.169 520.993C304.214 523.924 300.801 525.788 294.081 528.518C288.066 530.205 284.405 530.007 280.481 530.359C279.959 530.406 279.468 530.476 278.995 530.554L288.206 531.124L288.377 531.136L288.54 531.173L307.072 535.527L307.29 535.641L312.378 538.269C313.931 537.919 315.25 537.774 316.849 537.236C319.758 536.257 322.308 534.969 327.128 534.287C332.778 534.127 335.797 534.385 338.825 535.549C344.014 538.06 344.508 536.985 345.571 537.486C344.315 538.675 340.102 541.491 337.847 542.491C334.903 543.797 334.05 544.726 328.478 544.884C325.862 544.958 323.118 544.729 320.63 544.349C321.7 545.228 322.701 546.123 323.348 546.827C325.528 549.199 326.682 549.71 328.614 554.938C330.547 560.166 331.371 566.389 331.258 569.609C331.171 572.074 330.67 574.041 330.035 575.648Z" fill="white"/>
<path d="M568.701 198.139L554.39 214.322L543.39 232.322L533.39 249.322L529 265.359L527 283.359L527.984 297.359" stroke="white" stroke-width="4"/>
<path d="M526.624 288.802C525.964 290.347 524.861 295.052 524.752 297.361C524.609 300.377 524.046 301.477 525.969 306.229C527.893 310.982 531.332 315.663 533.532 317.73C535.217 319.313 536.898 320.29 538.447 320.941C538.667 317.089 538.2 315.528 538.053 312.818C537.899 309.967 537.668 307.334 536.521 302.998C534.57 298.18 533.201 295.748 530.97 293.681C528.894 291.367 527.495 289.49 526.624 288.802Z" fill="white"/>
<path d="M541.668 236.171C540.67 237.852 538.616 243.202 538.077 245.939C537.372 249.513 536.561 250.686 537.778 256.87C538.996 263.054 541.868 269.542 543.875 272.582C545.412 274.91 547.056 276.512 548.616 277.689C549.557 273.132 548.781 271.065 549.116 267.783C549.469 264.329 550.255 261.196 549.803 255.71C548.568 249.44 547.528 246.176 545.488 243.129C541.421 238.032 542.486 237.218 541.668 236.171Z" fill="white"/>
<path d="M506.197 277.532C506.314 275.634 507.59 270.206 508.653 267.71C510.042 264.449 510.031 263.062 514.394 258.753C518.758 254.444 524.619 250.797 527.897 249.45C530.407 248.419 532.606 248.029 534.505 247.936C532.769 252.116 531.013 253.355 529.487 256.179C527.881 259.15 526.798 262.1 523.433 266.266C519.009 270.634 516.386 272.691 513.077 274.026C507.017 275.9 507.428 277.138 506.197 277.532Z" fill="white"/>
<path d="M527.392 266.999C527.06 268.512 526.849 273.049 527.125 275.242C527.485 278.107 527.167 279.191 529.624 283.54C532.082 287.889 535.86 292.054 538.127 293.841C539.864 295.209 541.5 296.005 542.967 296.501C542.539 292.839 541.44 291.477 540.874 288.924C540.279 286.238 540.089 283.685 538.382 279.671C535.89 275.261 534.294 273.065 532 271.281C527.67 268.46 528.269 267.582 527.392 266.999Z" fill="white"/>
<path d="M510.035 300.055C511.418 299.601 515.19 297.607 516.832 296.337C518.978 294.678 520.007 294.418 522.354 290.354C524.7 286.29 526.267 281.246 526.63 278.558C526.909 276.5 526.772 274.797 526.474 273.373C523.714 275.466 523.137 277.006 521.341 278.682C519.452 280.445 517.477 281.817 515.044 285.115C512.665 289.235 511.649 291.575 511.301 294.283C511.085 299.132 510.089 299.067 510.035 300.055Z" fill="white"/>
<path d="M554.723 213.982C554.151 215.055 553.028 218.44 552.77 220.157C552.434 222.399 551.963 223.151 552.897 226.961C553.83 230.77 555.802 234.722 557.136 236.554C558.158 237.957 559.226 238.906 560.229 239.594C560.684 236.734 560.142 235.471 560.257 233.421C560.378 231.264 560.777 229.294 560.339 225.896C559.393 222.034 558.653 220.034 557.297 218.198C554.623 215.146 555.262 214.61 554.723 213.982Z" fill="white"/>
<path d="M509.668 248.729C510.473 246.842 513.764 241.643 515.778 239.353C518.408 236.363 518.895 234.962 525.027 231.55C531.159 228.138 538.626 225.712 542.554 225.053C545.562 224.549 548.012 224.625 550.04 224.936C546.714 228.779 544.425 229.653 541.807 232.173C539.053 234.826 536.855 237.568 531.823 241.049C525.606 244.509 522.112 246.022 518.156 246.662C511.116 247.26 511.104 248.594 509.668 248.729Z" fill="white"/>
<path d="M533.006 219.083C534.248 219.43 538.077 219.851 539.979 219.755C542.462 219.631 543.341 219.942 547.367 218.244C551.393 216.545 555.439 213.793 557.261 212.101C558.656 210.806 559.551 209.558 560.169 208.426C556.999 208.559 555.694 209.352 553.448 209.656C551.085 209.976 548.889 209.983 545.248 211.108C541.166 212.83 539.086 213.968 537.262 215.682C534.286 218.945 533.62 218.423 533.006 219.083Z" fill="white"/>
<path d="M60.8179 477.877L72.5789 463.058L81.3595 446.805L89.3125 431.472L92.4041 417.244L93.3144 401.41L91.8014 389.213" stroke="white" stroke-width="4"/>
<path d="M93.3899 396.632C93.8952 395.25 94.6404 391.084 94.6284 389.06C94.6127 386.416 95.0539 385.428 93.1502 381.362C91.2465 377.295 88.0212 373.362 86.0007 371.657C84.4539 370.351 82.938 369.575 81.553 369.078C81.5406 372.457 82.0216 373.8 82.276 376.163C82.5439 378.649 82.8685 380.941 84.0735 384.679C86.0037 388.802 87.3145 390.865 89.3616 392.568C91.2848 394.495 92.596 396.071 93.3899 396.632Z" fill="white"/>
<path d="M82.686 443.358C83.48 441.842 85.0266 437.067 85.3712 434.649C85.8212 431.491 86.4758 430.428 85.1229 425.076C83.77 419.725 80.9557 414.185 79.0587 411.62C77.6064 409.656 76.0943 408.332 74.6752 407.375C74.0647 411.404 74.8397 413.175 74.6992 416.061C74.5514 419.098 74.0107 421.874 74.6614 426.65C76.0331 432.076 77.0948 434.882 79.0211 437.452C82.8148 441.72 81.9213 442.481 82.686 443.358Z" fill="white"/>
<path d="M111.778 405.536C111.764 407.201 110.901 412.007 110.088 414.24C109.025 417.156 109.099 418.369 105.484 422.34C101.869 426.311 96.9139 429.773 94.1098 431.104C91.9629 432.123 90.058 432.566 88.4017 432.736C89.7254 429 91.203 427.835 92.4059 425.294C93.6717 422.621 94.4812 419.991 97.2301 416.191C100.896 412.165 103.093 410.244 105.925 408.922C111.137 407.001 110.72 405.938 111.778 405.536Z" fill="white"/>
<path d="M93.7344 415.734C93.9538 414.396 93.9275 410.418 93.584 408.513C93.1354 406.025 93.3629 405.062 91.0114 401.373C88.6599 397.684 85.1621 394.218 83.0956 392.761C81.5135 391.646 80.0459 391.026 78.7399 390.66C79.2846 393.843 80.3092 394.983 80.9227 397.189C81.5682 399.51 81.8535 401.734 83.5333 405.165C85.9176 408.905 87.4155 410.751 89.5053 412.204C93.4229 414.469 92.9404 415.265 93.7344 415.734Z" fill="white"/>
<path d="M107.372 386.019C106.184 386.48 102.979 388.399 101.601 389.587C99.8017 391.137 98.914 391.413 97.0515 395.076C95.1891 398.739 94.0539 403.223 93.8612 405.591C93.7137 407.403 93.9127 408.887 94.2399 410.118C96.5552 408.158 96.9885 406.785 98.4806 405.236C100.051 403.606 101.714 402.314 103.688 399.317C105.577 395.603 106.356 393.51 106.534 391.125C106.497 386.874 107.371 386.885 107.372 386.019Z" fill="white"/>
<path d="M72.3033 463.371C72.7535 462.406 73.5786 459.394 73.7237 457.88C73.9132 455.904 74.2898 455.224 73.2959 451.936C72.3019 448.648 70.3941 445.285 69.1415 443.744C68.1825 442.565 67.2047 441.785 66.2952 441.231C66.0307 443.752 66.5631 444.832 66.5582 446.63C66.5531 448.522 66.2963 450.263 66.8373 453.214C67.8451 456.548 68.5852 458.262 69.8562 459.804C72.3365 462.349 71.8028 462.848 72.3033 463.371Z" fill="white"/>
<path d="M110.084 430.886C109.468 432.574 106.833 437.273 105.179 439.369C103.018 442.107 102.657 443.354 97.4537 446.624C92.2503 449.894 85.8333 452.363 82.429 453.122C79.8226 453.704 77.6765 453.751 75.8882 453.574C78.6178 450.058 80.5791 449.187 82.7507 446.861C85.036 444.413 86.8299 441.913 91.0682 438.634C96.3441 435.319 99.329 433.833 102.759 433.088C108.887 432.238 108.836 431.07 110.084 430.886Z" fill="white"/>
<path d="M91.0563 457.898C89.9541 457.653 86.5863 457.463 84.928 457.635C82.7619 457.86 81.9784 457.628 78.5371 459.301C75.0957 460.974 71.6861 463.569 70.1714 465.134C69.0117 466.332 68.2871 467.465 67.7991 468.483C70.5656 468.219 71.6698 467.465 73.6194 467.095C75.6711 466.705 77.5908 466.596 80.7225 465.443C84.2119 463.746 85.978 462.654 87.4929 461.071C89.9439 458.078 90.5508 458.504 91.0563 457.898Z" fill="white"/>
<circle cx="290" cy="87.3586" r="4" fill="white"/>
<circle cx="342" cy="561.359" r="4" fill="white"/>
<circle cx="160" cy="529.359" r="4" fill="white"/>
<circle cx="524" cy="219.359" r="4" fill="white"/>
<circle cx="107" cy="458.359" r="3" fill="white"/>
<circle cx="294" cy="69.3586" r="6" fill="white"/>
<circle cx="174" cy="511.359" r="6" fill="white"/>
<circle cx="550" cy="305.359" r="4" fill="white"/>
<rect x="438" y="341.359" width="12" height="40" rx="6" fill="white"/>
</svg>
