<svg width="33" height="31" viewBox="0 0 33 31" fill="none" xmlns="http://www.w3.org/2000/svg">
<path d="M30.9 24.5176C31.0941 23.9148 31.2 23.2741 31.2 22.612V7.78843C31.2 6.04112 30.4563 4.36538 29.1325 3.12984C27.8087 1.89431 26.0133 1.2002 24.1412 1.2002H8.25884C6.38672 1.2002 4.59128 1.89431 3.26749 3.12984C1.94371 4.36538 1.20001 6.04112 1.20001 7.78843V22.7273C1.2324 24.4545 1.99037 26.1008 3.31067 27.3115C4.63096 28.5222 6.40793 29.2005 8.25884 29.2002H24.1412L24.3477 29.1969M30.9 24.5176L30.7447 24.3463L26.393 19.4447C26.0628 19.0728 25.649 18.7733 25.181 18.5674C24.713 18.3614 24.2022 18.2539 23.6848 18.2527C23.1674 18.2514 22.656 18.3564 22.1868 18.5601C21.7177 18.7638 21.3023 19.0613 20.97 19.4315L18.6547 22.0108L18.2771 22.4407M30.9 24.5176C30.4719 25.8407 29.6089 27.003 28.433 27.8431C27.2571 28.6831 25.8279 29.1567 24.3477 29.1969M18.2771 22.4407L24.1835 29.0223L24.3477 29.1969M18.2771 22.4407L12.5824 16.0945C12.2511 15.7255 11.8372 15.4288 11.3698 15.2252C10.9024 15.0216 10.3929 14.9161 9.87707 14.9161C9.36127 14.9161 8.85174 15.0216 8.38434 15.2252C7.91695 15.4288 7.50305 15.7255 7.17178 16.0945L1.51413 22.3978L1.20178 22.7289" stroke="currentColor" stroke-width="2.4" stroke-linecap="round" stroke-linejoin="round"/>
<path d="M21.6561 8.83887C22.5344 8.83906 23.1024 9.48438 23.1024 10.1094C23.1023 10.7343 22.5344 11.3797 21.6561 11.3799C20.7777 11.3799 20.2089 10.7344 20.2089 10.1094C20.2089 9.48428 20.7776 8.83887 21.6561 8.83887Z" fill="CurrentColor" stroke="currentColor" stroke-width="2.4"/>
</svg>
