<svg width="14" height="14" viewBox="0 0 14 14" fill="none" xmlns="http://www.w3.org/2000/svg">
<path fill-rule="evenodd" clip-rule="evenodd" d="M13.72 7.15936C13.72 6.66299 13.6755 6.18572 13.5927 5.72754H7V8.43527H10.7673C10.605 9.31027 10.1118 10.0516 9.37045 10.548V12.3044H11.6327C12.9564 11.0857 13.72 9.29117 13.72 7.15936Z" fill="#4285F4"/>
<path fill-rule="evenodd" clip-rule="evenodd" d="M6.99972 14.0001C8.88972 14.0001 10.4743 13.3733 11.6324 12.3042L9.37017 10.5478C8.74335 10.9678 7.94154 11.216 6.99972 11.216C5.17654 11.216 3.63335 9.98462 3.0829 8.33008H0.744263V10.1437C1.89608 12.4314 4.26335 14.0001 6.99972 14.0001Z" fill="#34A853"/>
<path fill-rule="evenodd" clip-rule="evenodd" d="M3.08318 8.33008C2.94318 7.91008 2.86364 7.46145 2.86364 7.00008C2.86364 6.53872 2.94318 6.09008 3.08318 5.67008V3.85645H0.744545C0.270455 4.80145 0 5.87054 0 7.00008C0 8.12963 0.270455 9.19872 0.744545 10.1437L3.08318 8.33008Z" fill="#FBBC05"/>
<path fill-rule="evenodd" clip-rule="evenodd" d="M6.99972 2.78409C8.02745 2.78409 8.95017 3.13727 9.67563 3.83091L11.6834 1.82318C10.4711 0.693636 8.88654 0 6.99972 0C4.26335 0 1.89608 1.56864 0.744263 3.85636L3.0829 5.67C3.63335 4.01545 5.17654 2.78409 6.99972 2.78409Z" fill="#EA4335"/>
</svg>
