<svg width="16" height="16" viewBox="0 0 16 16" fill="none" xmlns="http://www.w3.org/2000/svg">
<path d="M9.97111 7.28284H14.6258C15.5396 7.28284 16 6.72661 16 5.57968V1.69463C16 0.547325 15.5396 0 14.6258 0H9.97111C9.05731 0 8.59687 0.547325 8.59687 1.69463V5.57968C8.59687 6.72661 9.05731 7.28284 9.97111 7.28284ZM1.37393 7.28284H6.02858C6.94239 7.28284 7.40282 6.72661 7.40282 5.57968V1.69463C7.40282 0.547325 6.94239 0 6.02858 0H1.37393C0.460432 0 0 0.547325 0 1.69463V5.57968C0 6.72661 0.460432 7.28284 1.37393 7.28284ZM1.37393 16H6.02858C6.94239 16 7.40282 15.4527 7.40282 14.3054V10.4118C7.40282 9.27339 6.94239 8.71716 6.02858 8.71716H1.37393C0.460432 8.71716 0 9.27339 0 10.4118V14.3054C0 15.4527 0.460432 16 1.37393 16ZM9.97111 16H14.6258C15.5396 16 16 15.4527 16 14.3054V10.4118C16 9.27339 15.5396 8.71716 14.6258 8.71716H9.97111C9.05731 8.71716 8.59687 9.27339 8.59687 10.4118V14.3054C8.59687 15.4527 9.05731 16 9.97111 16Z" fill="#1B2A41"/>
</svg>
