<svg width="16" height="16" viewBox="0 0 16 16" fill="none" xmlns="http://www.w3.org/2000/svg">
<path d="M12.9053 7.28284H14.5825C15.5251 7.28284 16 6.72661 16 5.57968V1.69463C16 0.547325 15.5251 0 14.5825 0H12.9053C11.963 0 11.4881 0.547325 11.4881 1.69463V5.57968C11.4881 6.72661 11.963 7.28284 12.9053 7.28284ZM1.41785 7.28284H3.09501C4.03728 7.28284 4.51222 6.72661 4.51222 5.57968V1.69463C4.51222 0.547325 4.03728 0 3.09501 0H1.41753C0.474937 0 0 0.547325 0 1.69463V5.57968C0 6.72661 0.475254 7.28284 1.41785 7.28284ZM7.1611 7.28284H8.83826C9.78086 7.28284 10.2558 6.72661 10.2558 5.57968V1.69463C10.2558 0.547325 9.78086 0 8.83826 0H7.16142C6.21883 0 5.74389 0.547325 5.74389 1.69463V5.57968C5.74389 6.72661 6.21851 7.28284 7.1611 7.28284ZM1.41816 16H3.09532C4.0376 16 4.51254 15.4527 4.51254 14.3054V10.4118C4.51254 9.27339 4.0376 8.71716 3.09532 8.71716H1.41753C0.474937 8.71716 0 9.27339 0 10.4118V14.3054C0 15.4527 0.474937 16 1.41753 16M7.1611 16H8.83826C9.78086 16 10.2558 15.4527 10.2558 14.3054V10.4118C10.2558 9.27339 9.78086 8.71716 8.83826 8.71716H7.16142C6.21883 8.71716 5.74389 9.27339 5.74389 10.4118V14.3054C5.74389 15.4527 6.21851 16 7.1611 16ZM12.9053 16H14.5825C15.5251 16 16 15.4527 16 14.3054V10.4118C16 9.27339 15.5251 8.71716 14.5825 8.71716H12.9053C11.963 8.71716 11.4881 9.27339 11.4881 10.4118V14.3054C11.4881 15.4527 11.963 16 12.9053 16Z" fill="#1B2A41"/>
</svg>
