<svg width="20" height="20" viewBox="0 0 20 20" fill="none" xmlns="http://www.w3.org/2000/svg">
<path d="M8.72374 6.35688C8.54044 6.48289 8.39348 6.65489 8.29762 6.85563C8.21629 7.00494 8.08018 7.11686 7.91797 7.16781C7.75576 7.21876 7.5801 7.20477 7.428 7.12878C7.27591 7.05278 7.15924 6.92072 7.10258 6.76042C7.04591 6.60011 7.05368 6.42407 7.12424 6.26937C7.29924 5.91762 7.57312 5.54663 7.99662 5.26488C8.42362 4.97875 8.96349 4.8125 9.62499 4.8125C10.2007 4.8125 10.8229 4.98312 11.3172 5.35412C11.5929 5.5556 11.8164 5.82 11.9692 6.1253C12.122 6.4306 12.1997 6.76799 12.1957 7.10938C12.1957 8.01325 11.7469 8.61438 11.2971 9.0475C11.1309 9.20762 10.948 9.36075 10.7905 9.492L10.6619 9.59962C10.5263 9.70927 10.399 9.82889 10.2812 9.9575V11.1562C10.2812 11.3303 10.2121 11.4972 10.089 11.6203C9.96596 11.7434 9.79904 11.8125 9.62499 11.8125C9.45095 11.8125 9.28403 11.7434 9.16096 11.6203C9.03788 11.4972 8.96874 11.3303 8.96874 11.1562V9.86738C8.96874 9.66 9.02737 9.42638 9.18487 9.22338C9.37737 8.97838 9.61012 8.771 9.81312 8.59862L9.97324 8.46475L9.97412 8.46388C10.1246 8.33875 10.2576 8.22762 10.3854 8.10337C10.7074 7.79275 10.8832 7.51187 10.8832 7.10938C10.8873 6.97174 10.8572 6.83524 10.7955 6.71214C10.7338 6.58905 10.6425 6.4832 10.5297 6.40413C10.2952 6.22825 9.96099 6.125 9.62499 6.125C9.19274 6.125 8.91274 6.23088 8.72374 6.35688ZM10.5 14C10.5 14.2321 10.4078 14.4546 10.2437 14.6187C10.0796 14.7828 9.85706 14.875 9.62499 14.875C9.39293 14.875 9.17037 14.7828 9.00628 14.6187C8.84218 14.4546 8.74999 14.2321 8.74999 14C8.74999 13.7679 8.84218 13.5454 9.00628 13.3813C9.17037 13.2172 9.39293 13.125 9.62499 13.125C9.85706 13.125 10.0796 13.2172 10.2437 13.3813C10.4078 13.5454 10.5 13.7679 10.5 14Z" fill="#1B2A41"/>
<path d="M9.625 0C14.9406 0 19.25 4.30937 19.25 9.625C19.25 14.9406 14.9406 19.25 9.625 19.25C4.30937 19.25 0 14.9406 0 9.625C0 4.30937 4.30937 0 9.625 0ZM1.3125 9.625C1.3125 11.8296 2.18828 13.9439 3.74717 15.5028C5.30607 17.0617 7.42039 17.9375 9.625 17.9375C11.8296 17.9375 13.9439 17.0617 15.5028 15.5028C17.0617 13.9439 17.9375 11.8296 17.9375 9.625C17.9375 7.42039 17.0617 5.30607 15.5028 3.74717C13.9439 2.18828 11.8296 1.3125 9.625 1.3125C7.42039 1.3125 5.30607 2.18828 3.74717 3.74717C2.18828 5.30607 1.3125 7.42039 1.3125 9.625Z" fill="#1B2A41"/>
</svg>
