<svg width="90" height="90" viewBox="0 0 90 90" fill="none" xmlns="http://www.w3.org/2000/svg">
<g clip-path="url(#clip0_1758_9532)">
<rect x="0.5" y="0.5" width="89" height="89" rx="14.5" stroke="#1B2A41" stroke-dasharray="2 2"/>
<path d="M50.9706 39.6569C49.8517 38.538 48.4263 37.7761 46.8744 37.4674C45.3226 37.1587 43.7141 37.3172 42.2522 37.9227C40.7904 38.5282 39.541 39.5536 38.662 40.8691C37.7829 42.1847 37.3137 43.7315 37.3137 45.3137C37.3137 46.896 37.7829 48.4427 38.662 49.7583C39.541 51.0739 40.7904 52.0992 42.2522 52.7047C43.7141 53.3102 45.3226 53.4687 46.8744 53.16C48.4263 52.8513 49.8517 52.0894 50.9706 50.9706C52.4709 49.4703 53.3137 47.4354 53.3137 45.3137C53.3137 43.192 52.4709 41.1571 50.9706 39.6569ZM49.0802 44.6396C49.2564 44.6401 49.4251 44.7103 49.5497 44.8349C49.6742 44.9594 49.7444 45.1282 49.7449 45.3043C49.7453 45.3923 49.7282 45.4795 49.6947 45.5609C49.6612 45.6422 49.6119 45.7162 49.5497 45.7784C49.4874 45.8406 49.4135 45.8899 49.3321 45.9235C49.2507 45.957 49.1635 45.974 49.0755 45.9737H46.1434C46.1003 45.9757 46.0595 45.9937 46.029 46.0242C45.9985 46.0548 45.9804 46.0956 45.9784 46.1387V49.0708C45.9654 49.2382 45.8898 49.3946 45.7666 49.5086C45.6433 49.6227 45.4816 49.686 45.3137 49.686C45.1458 49.686 44.9841 49.6227 44.8609 49.5086C44.7376 49.3946 44.662 49.2382 44.649 49.0708L44.649 46.1387C44.647 46.0956 44.629 46.0548 44.5985 46.0242C44.5679 45.9937 44.5271 45.9757 44.484 45.9737L41.5519 45.9737C41.4639 45.974 41.3767 45.957 41.2953 45.9235C41.2139 45.8899 41.14 45.8406 41.0778 45.7784C41.0155 45.7162 40.9662 45.6422 40.9327 45.5609C40.8992 45.4795 40.8821 45.3923 40.8825 45.3043C40.883 45.1282 40.9532 44.9594 41.0778 44.8349C41.2023 44.7103 41.3711 44.6401 41.5472 44.6396H44.4793C44.5012 44.6403 44.5229 44.6365 44.5433 44.6285C44.5636 44.6204 44.5821 44.6083 44.5975 44.5928C44.613 44.5774 44.6251 44.5589 44.6332 44.5386C44.6412 44.5182 44.645 44.4965 44.6443 44.4746V41.5425C44.6443 41.4546 44.6616 41.3675 44.6953 41.2863C44.7289 41.2051 44.7782 41.1313 44.8404 41.0691C44.9025 41.007 44.9763 40.9577 45.0575 40.924C45.1388 40.8904 45.2258 40.8731 45.3137 40.8731C45.4016 40.8731 45.4887 40.8904 45.5699 40.924C45.6511 40.9577 45.7249 41.007 45.787 41.0691C45.8492 41.1313 45.8985 41.2051 45.9322 41.2863C45.9658 41.3675 45.9831 41.4546 45.9831 41.5425L45.9831 44.4746C45.9824 44.4965 45.9862 44.5182 45.9943 44.5386C46.0023 44.5589 46.0144 44.5774 46.0299 44.5928C46.0453 44.6083 46.0638 44.6204 46.0841 44.6285C46.1045 44.6365 46.1262 44.6403 46.1481 44.6396H49.0802Z" fill="#1B2A41"/>
</g>
<defs>
<clipPath id="clip0_1758_9532">
<rect width="90" height="90" rx="15" fill="white"/>
</clipPath>
</defs>
</svg>
