<svg width="17" height="14" viewBox="0 0 17 14" fill="none" xmlns="http://www.w3.org/2000/svg">
<path d="M8.33417 1.66593C8.10879 1.66589 7.88804 1.7256 7.69759 1.83812C7.50714 1.95064 7.35482 2.11134 7.25836 2.30153C7.15467 2.49776 6.97247 2.64804 6.75112 2.71992C6.52978 2.79179 6.28703 2.7795 6.07531 2.68568C5.86359 2.59187 5.69987 2.42407 5.61952 2.21851C5.53917 2.01296 5.54862 1.78614 5.64585 1.58704C5.84494 1.19528 6.13948 0.852482 6.50591 0.58608C6.87233 0.319677 7.30046 0.137069 7.75602 0.052871C8.21159 -0.0313266 8.68194 -0.0147751 9.12942 0.1012C9.57691 0.217176 9.9891 0.429355 10.333 0.720754C10.6769 1.01215 10.943 1.37468 11.1099 1.77932C11.2769 2.18396 11.3401 2.61947 11.2944 3.05099C11.2488 3.48252 11.0956 3.89807 10.8471 4.2644C10.5986 4.63072 10.2617 4.93765 9.86338 5.1606C9.6729 5.26241 9.50031 5.39096 9.35166 5.54173C9.23979 5.66396 9.2267 5.7373 9.2267 5.77063C9.2267 5.84842 9.27192 5.92176 9.34571 5.95954L15.4245 9.11307C15.892 9.35503 16.2602 9.73521 16.4711 10.1938C16.682 10.6525 16.7237 11.1635 16.5896 11.6467C16.4555 12.1299 16.1533 12.5577 15.7304 12.863C15.3076 13.1683 14.788 13.3338 14.2535 13.3333H2.4101C1.87624 13.3331 1.35755 13.1675 0.935364 12.8624C0.513177 12.5573 0.211376 12.13 0.0772891 11.6475C-0.0567981 11.165 -0.0155878 10.6546 0.194457 10.1963C0.404503 9.73806 0.771503 9.35783 1.23791 9.11529L5.8184 6.73736C5.92103 6.6811 6.03468 6.64457 6.15265 6.62992C6.27062 6.61527 6.39054 6.6228 6.50535 6.65207C6.62016 6.68133 6.72755 6.73174 6.82119 6.80033C6.91482 6.86892 6.99283 6.9543 7.0506 7.05145C7.10838 7.1486 7.14476 7.25556 7.15762 7.36603C7.17047 7.47651 7.15953 7.58827 7.12544 7.69474C7.09136 7.8012 7.03481 7.90023 6.95913 7.98599C6.88345 8.07175 6.79016 8.14252 6.68476 8.19412L2.10545 10.572C1.9837 10.6346 1.88775 10.7332 1.83277 10.8524C1.77779 10.9715 1.76691 11.1044 1.80187 11.2299C1.83682 11.3555 1.9156 11.4666 2.02576 11.5457C2.13591 11.6248 2.27116 11.6673 2.4101 11.6666H14.2535C14.3923 11.6668 14.5272 11.6239 14.6371 11.5447C14.747 11.4655 14.8255 11.3544 14.8604 11.229C14.8953 11.1035 14.8845 10.9708 14.8298 10.8517C14.7751 10.7326 14.6795 10.6338 14.5581 10.5709L8.47697 7.41629C8.16341 7.25276 7.90213 7.01423 7.71996 6.72521C7.5378 6.43619 7.44132 6.1071 7.44044 5.77175C7.44044 5.22616 7.6963 4.78502 7.98786 4.46389C8.27347 4.1472 8.63049 3.90607 8.94347 3.73051C9.16671 3.60572 9.34001 3.41605 9.43681 3.19055C9.53362 2.96504 9.54861 2.71613 9.47949 2.48191C9.41037 2.2477 9.26094 2.04109 9.05409 1.89371C8.84723 1.74634 8.59436 1.66633 8.33417 1.66593Z" fill="white"/>
</svg>
