<svg width="620" height="671" viewBox="0 0 620 671" fill="none" xmlns="http://www.w3.org/2000/svg">
<path d="M295 4.01929C304.282 -1.3397 315.718 -1.3397 325 4.01929L589.448 156.699C598.73 162.058 604.448 171.961 604.448 182.679V488.039C604.448 498.757 598.73 508.66 589.448 514.019L325 666.699C315.718 672.058 304.282 672.058 295 666.699L30.5518 514.019C21.2698 508.66 15.5519 498.757 15.5518 488.039V182.679C15.5518 171.961 21.2697 162.058 30.5518 156.699L295 4.01929ZM325 34.0193C315.718 28.6603 304.282 28.6603 295 34.0193L56.5322 171.699C47.2502 177.058 41.5322 186.962 41.5322 197.679V473.039C41.5323 483.757 47.2503 493.66 56.5322 499.019L295 636.699C304.282 642.058 315.718 642.058 325 636.699L563.468 499.019C572.75 493.66 578.468 483.757 578.468 473.039V197.679C578.468 186.962 572.75 177.058 563.468 171.699L325 34.0193Z" fill="#1B2A41"/>
<path d="M295 34.0191C304.282 28.6601 315.718 28.6602 325 34.0191L563.468 171.699C572.75 177.058 578.468 186.961 578.468 197.679V473.038C578.468 483.756 572.75 493.66 563.468 499.019L325 636.699C315.718 642.058 304.282 642.058 295 636.699L56.5321 499.019C47.2501 493.66 41.5321 483.756 41.5321 473.038V197.679C41.5321 186.961 47.2501 177.058 56.5321 171.699L295 34.0191Z" fill="white"/>
<mask id="mask0_2043_8610" style="mask-type:alpha" maskUnits="userSpaceOnUse" x="51" y="45" width="518" height="580">
<path d="M295.152 49.8165C304.356 44.5735 315.644 44.5735 324.848 49.8164L552.924 179.728C562.291 185.064 568.076 195.016 568.076 205.796V464.922C568.076 475.702 562.291 485.654 552.924 490.989L324.848 620.901C315.644 626.144 304.356 626.144 295.152 620.901L67.0762 490.989C57.7088 485.654 51.9244 475.702 51.9244 464.922V205.796C51.9244 195.016 57.7087 185.064 67.0762 179.728L295.152 49.8165Z" fill="#E5AAAA"/>
</mask>
<g mask="url(#mask0_2043_8610)">
<rect x="52" y="201.359" width="356" height="268" fill="#1B2A41"/>
<rect x="422" y="201.359" width="146" height="268" fill="#1B2A41"/>
<path d="M294.156 620.868C303.357 626.131 314.653 626.147 323.869 620.912L566 483.359L52 482.359L294.156 620.868Z" fill="#1B2A41"/>
<path d="M294.181 49.7772C303.371 44.5568 314.629 44.5568 323.819 49.7772L566 187.359H52L294.181 49.7772Z" fill="#1B2A41"/>
<rect x="408" y="247.359" width="14" height="356" transform="rotate(90 408 247.359)" fill="white"/>
<rect x="408" y="180" width="32" height="356" transform="rotate(90 408 180)" fill="#1B2A41"/>
<rect x="408" y="95.3586" width="14" height="106" fill="white"/>
</g>
<path d="M474 129.359L455 133.359L431 135.359L415 136.359H397L381 133.359L360 127.359L342 122.359L325 114.359L314 105.359" stroke="white" stroke-width="4"/>
<path d="M316.218 108.72C314.891 107.612 311.603 103.755 310.347 101.632C308.707 98.859 307.685 98.1199 306.879 92.604C306.073 87.0881 306.559 80.8319 307.337 77.7054C307.933 75.3117 308.832 73.4915 309.787 72.0505C311.913 75.5732 311.875 77.526 313.121 80.1641C314.432 82.9403 316.01 85.3219 317.249 90.0298C318.066 95.6226 318.159 98.6506 317.355 101.793C315.465 107.241 316.593 107.606 316.218 108.72Z" fill="white"/>
<path d="M405.491 137.101C403.279 136.935 396.968 135.361 394.072 134.082C390.289 132.411 388.671 132.401 383.714 127.244C378.756 122.086 374.594 115.192 373.073 111.346C371.91 108.402 371.49 105.831 371.411 103.614C376.26 105.705 377.677 107.773 380.947 109.597C384.388 111.517 387.813 112.826 392.619 116.818C397.646 122.047 400.003 125.139 401.509 129.02C403.601 136.119 405.051 135.658 405.491 137.101Z" fill="white"/>
<path d="M345.781 149.594C347.866 150.351 354.267 151.508 357.432 151.531C361.567 151.56 363.047 152.216 369.685 149.549C376.324 146.883 382.95 142.306 385.915 139.424C388.186 137.217 389.624 135.045 390.607 133.057C385.326 132.972 383.185 134.275 379.454 134.596C375.528 134.933 371.868 134.721 365.847 136.386C359.116 139.09 355.697 140.941 352.73 143.861C347.908 149.475 346.775 148.459 345.781 149.594Z" fill="white"/>
<path d="M369.846 131.623C367.721 130.989 361.89 128.105 359.334 126.237C355.995 123.797 354.416 123.443 350.673 117.346C346.93 111.249 344.335 103.626 343.67 99.5446C343.161 96.42 343.3 93.8183 343.696 91.6357C347.987 94.7135 348.93 97.0357 351.736 99.5159C354.688 102.126 357.754 104.136 361.598 109.061C365.394 115.242 367.037 118.766 367.68 122.879C368.209 130.261 369.723 130.12 369.846 131.623Z" fill="white"/>
<path d="M339.864 122.04C338.213 121.043 333.902 117.335 332.128 115.194C329.812 112.398 328.562 111.758 326.611 105.756C324.66 99.7539 323.96 92.6952 324.19 89.0714C324.366 86.2971 324.982 84.1074 325.732 82.3304C328.721 85.8744 329.062 88.0574 330.926 90.7736C332.887 93.6319 335.059 96.0029 337.32 101.027C339.299 107.113 339.993 110.47 339.738 114.116C338.76 120.526 340.051 120.731 339.864 122.04Z" fill="white"/>
<path d="M312.84 134.457C314.727 135.623 320.758 138.061 323.852 138.728C327.894 139.6 329.209 140.544 336.252 139.286C343.294 138.028 350.714 134.898 354.205 132.681C356.877 130.984 358.728 129.15 360.095 127.404C354.943 126.244 352.581 127.084 348.864 126.637C344.951 126.167 341.411 125.213 335.177 125.616C328.036 126.892 324.311 128.007 320.812 130.261C314.946 134.774 314.044 133.549 312.84 134.457Z" fill="white"/>
<path d="M450.451 133.298C449.103 133.406 445.153 133.053 443.288 132.556C440.853 131.905 439.877 132.052 436.405 129.412C432.933 126.773 429.777 123.012 428.499 120.839C427.521 119.176 427.025 117.666 426.769 116.339C429.887 117.141 430.935 118.253 433.077 119.044C435.33 119.876 437.516 120.343 440.787 122.294C444.307 124.97 446.019 126.61 447.291 128.806C449.22 132.885 450.05 132.471 450.451 133.298Z" fill="white"/>
<path d="M286.669 106.158C288.143 105.255 292.85 103.374 295.263 102.864C298.415 102.197 299.442 101.466 304.926 102.468C310.41 103.47 316.182 105.932 318.894 107.67C320.971 109.001 322.408 110.435 323.468 111.8C319.45 112.687 317.612 112.026 314.714 112.363C311.664 112.717 308.903 113.449 304.046 113.116C298.486 112.1 295.587 111.219 292.867 109.452C288.311 105.917 287.605 106.869 286.669 106.158Z" fill="white"/>
<path d="M397.318 162.837C399.451 162.851 405.77 161.867 408.787 160.895C412.728 159.625 414.265 159.741 420.057 155.307C425.85 150.874 431.255 144.759 433.51 141.286C435.236 138.628 436.178 136.26 436.721 134.198C431.68 135.778 429.899 137.598 426.412 139.05C422.742 140.578 419.217 141.538 413.815 144.894C407.941 149.39 405.052 152.094 402.803 155.601C399.319 162.066 398.041 161.525 397.318 162.837Z" fill="white"/>
<path d="M440.808 150.293C441.159 149.053 442.795 145.566 443.867 143.992C445.268 141.938 445.46 141.025 449.007 138.474C452.555 135.923 457.012 133.904 459.406 133.23C461.238 132.714 462.77 132.601 464.058 132.662C462.292 135.299 460.936 136 459.506 137.758C458.001 139.609 456.851 141.479 453.994 144.001C450.397 146.587 448.342 147.77 445.929 148.433C441.593 149.273 441.691 150.114 440.808 150.293Z" fill="white"/>
<path d="M330.036 575.648C327.225 572.644 326.857 570.726 325.091 568.404C323.232 565.96 321.195 563.956 319.006 559.608C317.046 554.307 316.326 551.365 316.46 548.125C316.624 546.816 316.686 545.799 316.691 544.997L305.677 539.309L298.671 537.663C298.871 537.807 299.058 537.946 299.227 538.08C302.073 540.334 303.429 540.702 306.583 546.169C309.737 551.635 311.888 558.394 312.415 561.987C312.818 564.737 312.669 567.008 312.304 568.902C308.645 566.056 307.859 563.991 305.472 561.72C302.96 559.332 300.343 557.462 297.089 553.017C293.89 547.474 292.515 544.334 292.007 540.714C291.874 538.419 291.623 536.947 291.352 535.943L287.788 535.106L273.335 534.211C275.392 535.12 277.22 536.225 280.639 539.825C285.566 545.012 289.688 551.93 291.185 555.785C292.331 558.736 292.735 561.309 292.801 563.526C287.965 561.406 286.559 559.331 283.3 557.488C279.871 555.547 276.455 554.216 271.673 550.197C266.677 544.938 264.338 541.832 262.855 537.942C262.255 535.857 261.702 534.423 261.215 533.4L247.589 532.453L238.679 532.667C238.56 532.691 238.438 532.72 238.314 532.744C238.32 532.721 238.328 532.698 238.334 532.676L236.101 532.728C239.213 533.294 241.07 533.474 246.265 536.999C252.185 541.015 257.686 546.895 259.971 550.342C261.721 552.98 262.667 555.408 263.204 557.56C258.026 556.521 256.21 554.793 252.633 553.687C248.868 552.523 245.247 551.953 239.717 549.046C233.714 544.974 230.765 542.438 228.487 538.954C227.149 536.479 226.128 535.054 225.337 534.166L214.244 536.519L198.86 540.801L198.858 540.799L187.595 544.189C189.617 544.245 190.72 544.136 194.271 545.812C198.215 547.673 202.083 550.698 203.784 552.558C205.086 553.982 205.883 555.356 206.409 556.602C203.193 556.463 201.937 555.594 199.678 555.264C197.301 554.918 195.066 554.915 191.461 553.685C187.462 551.798 185.447 550.549 183.747 548.665C182.694 547.282 181.938 546.519 181.375 546.06L175.962 547.687L158.314 555.497L156.696 551.839L167.034 547.265C168.05 545.143 169.048 544.182 169.94 542.442C171.028 540.32 171.765 538.251 174.036 535.192C177.018 531.916 178.783 530.333 181.005 529.183C185.072 527.462 184.803 526.66 185.629 526.301C185.542 527.589 184.667 531.339 183.945 533.1C183.001 535.4 183.002 536.333 180.061 539.564C178.743 541.013 177.221 542.39 175.748 543.578L193.307 538.297C193.566 536.872 193.98 535.308 194.638 533.596C196.123 529.732 200.142 522.627 204.888 517.088C209.634 511.55 211.162 511.345 214.753 509.285C217.503 507.708 223.479 505.433 225.569 505.004C225.134 506.438 223.773 506.174 221.706 513.221C220.234 517.118 217.968 520.364 213.156 525.98C208.567 530.385 205.318 532.055 202.045 534.311C200.981 535.045 200.124 535.783 199.269 536.535L213.291 532.632L231.142 528.845L231.329 528.841L239.812 528.641C240.288 527.646 240.867 526.61 241.582 525.542C243.885 522.107 249.417 516.253 255.358 512.267C261.298 508.28 262.883 508.616 266.934 507.786C270.035 507.152 276.535 506.955 278.732 507.262C277.995 508.578 276.677 507.821 273.124 514.314C270.828 517.786 267.867 520.306 261.844 524.348C256.832 526.95 253.39 527.655 249.99 528.612L269.561 529.968L270.403 530.021C271.294 528.584 272.449 527.077 274.002 525.556C276.956 522.663 283.565 518.06 290.193 515.368C296.822 512.676 298.305 513.327 302.44 513.341C305.606 513.352 312.01 514.486 314.098 515.235C313.109 516.372 311.97 515.362 307.17 520.993C304.214 523.924 300.802 525.788 294.081 528.518C288.067 530.205 284.406 530.007 280.482 530.359C279.959 530.406 279.469 530.476 278.996 530.554L288.207 531.124L288.377 531.136L288.541 531.173L307.073 535.527L307.29 535.641L312.378 538.269C313.932 537.919 315.251 537.774 316.849 537.236C319.759 536.257 322.309 534.969 327.129 534.287C332.779 534.127 335.798 534.385 338.825 535.549C344.014 538.06 344.509 536.985 345.571 537.486C344.316 538.675 340.103 541.491 337.848 542.491C334.903 543.797 334.05 544.726 328.479 544.884C325.863 544.958 323.118 544.729 320.63 544.349C321.701 545.228 322.701 546.123 323.348 546.827C325.529 549.199 326.682 549.71 328.615 554.938C330.548 560.166 331.371 566.389 331.258 569.609C331.172 572.074 330.67 574.041 330.036 575.648Z" fill="white"/>
<path d="M568.701 198.139L554.389 214.322L543.39 232.322L533.389 249.322L529 265.359L527 283.359L527.984 297.359" stroke="white" stroke-width="4"/>
<path d="M526.623 288.802C525.963 290.347 524.86 295.052 524.751 297.361C524.608 300.377 524.045 301.477 525.969 306.229C527.892 310.982 531.331 315.663 533.532 317.73C535.216 319.313 536.897 320.29 538.446 320.941C538.666 317.089 538.199 315.528 538.052 312.818C537.898 309.967 537.667 307.334 536.52 302.998C534.57 298.18 533.2 295.748 530.97 293.681C528.894 291.367 527.494 289.49 526.623 288.802Z" fill="white"/>
<path d="M541.667 236.171C540.669 237.852 538.616 243.202 538.076 245.939C537.371 249.513 536.56 250.686 537.777 256.87C538.995 263.054 541.868 269.542 543.875 272.582C545.412 274.91 547.055 276.512 548.615 277.689C549.556 273.132 548.78 271.065 549.116 267.783C549.469 264.329 550.254 261.196 549.802 255.71C548.568 249.44 547.528 246.176 545.487 243.129C541.421 238.032 542.486 237.218 541.667 236.171Z" fill="white"/>
<path d="M506.196 277.532C506.314 275.634 507.589 270.206 508.652 267.71C510.041 264.449 510.03 263.062 514.394 258.753C518.757 254.444 524.618 250.797 527.897 249.45C530.407 248.419 532.606 248.029 534.505 247.936C532.768 252.116 531.013 253.355 529.487 256.179C527.881 259.15 526.798 262.1 523.433 266.266C519.008 270.634 516.386 272.691 513.076 274.026C507.016 275.9 507.428 277.138 506.196 277.532Z" fill="white"/>
<path d="M527.391 266.999C527.06 268.512 526.848 273.049 527.124 275.242C527.484 278.107 527.167 279.191 529.624 283.54C532.081 287.889 535.859 292.054 538.127 293.841C539.863 295.209 541.499 296.005 542.966 296.501C542.538 292.839 541.439 291.477 540.874 288.924C540.278 286.238 540.088 283.685 538.381 279.671C535.89 275.261 534.294 273.065 531.999 271.281C527.67 268.46 528.268 267.582 527.391 266.999Z" fill="white"/>
<path d="M510.035 300.055C511.417 299.601 515.189 297.607 516.832 296.337C518.978 294.678 520.007 294.418 522.353 290.354C524.699 286.29 526.266 281.246 526.63 278.558C526.908 276.5 526.771 274.797 526.473 273.373C523.714 275.466 523.136 277.006 521.341 278.682C519.451 280.445 517.477 281.817 515.043 285.115C512.664 289.235 511.649 291.575 511.3 294.283C511.084 299.132 510.088 299.067 510.035 300.055Z" fill="white"/>
<path d="M554.723 213.982C554.151 215.055 553.027 218.44 552.77 220.157C552.433 222.399 551.963 223.151 552.896 226.961C553.83 230.77 555.801 234.722 557.136 236.554C558.158 237.957 559.225 238.906 560.229 239.594C560.683 236.734 560.142 235.471 560.257 233.421C560.378 231.264 560.776 229.294 560.339 225.896C559.392 222.034 558.652 220.034 557.297 218.198C554.623 215.146 555.262 214.61 554.723 213.982Z" fill="white"/>
<path d="M509.668 248.729C510.473 246.842 513.763 241.643 515.777 239.353C518.407 236.363 518.895 234.962 525.027 231.55C531.159 228.138 538.626 225.712 542.554 225.053C545.561 224.549 548.011 224.625 550.04 224.936C546.713 228.779 544.424 229.653 541.806 232.173C539.052 234.826 536.854 237.568 531.822 241.049C525.605 244.509 522.111 246.022 518.155 246.662C511.115 247.26 511.103 248.594 509.668 248.729Z" fill="white"/>
<path d="M533.006 219.083C534.248 219.43 538.076 219.851 539.978 219.755C542.461 219.631 543.341 219.942 547.367 218.244C551.392 216.545 555.438 213.793 557.26 212.101C558.655 210.806 559.55 209.558 560.169 208.426C556.998 208.559 555.693 209.352 553.448 209.656C551.084 209.976 548.889 209.983 545.248 211.108C541.166 212.83 539.085 213.968 537.262 215.682C534.285 218.945 533.619 218.423 533.006 219.083Z" fill="white"/>
<path d="M60.8174 477.876L72.5784 463.058L81.359 446.804L89.3121 431.472L92.4036 417.243L93.3139 401.409L91.8009 389.212" stroke="white" stroke-width="4"/>
<path d="M93.3894 396.631C93.8948 395.249 94.6399 391.084 94.6279 389.06C94.6122 386.416 95.0534 385.427 93.1497 381.361C91.246 377.295 88.0207 373.362 86.0003 371.656C84.4534 370.351 82.9375 369.574 81.5526 369.077C81.5401 372.456 82.0211 373.799 82.2756 376.162C82.5434 378.648 82.868 380.94 84.073 384.678C86.0033 388.801 87.314 390.864 89.3611 392.568C91.2844 394.494 92.5955 396.071 93.3894 396.631Z" fill="white"/>
<path d="M82.6856 443.358C83.4795 441.841 85.0261 437.067 85.3707 434.649C85.8207 431.49 86.4753 430.427 85.1224 425.076C83.7695 419.724 80.9552 414.185 79.0582 411.62C77.6059 409.656 76.0938 408.331 74.6747 407.375C74.0642 411.403 74.8392 413.175 74.6987 416.061C74.5509 419.097 74.0102 421.874 74.6609 426.65C76.0326 432.076 77.0943 434.881 79.0206 437.452C82.8143 441.719 81.9208 442.48 82.6856 443.358Z" fill="white"/>
<path d="M111.778 405.535C111.763 407.2 110.901 412.006 110.087 414.239C109.025 417.156 109.099 418.368 105.484 422.339C101.869 426.31 96.9134 429.773 94.1093 431.104C91.9624 432.122 90.0575 432.566 88.4012 432.735C89.7249 428.999 91.2025 427.834 92.4054 425.294C93.6712 422.62 94.4807 419.99 97.2296 416.191C100.895 412.164 103.093 410.244 105.924 408.922C111.137 407 110.719 405.937 111.778 405.535Z" fill="white"/>
<path d="M93.7339 415.734C93.9533 414.395 93.927 410.418 93.5835 408.513C93.1349 406.024 93.3624 405.061 91.0109 401.373C88.6594 397.684 85.1616 394.218 83.0951 392.761C81.5131 391.645 80.0454 391.026 78.7394 390.66C79.2841 393.842 80.3087 394.982 80.9222 397.188C81.5677 399.51 81.853 401.733 83.5328 405.164C85.9171 408.904 87.415 410.75 89.5048 412.204C93.4224 414.469 92.9399 415.264 93.7339 415.734Z" fill="white"/>
<path d="M107.372 386.018C106.184 386.479 102.978 388.399 101.601 389.586C99.8014 391.137 98.9136 391.412 97.0511 395.075C95.1887 398.738 94.0535 403.223 93.8608 405.59C93.7133 407.403 93.9124 408.886 94.2395 410.117C96.5549 408.158 96.9882 406.785 98.4803 405.236C100.05 403.605 101.713 402.313 103.688 399.317C105.576 395.602 106.355 393.509 106.534 391.125C106.497 386.874 107.371 386.885 107.372 386.018Z" fill="white"/>
<path d="M72.3027 463.371C72.7529 462.405 73.578 459.393 73.7231 457.88C73.9126 455.904 74.2892 455.224 73.2953 451.936C72.3013 448.648 70.3935 445.284 69.1409 443.744C68.1819 442.565 67.2041 441.784 66.2945 441.23C66.0301 443.752 66.5625 444.831 66.5576 446.629C66.5525 448.521 66.2957 450.263 66.8367 453.213C67.8445 456.547 68.5846 458.261 69.8556 459.804C72.3359 462.348 71.8022 462.847 72.3027 463.371Z" fill="white"/>
<path d="M110.084 430.885C109.468 432.573 106.833 437.273 105.178 439.369C103.017 442.107 102.656 443.354 97.453 446.624C92.2497 449.893 85.8327 452.363 82.4284 453.122C79.822 453.703 77.6759 453.751 75.8876 453.573C78.6172 450.058 80.5785 449.187 82.7501 446.86C85.0353 444.413 86.8293 441.912 91.0675 438.633C96.3435 435.318 99.3283 433.832 102.758 433.088C108.886 432.238 108.835 431.07 110.084 430.885Z" fill="white"/>
<path d="M91.0558 457.897C89.9537 457.652 86.5858 457.463 84.9275 457.635C82.7614 457.859 81.9779 457.628 78.5366 459.3C75.0952 460.973 71.6856 463.569 70.1709 465.133C69.0112 466.331 68.2866 467.464 67.7986 468.483C70.5651 468.218 71.6693 467.465 73.619 467.094C75.6706 466.704 77.5904 466.595 80.722 465.442C84.2114 463.746 85.9775 462.654 87.4925 461.07C89.9434 458.078 90.5503 458.503 91.0558 457.897Z" fill="white"/>
<circle cx="290" cy="87.3586" r="4" fill="white"/>
<circle cx="342" cy="561.359" r="4" fill="white"/>
<circle cx="160" cy="529.359" r="4" fill="white"/>
<circle cx="524" cy="219.359" r="4" fill="white"/>
<circle cx="107" cy="458.359" r="3" fill="white"/>
<circle cx="294" cy="69.3589" r="6" fill="white"/>
<circle cx="174" cy="511.359" r="6" fill="white"/>
<circle cx="550" cy="305.359" r="4" fill="white"/>
<rect x="438" y="341.359" width="12" height="40" rx="6" fill="white"/>
<path d="M322.01 239.637C323.757 239.248 325.57 239.267 327.308 239.696C329.046 240.125 330.664 240.951 332.04 242.111C333.416 243.271 334.513 244.736 335.247 246.391C335.981 248.047 336.333 249.851 336.276 251.666C336.218 253.48 335.754 255.258 334.917 256.862C334.08 258.467 332.894 259.856 331.447 260.925C330.353 261.731 329.441 262.499 328.816 263.276C328.195 264.03 328.064 264.536 328.064 264.865C328.064 265.475 328.393 266.033 328.914 266.324L340.281 272.379C340.689 272.379 341.03 272.379 341.286 272.38C341.331 272.38 341.374 272.38 341.414 272.381C341.928 272.319 342.455 272.391 342.942 272.597L342.931 272.622L342.932 272.623C342.94 272.604 342.942 272.6 342.943 272.598H342.944C342.945 272.599 342.947 272.6 342.948 272.6C342.952 272.602 342.956 272.604 342.962 272.606C342.974 272.611 342.992 272.619 343.015 272.629C343.06 272.648 343.128 272.677 343.214 272.715C343.387 272.789 343.638 272.898 343.958 273.039C344.599 273.32 345.518 273.728 346.632 274.238C348.858 275.257 351.881 276.688 355.058 278.334C358.225 279.974 361.593 281.853 364.488 283.768C367.288 285.62 369.996 287.728 371.497 289.89C374.911 294.809 378.695 302.943 382.411 312.133C386.157 321.394 389.929 331.971 393.289 341.936C396.651 351.907 399.61 361.295 401.728 368.188C402.787 371.636 403.636 374.462 404.221 376.427C404.513 377.409 404.74 378.176 404.894 378.698C404.97 378.959 405.029 379.16 405.069 379.295C405.088 379.362 405.102 379.413 405.112 379.448C405.117 379.465 405.122 379.478 405.124 379.487C405.125 379.491 405.126 379.495 405.127 379.498L405.128 379.5C405.128 379.5 405.128 379.501 402.247 380.338L404.27 382.553C404.269 382.554 404.268 382.555 404.267 382.555C404.265 382.557 404.264 382.559 404.262 382.56C404.258 382.564 404.254 382.568 404.249 382.572C404.24 382.581 404.228 382.591 404.214 382.603C404.186 382.628 404.15 382.66 404.106 382.698C404.017 382.775 403.894 382.878 403.738 383.003C403.429 383.252 402.988 383.589 402.424 383.976C401.299 384.749 399.67 385.731 397.606 386.611C393.466 388.375 387.534 389.739 380.46 388.126C379.411 387.886 378.57 387.103 378.257 386.073L371.703 364.493L373.917 427.813C373.948 428.683 373.598 429.523 372.961 430.115C371.295 431.663 368.69 432.801 365.859 433.696C362.921 434.624 359.323 435.414 355.32 436.065C347.305 437.369 337.411 438.16 327.384 438.326C317.358 438.492 307.103 438.036 298.372 436.815C294.007 436.205 289.969 435.396 286.505 434.356C283.08 433.328 280.023 432.019 277.767 430.309C276.989 429.72 276.546 428.789 276.58 427.813L278.791 364.49L272.237 386.073C271.84 387.382 270.608 388.255 269.241 388.198C262.17 387.901 256.533 386.185 252.642 384.525C250.696 383.695 249.183 382.878 248.14 382.256C247.618 381.944 247.212 381.68 246.928 381.488C246.786 381.392 246.674 381.314 246.593 381.256C246.553 381.227 246.519 381.203 246.494 381.184C246.482 381.175 246.471 381.166 246.462 381.16C246.458 381.157 246.454 381.155 246.45 381.152C246.449 381.151 246.447 381.149 246.445 381.148L246.444 381.146L248.247 378.75C245.517 377.924 245.383 377.883 245.376 377.881C245.376 377.88 245.377 377.879 245.377 377.878C245.378 377.875 245.379 377.872 245.38 377.868C245.383 377.859 245.386 377.847 245.391 377.831C245.401 377.798 245.416 377.749 245.436 377.684C245.475 377.556 245.533 377.365 245.609 377.117C245.761 376.62 245.985 375.89 246.275 374.955C246.854 373.085 247.695 370.394 248.745 367.109C250.844 360.54 253.778 351.585 257.115 342.048C260.451 332.515 264.199 322.373 267.926 313.438C271.627 304.567 275.395 296.67 278.797 291.77L278.798 291.769C280.288 289.625 283.071 287.403 285.983 285.393C288.999 283.312 292.534 281.205 295.875 279.335C299.224 277.46 302.421 275.798 304.779 274.606C305.958 274.01 306.931 273.53 307.61 273.198C307.891 273.06 308.122 272.948 308.297 272.864C308.478 272.744 308.673 272.639 308.884 272.558C309.363 272.375 309.862 272.325 310.34 272.386C310.369 272.386 310.4 272.386 310.433 272.385C310.723 272.385 311.137 272.384 311.647 272.383L316.59 269.596C316.997 269.365 317.446 269.218 317.91 269.164C318.374 269.11 318.845 269.15 319.293 269.282C319.742 269.414 320.16 269.636 320.524 269.933C320.887 270.231 321.189 270.599 321.411 271.015C321.634 271.432 321.772 271.89 321.819 272.361C321.819 272.366 321.819 272.372 321.82 272.377C323.059 272.378 324.214 272.381 325.174 272.385C323.967 271.636 322.957 270.598 322.234 269.359C321.44 268 321.02 266.45 321.019 264.87C321.019 262.304 322.147 260.238 323.373 258.726C324.586 257.234 326.09 256.036 327.302 255.139C328.106 254.548 328.706 253.713 329.014 252.755C329.322 251.796 329.323 250.763 329.017 249.803C328.71 248.844 328.266 246.952 327.462 246.359C326.658 245.767 325.532 245.359 324.539 245.359C323.65 245.359 322.368 245.909 321.616 246.391C320.864 246.874 320.672 248.414 320.29 249.229C320.096 249.661 319.819 250.05 319.476 250.373C319.132 250.695 318.729 250.945 318.289 251.107C317.85 251.27 317.383 251.342 316.915 251.319C316.448 251.296 315.99 251.18 315.568 250.975C315.145 250.771 314.766 250.484 314.454 250.13C314.143 249.776 313.904 249.362 313.751 248.913C313.599 248.464 313.535 247.988 313.566 247.514C313.596 247.041 313.719 246.577 313.927 246.152C314.697 244.513 315.825 243.075 317.226 241.946C318.626 240.817 320.263 240.027 322.01 239.637ZM295.223 286.632C293.165 287.851 291.166 289.106 289.391 290.331C286.67 292.209 284.782 293.815 283.891 294.968L283.726 295.192C280.718 299.524 277.155 306.901 273.464 315.748C269.8 324.531 266.095 334.552 262.779 344.029C259.466 353.5 256.549 362.401 254.461 368.935C253.417 372.202 252.581 374.876 252.006 376.731C251.929 376.98 251.857 377.214 251.789 377.433C252.596 377.887 253.67 378.441 254.996 379.007C257.916 380.252 262.041 381.56 267.189 382.046L279.72 340.787C280.158 339.345 281.597 338.452 283.083 338.699C284.569 338.946 285.642 340.258 285.589 341.763L282.636 426.341C284.029 427.139 285.894 427.908 288.23 428.609C291.312 429.534 295.032 430.291 299.203 430.874C306.276 431.863 314.491 432.334 322.807 432.356V335.335L296.418 312.719C295.196 311.671 295.018 309.845 296.016 308.582L298.57 305.346H293.961C293.023 305.346 292.14 304.908 291.572 304.161C291.005 303.414 290.82 302.445 291.071 301.542L295.223 286.632ZM360.673 301.536C360.926 302.44 360.742 303.411 360.175 304.159C359.608 304.907 358.723 305.346 357.784 305.346H353.175L355.73 308.582C356.727 309.845 356.55 311.671 355.327 312.719L328.807 335.448V432.296C338.083 432.082 347.087 431.326 354.357 430.143C358.194 429.519 361.485 428.785 364.051 427.974C365.783 427.427 367.029 426.89 367.864 426.42L364.905 341.763C364.853 340.258 365.925 338.946 367.411 338.699C368.897 338.452 370.337 339.345 370.775 340.787L383.47 382.594C388.296 383.325 392.326 382.339 395.253 381.092C396.74 380.458 397.932 379.758 398.782 379.193C398.689 378.877 398.586 378.524 398.471 378.138C397.89 376.188 397.046 373.379 395.992 369.951C393.885 363.092 390.943 353.758 387.604 343.853C384.262 333.943 380.532 323.49 376.849 314.383C373.136 305.203 369.563 297.627 366.568 293.311V293.31C365.771 292.164 363.921 290.587 361.179 288.773C359.67 287.775 357.992 286.772 356.26 285.799L360.673 301.536ZM311.098 381.65C312.754 381.65 314.098 382.994 314.098 384.65V395.212C314.098 398.307 312.574 401.11 310.16 403.064C307.764 405.005 304.626 406.02 301.453 406.02H294.801C294.005 406.02 293.242 405.704 292.68 405.141C292.117 404.579 291.801 403.815 291.801 403.019L291.805 384.65C291.805 382.994 293.148 381.65 294.805 381.65H311.098ZM356.332 381.65C357.989 381.65 359.332 382.994 359.332 384.65L359.336 403.019C359.336 403.815 359.02 404.579 358.457 405.141C357.895 405.704 357.132 406.02 356.336 406.02H349.684C348.102 406.02 346.525 405.767 345.039 405.269C343.554 404.771 342.17 404.03 340.977 403.064C339.783 402.098 338.793 400.916 338.103 399.566C337.41 398.212 337.039 396.73 337.039 395.212V384.65C337.039 382.994 338.383 381.65 340.039 381.65H356.332ZM297.802 400.02H301.453C303.396 400.02 305.164 399.389 306.385 398.401C307.588 397.427 308.098 396.258 308.098 395.212V387.65H297.804L297.802 400.02ZM343.039 395.212C343.039 395.744 343.168 396.292 343.445 396.833C343.723 397.377 344.155 397.918 344.752 398.401C345.35 398.885 346.092 399.294 346.946 399.581C347.801 399.867 348.733 400.02 349.684 400.02H353.335L353.333 387.65H343.039V395.212ZM405.128 379.502C405.446 380.599 405.115 381.781 404.272 382.552L402.247 380.338L405.128 379.502ZM248.247 378.75L246.442 381.145C245.437 380.388 245.011 379.085 245.375 377.882L248.247 378.75ZM342.676 283.248C341.464 287.582 339.811 293.507 338.047 299.866C335.601 308.681 332.948 318.312 330.956 325.703L349.235 310.038L344.63 304.205C343.918 303.302 343.783 302.072 344.284 301.038C344.786 300.003 345.835 299.346 346.985 299.346H353.827L348.958 281.979C347.154 281.094 345.494 280.316 344.135 279.694C343.994 279.63 343.856 279.568 343.722 279.507C343.429 280.551 343.077 281.812 342.676 283.248ZM307.487 279.961C306.101 280.661 304.425 281.529 302.601 282.502L297.911 299.346H304.761C305.911 299.346 306.96 300.003 307.461 301.038C307.962 302.072 307.828 303.302 307.115 304.205L302.51 310.038L320.768 325.685C318.777 318.294 316.125 308.669 313.681 299.86C311.917 293.502 310.264 287.579 309.052 283.246C308.672 281.888 308.335 280.687 308.052 279.677C307.87 279.768 307.681 279.862 307.487 279.961ZM320.32 301.359C322.231 308.262 324.215 315.459 325.864 321.544C327.514 315.46 329.497 308.263 331.409 301.359H320.32ZM315.912 278.376C315.735 278.376 315.56 278.375 315.387 278.376L314.112 279.072C314.329 279.844 314.57 280.701 314.83 281.631C315.782 285.035 317.004 289.42 318.341 294.226L333.352 294.353C334.702 289.498 335.938 285.066 336.898 281.633C337.123 280.828 337.332 280.078 337.525 279.39L335.752 278.386C335.645 278.387 335.538 278.387 335.43 278.387C331.958 278.394 327.868 278.401 325.447 278.386C323.046 278.372 319.183 278.372 315.912 278.376Z" fill="white"/>
<path d="M240.684 246.553C241.456 246.06 242.771 245.497 243.684 245.498C244.703 245.497 245.859 245.914 246.684 246.521C247.508 247.127 247.964 249.063 248.279 250.044C248.593 251.026 248.592 252.082 248.276 253.063C247.96 254.043 247.345 254.897 246.519 255.502C245.275 256.42 243.731 257.644 242.487 259.172C241.228 260.718 240.071 262.831 240.071 265.457C240.072 267.073 240.503 268.659 241.317 270.05C242.132 271.44 243.3 272.584 244.701 273.361L261.998 283.348L267.998 278.233L248.174 266.945C247.638 266.647 247.301 266.076 247.301 265.452C247.301 265.115 247.436 264.598 248.072 263.827C248.714 263.031 249.649 262.246 250.773 261.421C252.258 260.328 253.476 258.907 254.334 257.265C255.193 255.623 255.67 253.805 255.729 251.949C255.787 250.092 255.426 248.247 254.673 246.553C253.92 244.859 252.794 243.362 251.382 242.175C249.97 240.988 248.308 240.143 246.525 239.705C244.741 239.266 242.881 239.245 241.088 239.644C239.295 240.043 237.616 240.85 236.178 242.006C234.74 243.161 233.582 244.633 232.792 246.309C232.578 246.744 232.452 247.218 232.421 247.703C232.39 248.188 232.455 248.674 232.611 249.133C232.768 249.592 233.014 250.016 233.334 250.378C233.654 250.74 234.042 251.034 234.475 251.243C234.909 251.452 235.379 251.572 235.859 251.595C236.339 251.618 236.818 251.544 237.269 251.378C237.721 251.212 238.135 250.956 238.487 250.626C238.84 250.296 239.124 249.899 239.323 249.456C239.715 248.622 239.912 247.046 240.684 246.553Z" fill="white"/>
<path d="M234.881 269.85C234.404 269.905 233.944 270.055 233.525 270.292L219.998 278.233L224.998 283.348L236.969 276.728C237.394 276.504 237.77 276.196 238.076 275.822C238.382 275.449 238.612 275.018 238.752 274.554C238.892 274.09 238.939 273.603 238.891 273.121C238.844 272.638 238.701 272.17 238.473 271.744C238.245 271.317 237.935 270.941 237.562 270.637C237.189 270.332 236.76 270.106 236.299 269.971C235.839 269.836 235.357 269.795 234.881 269.85Z" fill="white"/>
<path d="M307.932 407.977L292.389 285.545C292.133 283.526 291.136 281.669 289.587 280.322C288.037 278.976 286.042 278.233 283.975 278.234H202.021C199.955 278.233 197.959 278.976 196.409 280.322C194.86 281.669 193.863 283.526 193.607 285.545L178.064 407.977C177.914 409.151 178.021 410.344 178.375 411.475C178.73 412.606 179.325 413.651 180.121 414.538C180.916 415.426 181.895 416.136 182.991 416.623C184.087 417.11 185.276 417.361 186.478 417.361H215.226C217.113 417.362 218.947 416.742 220.437 415.601C221.927 414.459 222.987 412.86 223.449 411.058L242.998 336.667L262.547 411.058C263.009 412.86 264.069 414.459 265.559 415.601C267.049 416.742 268.883 417.362 270.771 417.361H299.518C300.72 417.361 301.909 417.11 303.005 416.623C304.101 416.136 305.08 415.426 305.876 414.538C306.671 413.651 307.266 412.606 307.621 411.475C307.976 410.344 308.082 409.151 307.932 407.977Z" fill="#1B2A41"/>
<path d="M307.932 407.977L292.389 285.545C292.133 283.526 291.136 281.669 289.587 280.322C288.037 278.976 286.042 278.233 283.975 278.234H202.021C199.955 278.233 197.959 278.976 196.409 280.322C194.86 281.669 193.863 283.526 193.607 285.545L178.064 407.977C177.914 409.151 178.021 410.344 178.375 411.475C178.73 412.606 179.325 413.651 180.121 414.538C180.916 415.426 181.895 416.136 182.991 416.623C184.087 417.11 185.276 417.361 186.478 417.361H215.226C217.113 417.362 218.947 416.742 220.437 415.601C221.927 414.459 222.987 412.86 223.449 411.058L242.998 336.667L262.547 411.058C263.009 412.86 264.069 414.459 265.559 415.601C267.049 416.742 268.883 417.362 270.771 417.361H299.518C300.72 417.361 301.909 417.11 303.005 416.623C304.101 416.136 305.08 415.426 305.876 414.538C306.671 413.651 307.266 412.606 307.621 411.475C307.976 410.344 308.082 409.151 307.932 407.977ZM292.114 328.25C286.176 327.845 280.57 325.403 276.273 321.348C271.975 317.293 269.258 311.883 268.595 306.059H289.295L292.114 328.25ZM202.021 283.799H283.975C284.667 283.793 285.337 284.038 285.858 284.487C286.379 284.936 286.715 285.557 286.801 286.233L288.588 300.494H197.408L199.195 286.233C199.282 285.557 199.617 284.936 200.138 284.487C200.659 284.038 201.329 283.793 202.021 283.799ZM196.701 306.059H217.402C216.738 311.883 214.021 317.293 209.723 321.348C205.426 325.403 199.82 327.845 193.882 328.25L196.701 306.059ZM217.967 409.709C217.81 410.307 217.455 410.837 216.959 411.214C216.463 411.592 215.853 411.797 215.226 411.796H186.478C186.075 411.799 185.676 411.717 185.308 411.556C184.94 411.395 184.611 411.158 184.344 410.862C184.076 410.565 183.876 410.216 183.757 409.837C183.637 409.458 183.602 409.059 183.652 408.665L193.169 333.885C200.74 333.626 207.956 330.657 213.463 325.535C218.97 320.412 222.39 313.487 223.082 306.059H240.172V325.182L217.967 409.709ZM301.638 410.857C301.372 411.152 301.046 411.389 300.68 411.551C300.315 411.713 299.919 411.796 299.518 411.796H270.771C270.136 411.796 269.52 411.586 269.022 411.2C268.523 410.814 268.171 410.274 268.022 409.667L245.824 325.182V306.059H262.914C263.606 313.487 267.026 320.412 272.533 325.535C278.04 330.657 285.256 333.626 292.827 333.885L302.344 408.665C302.392 409.059 302.353 409.458 302.231 409.836C302.11 410.214 301.907 410.562 301.638 410.857Z" fill="white"/>
<path d="M187.254 273.361C187.254 273.361 180.542 275.899 170 275.899C159.458 275.899 152.746 273.361 152.746 273.361C151.685 273.361 150.632 273.554 149.631 273.932L104 291.13L108.9 319.053L123.302 320.804C125.066 321.019 126.69 321.941 127.852 323.386C129.014 324.831 129.629 326.693 129.575 328.604L127.571 405.361H212.429L210.425 328.604C210.371 326.693 210.986 324.831 212.148 323.386C213.31 321.941 214.934 321.019 216.698 320.804L231.1 319.053L236 291.13L190.369 273.932C189.368 273.554 188.315 273.361 187.254 273.361Z" fill="#1B2A41"/>
<path d="M192.779 274.839C191.443 280.247 188.485 285.027 184.366 288.437C180.246 291.848 175.196 293.697 170 293.697C164.804 293.697 159.754 291.848 155.634 288.437C151.515 285.027 148.557 280.247 147.221 274.839" fill="#1B2A41"/>
<path d="M192.779 274.839C191.443 280.247 188.485 285.027 184.366 288.437C180.246 291.848 175.196 293.697 170 293.697C164.804 293.697 159.754 291.848 155.634 288.437C151.515 285.027 148.557 280.247 147.221 274.839M187.254 273.361C187.254 273.361 180.542 275.899 170 275.899C159.458 275.899 152.746 273.361 152.746 273.361C151.685 273.361 150.632 273.554 149.631 273.932L104 291.13L108.9 319.053L123.302 320.804C125.066 321.019 126.69 321.941 127.852 323.386C129.014 324.831 129.629 326.693 129.575 328.604L127.571 405.361H212.429L210.425 328.604C210.371 326.693 210.986 324.831 212.148 323.386C213.31 321.941 214.934 321.019 216.698 320.804L231.1 319.053L236 291.13L190.369 273.932C189.368 273.554 188.315 273.361 187.254 273.361Z" stroke="white" stroke-width="6" stroke-linecap="round" stroke-linejoin="round"/>
<path d="M166.686 246.392C167.457 245.91 168.773 245.36 169.686 245.361C170.705 245.36 171.861 245.768 172.686 246.361C173.51 246.953 173.966 248.846 174.281 249.805C174.595 250.764 174.594 251.797 174.278 252.756C173.962 253.714 173.347 254.549 172.521 255.14C171.277 256.037 169.733 257.234 168.489 258.727C167.23 260.239 166.073 262.305 166.073 264.871C166.074 266.451 166.505 268.001 167.319 269.361C168.134 270.72 169.302 271.838 170.703 272.598L189 283.361L192.424 276.223L174.176 266.326C173.64 266.035 173.303 265.477 173.303 264.866C173.303 264.537 173.438 264.031 174.074 263.278C174.716 262.5 175.651 261.732 176.775 260.926C178.26 259.858 179.477 258.468 180.336 256.863C181.195 255.259 181.672 253.481 181.731 251.667C181.789 249.852 181.428 248.048 180.675 246.392C179.922 244.737 178.796 243.273 177.384 242.113C175.972 240.953 174.31 240.127 172.526 239.698C170.743 239.269 168.883 239.249 167.09 239.639C165.297 240.028 163.618 240.818 162.18 241.947C160.742 243.076 159.584 244.515 158.794 246.154C158.58 246.579 158.454 247.042 158.423 247.516C158.392 247.99 158.457 248.465 158.613 248.914C158.77 249.363 159.016 249.777 159.336 250.131C159.656 250.485 160.044 250.773 160.477 250.977C160.911 251.181 161.381 251.298 161.861 251.321C162.341 251.343 162.82 251.271 163.271 251.109C163.723 250.946 164.137 250.696 164.489 250.374C164.842 250.051 165.126 249.663 165.325 249.23C165.717 248.415 165.914 246.875 166.686 246.392Z" fill="white"/>
<path d="M160.883 269.166C160.406 269.219 159.946 269.366 159.527 269.598L148 276.361L151 282.361L162.971 275.889C163.396 275.67 163.772 275.369 164.078 275.004C164.384 274.639 164.614 274.218 164.754 273.764C164.894 273.311 164.941 272.834 164.893 272.363C164.845 271.891 164.703 271.434 164.475 271.017C164.247 270.6 163.937 270.232 163.564 269.935C163.191 269.637 162.762 269.416 162.301 269.284C161.841 269.152 161.359 269.112 160.883 269.166Z" fill="white"/>
<path d="M206.13 439.428L219.742 434.827C220.45 434.587 221.101 434.201 221.653 433.692C222.206 433.183 222.648 432.564 222.952 431.872L228.154 419.537V419.514C228.524 418.672 229.197 418.004 230.035 417.645C230.873 417.286 231.814 417.264 232.668 417.582L249.64 423.831C250.331 424.087 250.927 424.553 251.35 425.164C251.772 425.775 251.999 426.503 252 427.249V453.722C252 454.686 251.622 455.611 250.95 456.293C250.277 456.975 249.365 457.359 248.414 457.359H203.586C202.635 457.359 201.723 456.975 201.05 456.293C200.378 455.611 200 454.686 200 453.722V448.053C200 446.145 200.592 444.285 201.692 442.737C202.792 441.189 204.345 440.031 206.13 439.428ZM231.442 420.992L229.848 424.772L234.681 426.556C235.077 426.702 235.41 426.985 235.621 427.355C235.832 427.725 235.908 428.159 235.835 428.58C235.762 429.001 235.545 429.383 235.222 429.658C234.899 429.933 234.491 430.084 234.069 430.084C233.86 430.083 233.653 430.046 233.457 429.972L228.436 428.122L227.374 430.638L231.095 432.002C231.498 432.143 231.838 432.425 232.054 432.798C232.27 433.17 232.349 433.609 232.275 434.035C232.201 434.46 231.98 434.846 231.652 435.121C231.324 435.397 230.909 435.545 230.483 435.539C230.274 435.538 230.067 435.501 229.871 435.427L225.926 433.973C225.474 434.817 224.893 435.584 224.205 436.245L227.508 437.464C227.906 437.609 228.241 437.891 228.454 438.262C228.666 438.633 228.742 439.068 228.669 439.49C228.596 439.912 228.378 440.295 228.053 440.57C227.729 440.845 227.319 440.995 226.897 440.994C226.688 440.993 226.481 440.956 226.285 440.884L220.009 438.571L207.262 442.878C206.451 443.153 205.716 443.621 205.118 444.242C204.52 444.863 204.077 445.619 203.826 446.449H248.414V427.249L231.442 420.992ZM248.414 453.722V450.085H203.586V453.722H248.414Z" fill="white"/>
<path d="M220.889 441.472L234.632 436.884C235.347 436.644 236.004 436.259 236.562 435.751C237.119 435.244 237.566 434.626 237.872 433.936L243.125 421.632V421.609C243.499 420.769 244.177 420.102 245.024 419.744C245.87 419.386 246.82 419.364 247.682 419.682L264.817 425.915C265.515 426.171 266.117 426.635 266.543 427.245C266.969 427.854 267.199 428.58 267.2 429.325V455.731C267.2 456.693 266.818 457.616 266.139 458.296C265.46 458.977 264.54 459.359 263.579 459.359H218.321C217.36 459.359 216.439 458.977 215.76 458.296C215.081 457.616 214.7 456.693 214.7 455.731V450.077C214.7 448.173 215.297 446.318 216.408 444.774C217.519 443.229 219.087 442.074 220.889 441.472Z" fill="#1B2A41"/>
<path d="M220.972 441.472L234.69 436.884C235.404 436.644 236.06 436.259 236.616 435.751C237.173 435.244 237.619 434.626 237.925 433.936L243.168 421.632V421.609C243.541 420.769 244.219 420.102 245.063 419.744C245.908 419.386 246.857 419.364 247.717 419.682L264.821 425.915C265.518 426.171 266.119 426.635 266.544 427.245C266.97 427.854 267.199 428.58 267.2 429.325V455.731C267.2 456.693 266.819 457.616 266.141 458.296C265.464 458.977 264.544 459.359 263.586 459.359H218.408C217.45 459.359 216.53 458.977 215.853 458.296C215.175 457.616 214.794 456.693 214.794 455.731V450.077C214.794 448.173 215.39 446.318 216.499 444.774C217.608 443.229 219.173 442.074 220.972 441.472ZM246.482 423.083L244.875 426.853L249.746 428.633C250.145 428.779 250.481 429.061 250.693 429.43C250.906 429.799 250.982 430.232 250.909 430.652C250.835 431.072 250.616 431.453 250.291 431.727C249.965 432.002 249.554 432.152 249.129 432.152C248.918 432.152 248.71 432.114 248.512 432.041L243.452 430.195L242.382 432.705L246.131 434.065C246.537 434.206 246.88 434.488 247.098 434.859C247.316 435.231 247.395 435.668 247.321 436.093C247.247 436.518 247.024 436.902 246.693 437.177C246.362 437.452 245.944 437.599 245.515 437.593C245.304 437.593 245.095 437.555 244.898 437.482L240.922 436.031C240.467 436.874 239.881 437.639 239.188 438.298L242.517 439.514C242.918 439.658 243.256 439.94 243.47 440.31C243.684 440.68 243.761 441.114 243.687 441.535C243.613 441.956 243.393 442.338 243.066 442.612C242.74 442.886 242.327 443.036 241.901 443.035C241.69 443.034 241.482 442.997 241.284 442.926L234.959 440.618L222.113 444.914C221.295 445.189 220.554 445.655 219.952 446.274C219.35 446.894 218.903 447.649 218.65 448.476H263.586V429.325L246.482 423.083ZM263.586 455.731V452.104H218.408V455.731H263.586Z" fill="white"/>
</svg>
