<svg width="15" height="15" viewBox="0 0 15 15" fill="none" xmlns="http://www.w3.org/2000/svg">
<path opacity="0.5" d="M12.3122 10.4854C12.2693 10.5867 12.2083 10.6797 12.1306 10.7578C12.0518 10.8369 11.9579 10.8991 11.8552 10.9424C11.9579 10.9857 12.0518 11.0479 12.1306 11.127C12.2082 11.2049 12.2693 11.2973 12.3122 11.3984C12.3551 11.2974 12.4162 11.2048 12.4938 11.127C12.5727 11.0479 12.6664 10.9857 12.7692 10.9424C12.6661 10.8989 12.5719 10.8364 12.4929 10.7568C12.4156 10.679 12.3549 10.5862 12.3122 10.4854ZM12.0866 1.25098C11.6458 1.25098 11.2226 1.42562 10.9108 1.7373V1.73828L9.7536 2.89453C9.74992 2.89932 9.74706 2.90343 9.74481 2.90625C9.72758 2.92787 9.70636 2.95192 9.68817 2.97266C9.68703 2.97396 9.68543 2.97524 9.68427 2.97656L12.0231 5.31543C12.0245 5.31426 12.0257 5.31267 12.027 5.31152C12.0478 5.29334 12.0718 5.27212 12.0934 5.25488C12.0963 5.25263 12.1004 5.24978 12.1052 5.24609L13.2614 4.08887H13.2624C13.5741 3.77714 13.7487 3.35391 13.7487 2.91309C13.7487 2.47226 13.5741 2.04903 13.2624 1.7373C12.9507 1.42562 12.5274 1.25098 12.0866 1.25098Z" fill="#EFF0F2" stroke="black"/>
<path opacity="0.2" d="M1.52394 5.34784C1.49744 5.27988 1.45105 5.22151 1.39083 5.18036C1.33061 5.1392 1.25937 5.11719 1.18643 5.11719C1.1135 5.11719 1.04226 5.1392 0.982042 5.18036C0.921824 5.22151 0.875431 5.27988 0.848934 5.34784L0.731934 5.64709C0.694434 5.74084 0.620935 5.81509 0.527185 5.85184L0.228684 5.97034C0.161159 5.99745 0.103294 6.04416 0.0625391 6.10444C0.0217843 6.16472 5.72205e-06 6.23582 5.72205e-06 6.30859C5.72205e-06 6.38135 0.0217843 6.45245 0.0625391 6.51274C0.103294 6.57302 0.161159 6.61972 0.228684 6.64684L0.527185 6.76534C0.573181 6.78419 0.614968 6.812 0.650119 6.84715C0.685269 6.8823 0.71308 6.92409 0.731934 6.97009L0.848934 7.27009C0.875431 7.33804 0.921824 7.39641 0.982042 7.43757C1.04226 7.47872 1.1135 7.50074 1.18643 7.50074C1.25937 7.50074 1.33061 7.47872 1.39083 7.43757C1.45105 7.39641 1.49744 7.33804 1.52394 7.27009L1.64169 6.97009C1.66045 6.92416 1.68815 6.88241 1.72317 6.84727C1.75818 6.81212 1.79983 6.78427 1.84568 6.76534L2.14419 6.64684C2.21171 6.61972 2.26958 6.57302 2.31033 6.51274C2.35109 6.45245 2.37286 6.38135 2.37286 6.30859C2.37286 6.23582 2.35109 6.16472 2.31033 6.10444C2.26958 6.04416 2.21171 5.99745 2.14419 5.97034L1.84568 5.85184C1.79983 5.8329 1.75818 5.80505 1.72317 5.76991C1.68815 5.73476 1.66045 5.69301 1.64169 5.64709L1.52394 5.34784Z" fill="black"/>
<path opacity="0.7" d="M4.42423 0.230649C4.39773 0.162696 4.35134 0.104323 4.29112 0.0631702C4.2309 0.0220171 4.15967 0 4.08673 0C4.01379 0 3.94255 0.0220171 3.88234 0.0631702C3.82212 0.104323 3.77573 0.162696 3.74923 0.230649L3.42673 1.0519C3.4088 1.09841 3.38142 1.14069 3.3463 1.17606C3.31119 1.21144 3.26911 1.23913 3.22273 1.2574L2.40448 1.5814C2.33672 1.60839 2.27861 1.65509 2.23768 1.71546C2.19674 1.77583 2.17486 1.84709 2.17486 1.92002C2.17486 1.99296 2.19674 2.06422 2.23768 2.12459C2.27861 2.18496 2.33672 2.23166 2.40448 2.25865L3.22198 2.58265C3.26798 2.6015 3.30976 2.62931 3.34491 2.66446C3.38006 2.69962 3.40787 2.7414 3.42673 2.7874L3.74923 3.6079C3.77573 3.67585 3.82212 3.73422 3.88234 3.77538C3.94255 3.81653 4.01379 3.83855 4.08673 3.83855C4.15967 3.83855 4.2309 3.81653 4.29112 3.77538C4.35134 3.73422 4.39773 3.67585 4.42423 3.6079L4.74673 2.78665C4.76558 2.74065 4.79339 2.69886 4.82854 2.66371C4.86369 2.62856 4.90548 2.60075 4.95148 2.5819L5.76898 2.2579C5.83674 2.23091 5.89484 2.18421 5.93578 2.12384C5.97671 2.06347 5.9986 1.99221 5.9986 1.91927C5.9986 1.84634 5.97671 1.77508 5.93578 1.71471C5.89484 1.65434 5.83674 1.60764 5.76898 1.58065L4.95148 1.25665C4.90541 1.23771 4.86358 1.20978 4.82843 1.1745C4.79327 1.13922 4.7655 1.09728 4.74673 1.05115L4.42423 0.230649Z" fill="black"/>
<path d="M8.57321 3.36817C8.58221 3.37867 8.98946 2.99092 8.99921 3.00067L11.9992 6.00067C12.009 6.01042 11.6212 6.41767 11.6317 6.42667L4.44071 13.6169C4.23993 13.8177 4.00157 13.9771 3.73923 14.0858C3.47688 14.1945 3.1957 14.2504 2.91172 14.2505C2.62775 14.2505 2.34655 14.1946 2.08418 14.086C1.82181 13.9773 1.58341 13.8181 1.38258 13.6173C1.18176 13.4165 1.02245 13.1782 0.913743 12.9158C0.805039 12.6535 0.749072 12.3723 0.749037 12.0883C0.749002 11.8043 0.8049 11.5231 0.91354 11.2608C1.02218 10.9984 1.18143 10.76 1.38221 10.5592L8.57321 3.36817Z" fill="black"/>
</svg>
