<svg width="12" height="12" viewBox="0 0 12 12" fill="none" xmlns="http://www.w3.org/2000/svg">
<path d="M11.0449 0H7.35352C7.30518 0 7.26562 0.0395508 7.26562 0.0878906V0.908203C7.26562 0.956543 7.30518 0.996094 7.35352 0.996094H9.70312L6.78369 3.91553C6.05127 3.35156 5.15771 3.04688 4.21875 3.04688C3.09229 3.04688 2.03174 3.48633 1.23633 4.2832C0.440918 5.08008 0 6.13916 0 7.26562C0 8.39209 0.439453 9.45264 1.23633 10.248C2.03174 11.0449 3.09229 11.4844 4.21875 11.4844C5.34521 11.4844 6.40576 11.0449 7.20117 10.248C7.99805 9.45264 8.4375 8.39209 8.4375 7.26562C8.4375 6.32666 8.13281 5.43604 7.57031 4.70361L10.4883 1.78564V4.13086C10.4883 4.1792 10.5278 4.21875 10.5762 4.21875H11.3965C11.4448 4.21875 11.4844 4.1792 11.4844 4.13086V0.439453C11.4844 0.197754 11.2866 0 11.0449 0ZM4.21875 10.3711C2.50635 10.3711 1.11328 8.97803 1.11328 7.26562C1.11328 5.55322 2.50635 4.16016 4.21875 4.16016C5.93115 4.16016 7.32422 5.55322 7.32422 7.26562C7.32422 8.97803 5.93115 10.3711 4.21875 10.3711Z" fill="#111111"/>
</svg>
