<svg width="20" height="20" viewBox="0 0 20 20" fill="none" xmlns="http://www.w3.org/2000/svg">
<path d="M4.45799 0L1.95528 0.621757L0 5.16139L1.50361 6.15872L2.7439 3.69236L3.514 3.91249L2.83333 10.6557H9.5122L9.92773 6.7068L9.96838 6.34291H10.1716L9.92773 3.91249L10.7001 3.69236L11.9377 6.15872L13.4417 5.16139L11.486 0.621757L8.98374 0C8.73532 0.173858 8.4327 0.278982 8.10298 0.357151C7.67841 0.456434 7.19964 0.502707 6.72087 0.502707C6.24209 0.502707 5.76332 0.456434 5.33875 0.357151C5.00903 0.278982 4.70641 0.174308 4.45799 0ZM10.7001 7.15155L10.6323 7.7805H18.7082L18.6405 7.15155H10.7001ZM10.5465 8.58914L9.34056 20H12.1725L14.2728 10.2558H15.0678L17.168 20H20L18.794 8.58914H10.5465Z" fill="white"/>
</svg>
