<svg width="26" height="26" viewBox="0 0 26 26" fill="none" xmlns="http://www.w3.org/2000/svg">
<path fill-rule="evenodd" clip-rule="evenodd" d="M25.2797 10.3161C24.0248 11.5724 22.1871 13.1545 20.3997 14.562C18.9454 15.7059 17.4795 16.7741 16.3641 17.4605C16.3351 15.5178 15.5063 13.5674 13.9609 12.0203C12.4292 10.4867 10.5004 9.65691 8.57751 9.61426C9.26303 8.50141 10.3262 7.03957 11.4667 5.58744C12.8688 3.80571 14.4451 1.97163 15.6941 0.721123C16.1553 0.259394 16.7808 0 17.4331 0C18.0853 0 18.7108 0.259394 19.172 0.721123L25.2797 6.83406C25.7409 7.29582 26 7.92208 26 8.57508C26 9.22808 25.7409 9.85434 25.2797 10.3161Z" fill="#1B2A41"/>
<path d="M13.9632 12.0203C17.0577 15.1184 17.2785 19.8413 13.9632 22.856C9.86371 26.5843 3.26998 26.245 0.413673 25.5858C-0.244732 22.7261 -0.583616 16.1246 3.14024 12.0203C6.15147 8.69914 10.8668 8.9221 13.9632 12.0203Z" fill="#CDD7E7"/>
<path fill-rule="evenodd" clip-rule="evenodd" d="M10.6864 18.2727C10.6864 20.1533 9.62909 21.2118 7.74876 21.2118C7.34855 21.2118 6.98772 21.1653 6.66627 21.0722L1.90058 25.8436C1.40092 25.7812 0.904592 25.6945 0.413364 25.5838C0.307291 25.1123 0.223285 24.6361 0.161621 24.1568L4.95248 19.3603C4.85412 19.0063 4.80652 18.6401 4.81112 18.2727C4.81112 16.3921 5.86844 15.3315 7.74876 15.3315C9.62909 15.3315 10.6864 16.3901 10.6864 18.2727Z" fill="#1B2A41"/>
</svg>
