<svg width="7" height="9" viewBox="0 0 7 9" fill="none" xmlns="http://www.w3.org/2000/svg">
<path fill-rule="evenodd" clip-rule="evenodd" d="M6.70729 3.92273C6.79627 3.98117 6.87018 4.06526 6.92156 4.16656C6.97295 4.26786 7 4.38279 7 4.49978C7 4.61677 6.97295 4.7317 6.92156 4.83299C6.87018 4.93429 6.79627 5.01839 6.70729 5.07682L0.877203 8.91076C0.788303 8.96922 0.687458 9 0.584806 9C0.482153 9 0.381307 8.96923 0.292407 8.91077C0.203506 8.85231 0.129682 8.76823 0.0783538 8.66697C0.0270256 8.56572 2.54011e-06 8.45086 -6.76405e-08 8.33394V0.66606C2.54011e-06 0.549141 0.0270256 0.434282 0.0783538 0.333028C0.129682 0.231773 0.203506 0.147692 0.292407 0.0892331C0.381307 0.0307747 0.482153 -7.42563e-07 0.584806 0C0.687458 7.4259e-07 0.788303 0.0307776 0.877203 0.0892374L6.70729 3.92318V3.92273Z" fill="#1B2A41"/>
</svg>
