<svg width="27" height="27" viewBox="0 0 27 27" fill="none" xmlns="http://www.w3.org/2000/svg">
<path d="M18.5625 11.8125C18.5625 14.6137 16.3012 16.875 13.5 16.875C10.6988 16.875 8.4375 14.6137 8.4375 11.8125C8.4375 9.01125 10.6988 6.75 13.5 6.75C16.3012 6.75 18.5625 9.01125 18.5625 11.8125Z" fill="#1B2A41"/>
<path fill-rule="evenodd" clip-rule="evenodd" d="M27 13.5C27 20.9587 20.9587 27 13.5 27C6.04125 27 0 20.9587 0 13.5C0 6.04125 6.04125 0 13.5 0C20.9587 0 27 6.04125 27 13.5ZM6.75 23.2031C7.02 22.7542 9.63562 18.5625 13.4831 18.5625C17.3137 18.5625 19.9462 22.7644 20.2162 23.2031C21.7854 22.118 23.0675 20.668 23.9523 18.9778C24.8371 17.2876 25.2981 15.4078 25.2956 13.5C25.2956 6.96938 20.0138 1.6875 13.4831 1.6875C6.9525 1.6875 1.67062 6.96938 1.67062 13.5C1.67062 17.5163 3.67875 21.0769 6.75 23.2031Z" fill="#1B2A41"/>
</svg>
