<svg width="24" height="28" viewBox="0 0 24 28" fill="none" xmlns="http://www.w3.org/2000/svg">
<path fill-rule="evenodd" clip-rule="evenodd" d="M11.6331 9.42725H11.5213C8.94857 9.42725 6.148 9.42725 3.74307 9.84775C2.91285 9.99674 2.14601 10.3902 1.54079 10.9777C0.935562 11.5652 0.51951 12.32 0.345928 13.1455C-1.23467e-07 14.7529 0 16.091 0 18.525V18.7052C0 21.1412 -3.08667e-08 22.4793 0.348 24.0867C0.521809 24.9115 0.937716 25.6657 1.54251 26.2528C2.14731 26.8398 2.9135 27.2332 3.74307 27.3824C6.148 27.805 8.94857 27.805 11.5213 27.805H11.6331C14.2059 27.805 17.0064 27.805 19.4114 27.3824C20.2413 27.2335 21.0079 26.8404 21.6131 26.2533C22.2183 25.6662 22.6345 24.9118 22.8085 24.0867C23.1544 22.4793 23.1544 21.1412 23.1544 18.7052V18.525C23.1544 16.091 23.1544 14.7529 22.8064 13.1455C22.633 12.3203 22.2172 11.5657 21.6124 10.9782C21.0076 10.3907 20.2412 9.99711 19.4114 9.84775C17.0064 9.42725 14.2059 9.42725 11.6331 9.42725Z" fill="#CDD7E7"/>
<path fill-rule="evenodd" clip-rule="evenodd" d="M11.5772 0C10.4855 0 9.48712 0.310714 8.76005 1.03571C8.03505 1.76071 7.72641 2.75914 7.72641 3.85286C7.72641 4.94243 8.03712 5.94086 8.76212 6.66586C9.12531 7.0249 9.5465 7.28729 10.0257 7.453V9.43121L11.5213 9.42707H11.6331L13.1308 9.43121V7.453C13.6062 7.28983 14.0383 7.02066 14.3943 6.66586C15.1193 5.94086 15.43 4.94243 15.43 3.85079C15.43 2.75914 15.1193 1.76071 14.3943 1.03571C13.6693 0.310714 12.6688 0 11.5772 0ZM7.39083 13.8185C8.10548 13.8185 8.68548 14.3985 8.68548 15.1131V16.3622C8.68548 16.7056 8.54908 17.0349 8.30628 17.2777C8.06349 17.5205 7.73419 17.6569 7.39083 17.6569C7.04747 17.6569 6.71818 17.5205 6.47538 17.2777C6.23259 17.0349 6.09619 16.7056 6.09619 16.3622V15.1131C6.09619 14.3985 6.67619 13.8185 7.39083 13.8185ZM15.7635 13.8185C16.4782 13.8185 17.0582 14.3985 17.0582 15.1131V16.3622C17.0582 16.7056 16.9218 17.0349 16.679 17.2777C16.4362 17.5205 16.1069 17.6569 15.7635 17.6569C15.4202 17.6569 15.0909 17.5205 14.8481 17.2777C14.6053 17.0349 14.4689 16.7056 14.4689 16.3622V15.1131C14.4689 14.3985 15.0489 13.8185 15.7635 13.8185ZM6.88748 20.0121C7.18572 19.8479 7.53664 19.8077 7.86425 19.9004C8.19186 19.9931 8.46978 20.211 8.63783 20.5071L8.65026 20.5258C8.81534 20.7603 9.01429 20.969 9.24062 21.1451C9.68805 21.4973 10.4275 21.8846 11.5772 21.8846C12.7268 21.8846 13.4663 21.4952 13.9158 21.1451C14.1416 20.9682 14.3398 20.7588 14.5041 20.5237L14.5165 20.5071C14.6911 20.2215 14.9695 20.0146 15.2934 19.9298C15.6172 19.8451 15.9613 19.889 16.2535 20.0525C16.5456 20.216 16.763 20.4863 16.8602 20.8066C16.9573 21.127 16.9266 21.4725 16.7744 21.7707V21.7769L16.7703 21.7831L16.762 21.7976L16.7392 21.8349L16.6708 21.9426C16.3494 22.4121 15.9583 22.8299 15.5108 23.1814C14.6657 23.8463 13.3731 24.4739 11.5751 24.4739C9.78126 24.4739 8.48869 23.8463 7.64148 23.1814C7.19405 22.8299 6.80288 22.4121 6.48148 21.9426L6.41519 21.8349L6.39448 21.7976L6.38412 21.7831L6.38205 21.7769L6.37998 21.7749C6.37998 21.7728 6.37998 21.7707 7.51305 21.1472L6.37791 21.7728C6.29556 21.6238 6.24342 21.46 6.22446 21.2908C6.20551 21.1216 6.22012 20.9503 6.26745 20.7867C6.31479 20.6232 6.39391 20.4706 6.50031 20.3376C6.6067 20.2047 6.73827 20.0941 6.88748 20.0121Z" fill="#1B2A41"/>
</svg>
