<svg width="14" height="13" viewBox="0 0 14 13" fill="none" xmlns="http://www.w3.org/2000/svg">
<path d="M7.58318 0C10.8029 0 13.4129 2.77533 13.4129 6.1989C13.4129 9.62247 10.8029 12.3978 7.58318 12.3978C6.80817 12.3978 6.05315 12.2365 5.35161 11.9272C4.7227 11.6499 4.14538 11.2572 3.64493 10.7695L3.46101 10.5821L4.37702 9.60812C4.79816 10.0559 5.29794 10.4123 5.84782 10.6547C6.39279 10.895 6.97917 11.0202 7.58318 11.0202C10.0874 11.0202 12.1174 8.86168 12.1174 6.1989C12.1174 3.53611 10.0874 1.37754 7.58318 1.37754C5.17222 1.37754 3.20078 3.37843 3.05732 5.90374L3.88647 5.0231L4.80249 5.99717L2.40124 8.5505L0 5.99717L0.916017 5.0231L1.75931 5.91936C1.89673 2.62552 4.45163 0 7.58318 0Z" fill="#111111"/>
</svg>
