<svg width="620" height="671" viewBox="0 0 620 671" fill="none" xmlns="http://www.w3.org/2000/svg">
<path d="M295 4.01929C304.282 -1.3397 315.718 -1.3397 325 4.01929L589.448 156.699C598.73 162.058 604.448 171.961 604.448 182.679V488.039C604.448 498.757 598.73 508.66 589.448 514.019L325 666.699C315.718 672.058 304.282 672.058 295 666.699L30.5518 514.019C21.2698 508.66 15.5519 498.757 15.5518 488.039V182.679C15.5518 171.961 21.2697 162.058 30.5518 156.699L295 4.01929ZM325 34.0193C315.718 28.6603 304.282 28.6603 295 34.0193L56.5322 171.699C47.2502 177.058 41.5322 186.962 41.5322 197.679V473.039C41.5323 483.757 47.2503 493.66 56.5322 499.019L295 636.699C304.282 642.058 315.718 642.058 325 636.699L563.468 499.019C572.75 493.66 578.468 483.757 578.468 473.039V197.679C578.468 186.962 572.75 177.058 563.468 171.699L325 34.0193Z" fill="#1B2A41"/>
<path d="M295 34.0191C304.282 28.6601 315.718 28.6602 325 34.0191L563.468 171.699C572.75 177.058 578.468 186.961 578.468 197.679V473.038C578.468 483.756 572.75 493.66 563.468 499.019L325 636.699C315.718 642.058 304.282 642.058 295 636.699L56.5321 499.019C47.2501 493.66 41.5321 483.756 41.5321 473.038V197.679C41.5321 186.961 47.2501 177.058 56.5321 171.699L295 34.0191Z" fill="white"/>
<mask id="mask0_2043_8466" style="mask-type:alpha" maskUnits="userSpaceOnUse" x="51" y="45" width="518" height="580">
<path d="M295.152 49.8165C304.356 44.5735 315.644 44.5735 324.848 49.8164L552.924 179.728C562.291 185.064 568.076 195.016 568.076 205.796V464.922C568.076 475.702 562.291 485.654 552.924 490.989L324.848 620.901C315.644 626.144 304.356 626.144 295.152 620.901L67.0762 490.989C57.7088 485.654 51.9244 475.702 51.9244 464.922V205.796C51.9244 195.016 57.7087 185.064 67.0762 179.728L295.152 49.8165Z" fill="#E5AAAA"/>
</mask>
<g mask="url(#mask0_2043_8466)">
<rect x="52" y="201.359" width="356" height="268" fill="#1B2A41"/>
<rect x="422" y="201.359" width="146" height="268" fill="#1B2A41"/>
<path d="M294.156 620.868C303.357 626.131 314.653 626.147 323.869 620.912L566 483.359L52 482.359L294.156 620.868Z" fill="#1B2A41"/>
<path d="M294.181 49.7772C303.371 44.5568 314.629 44.5568 323.819 49.7772L566 187.359H52L294.181 49.7772Z" fill="#1B2A41"/>
<rect x="408" y="247.359" width="14" height="356" transform="rotate(90 408 247.359)" fill="white"/>
<rect x="408" y="176.999" width="44" height="356" transform="rotate(90 408 176.999)" fill="#1B2A41"/>
<rect x="408" y="95.3586" width="14" height="106" fill="white"/>
</g>
<path d="M474 129.359L455 133.359L431 135.359L415 136.359H397L381 133.359L360 127.359L342 122.359L325 114.359L314 105.359" stroke="white" stroke-width="4"/>
<path d="M316.218 108.72C314.891 107.612 311.603 103.755 310.347 101.632C308.707 98.8587 307.685 98.1196 306.879 92.6038C306.074 87.0879 306.559 80.8317 307.337 77.7051C307.934 75.3115 308.832 73.4912 309.787 72.0503C311.913 75.573 311.875 77.5258 313.121 80.1639C314.433 82.94 316.01 85.3217 317.249 90.0296C318.066 95.6224 318.159 98.6504 317.355 101.793C315.465 107.241 316.593 107.606 316.218 108.72Z" fill="white"/>
<path d="M405.491 137.101C403.279 136.935 396.968 135.361 394.072 134.082C390.29 132.411 388.671 132.401 383.714 127.244C378.756 122.086 374.594 115.192 373.074 111.346C371.91 108.402 371.49 105.831 371.411 103.614C376.26 105.705 377.677 107.773 380.947 109.597C384.388 111.517 387.813 112.826 392.619 116.818C397.646 122.047 400.004 125.139 401.509 129.02C403.601 136.119 405.051 135.658 405.491 137.101Z" fill="white"/>
<path d="M345.781 149.594C347.866 150.351 354.267 151.508 357.433 151.531C361.568 151.56 363.047 152.216 369.685 149.549C376.324 146.883 382.95 142.306 385.915 139.424C388.186 137.217 389.624 135.045 390.607 133.057C385.327 132.972 383.185 134.275 379.455 134.596C375.529 134.933 371.869 134.721 365.847 136.386C359.116 139.09 355.697 140.941 352.73 143.861C347.908 149.475 346.775 148.459 345.781 149.594Z" fill="white"/>
<path d="M369.846 131.623C367.721 130.988 361.89 128.105 359.334 126.237C355.995 123.797 354.416 123.443 350.673 117.346C346.93 111.249 344.335 103.625 343.67 99.5441C343.161 96.4195 343.3 93.8178 343.696 91.6353C347.987 94.713 348.931 97.0352 351.736 99.5154C354.688 102.125 357.754 104.135 361.599 109.06C365.394 115.242 367.037 118.765 367.68 122.879C368.209 130.26 369.724 130.12 369.846 131.623Z" fill="white"/>
<path d="M339.865 122.039C338.213 121.043 333.902 117.334 332.129 115.194C329.812 112.398 328.562 111.758 326.611 105.756C324.66 99.7534 323.96 92.6947 324.191 89.0709C324.367 86.2966 324.983 84.1069 325.732 82.3299C328.721 85.874 329.062 88.0569 330.926 90.7731C332.888 93.6314 335.06 96.0024 337.321 101.026C339.299 107.112 339.993 110.47 339.739 114.116C338.761 120.526 340.052 120.73 339.865 122.039Z" fill="white"/>
<path d="M312.84 134.457C314.727 135.623 320.758 138.061 323.852 138.728C327.894 139.6 329.209 140.544 336.252 139.286C343.294 138.028 350.714 134.898 354.205 132.681C356.877 130.984 358.728 129.15 360.095 127.404C354.943 126.244 352.581 127.084 348.864 126.637C344.951 126.167 341.412 125.213 335.177 125.616C328.036 126.892 324.311 128.007 320.812 130.261C314.946 134.774 314.044 133.549 312.84 134.457Z" fill="white"/>
<path d="M450.451 133.298C449.103 133.406 445.153 133.053 443.288 132.556C440.853 131.905 439.877 132.052 436.405 129.412C432.933 126.773 429.777 123.012 428.499 120.839C427.521 119.176 427.026 117.666 426.769 116.339C429.887 117.141 430.935 118.253 433.077 119.044C435.33 119.876 437.516 120.343 440.787 122.294C444.308 124.97 446.019 126.61 447.291 128.806C449.22 132.885 450.05 132.471 450.451 133.298Z" fill="white"/>
<path d="M286.669 106.157C288.143 105.255 292.85 103.374 295.263 102.864C298.415 102.197 299.443 101.465 304.926 102.467C310.41 103.469 316.182 105.931 318.895 107.669C320.972 109 322.408 110.435 323.468 111.8C319.45 112.687 317.612 112.026 314.714 112.362C311.664 112.716 308.903 113.448 304.046 113.115C298.486 112.099 295.587 111.219 292.868 109.451C288.311 105.917 287.605 106.869 286.669 106.157Z" fill="white"/>
<path d="M397.318 162.837C399.451 162.851 405.77 161.867 408.787 160.895C412.728 159.625 414.265 159.741 420.057 155.307C425.85 150.874 431.255 144.759 433.51 141.286C435.236 138.628 436.178 136.26 436.721 134.198C431.68 135.778 429.899 137.598 426.412 139.05C422.742 140.578 419.218 141.538 413.815 144.894C407.941 149.39 405.052 152.094 402.803 155.601C399.319 162.066 398.041 161.525 397.318 162.837Z" fill="white"/>
<path d="M440.808 150.293C441.159 149.053 442.795 145.566 443.868 143.992C445.268 141.938 445.46 141.025 449.007 138.474C452.555 135.923 457.012 133.904 459.406 133.23C461.238 132.714 462.77 132.601 464.058 132.662C462.292 135.299 460.936 136 459.506 137.758C458.002 139.609 456.851 141.479 453.994 144.001C450.397 146.587 448.342 147.77 445.929 148.433C441.593 149.273 441.691 150.114 440.808 150.293Z" fill="white"/>
<path d="M330.036 575.648C327.225 572.644 326.857 570.726 325.091 568.404C323.232 565.96 321.195 563.956 319.006 559.608C317.046 554.307 316.326 551.365 316.46 548.125C316.624 546.816 316.687 545.799 316.691 544.997L305.677 539.309L298.671 537.663C298.871 537.807 299.058 537.946 299.227 538.08C302.073 540.334 303.429 540.702 306.583 546.169C309.737 551.635 311.888 558.394 312.415 561.987C312.818 564.737 312.669 567.008 312.305 568.902C308.645 566.056 307.859 563.991 305.472 561.72C302.96 559.332 300.343 557.462 297.089 553.017C293.891 547.474 292.515 544.334 292.007 540.714C291.874 538.419 291.623 536.947 291.352 535.943L287.788 535.106L273.335 534.211C275.392 535.12 277.22 536.225 280.639 539.825C285.566 545.012 289.688 551.93 291.185 555.785C292.331 558.736 292.736 561.309 292.801 563.526C287.965 561.406 286.559 559.331 283.3 557.488C279.871 555.547 276.455 554.216 271.673 550.197C266.677 544.938 264.338 541.832 262.855 537.942C262.255 535.857 261.702 534.423 261.215 533.4L247.589 532.453L238.679 532.667C238.56 532.691 238.438 532.72 238.315 532.744C238.32 532.721 238.328 532.698 238.334 532.676L236.101 532.728C239.213 533.294 241.07 533.474 246.265 536.999C252.185 541.015 257.686 546.895 259.971 550.342C261.721 552.98 262.667 555.408 263.204 557.56C258.027 556.521 256.21 554.793 252.633 553.687C248.868 552.523 245.247 551.953 239.717 549.046C233.714 544.974 230.765 542.438 228.487 538.954C227.149 536.479 226.128 535.054 225.337 534.166L214.244 536.519L198.86 540.801L198.858 540.799L187.595 544.189C189.617 544.245 190.72 544.136 194.271 545.812C198.215 547.673 202.083 550.698 203.784 552.558C205.086 553.982 205.883 555.356 206.409 556.602C203.193 556.463 201.937 555.594 199.678 555.264C197.301 554.918 195.066 554.915 191.461 553.685C187.462 551.798 185.448 550.549 183.747 548.665C182.694 547.282 181.938 546.519 181.375 546.06L175.963 547.687L158.314 555.497L156.696 551.839L167.034 547.265C168.05 545.143 169.048 544.182 169.94 542.442C171.028 540.32 171.765 538.251 174.036 535.192C177.018 531.916 178.784 530.333 181.006 529.183C185.072 527.462 184.804 526.66 185.629 526.301C185.543 527.589 184.667 531.339 183.945 533.1C183.002 535.4 183.002 536.333 180.061 539.564C178.743 541.013 177.221 542.39 175.748 543.578L193.307 538.297C193.566 536.872 193.98 535.308 194.638 533.596C196.123 529.732 200.142 522.627 204.888 517.088C209.634 511.55 211.162 511.345 214.753 509.285C217.503 507.708 223.479 505.433 225.569 505.004C225.135 506.438 223.773 506.174 221.706 513.221C220.234 517.118 217.968 520.364 213.156 525.98C208.567 530.385 205.318 532.055 202.045 534.311C200.981 535.045 200.124 535.783 199.269 536.535L213.291 532.632L231.142 528.845L231.329 528.841L239.812 528.641C240.289 527.646 240.867 526.61 241.582 525.542C243.885 522.107 249.417 516.253 255.358 512.267C261.298 508.28 262.883 508.616 266.934 507.786C270.035 507.152 276.535 506.955 278.732 507.262C277.995 508.578 276.677 507.821 273.124 514.314C270.829 517.786 267.867 520.306 261.844 524.348C256.832 526.95 253.391 527.655 249.99 528.612L269.561 529.968L270.403 530.021C271.294 528.584 272.449 527.077 274.002 525.556C276.956 522.663 283.565 518.06 290.194 515.368C296.822 512.676 298.305 513.327 302.44 513.341C305.606 513.352 312.01 514.486 314.098 515.235C313.109 516.372 311.97 515.362 307.17 520.993C304.214 523.924 300.802 525.788 294.081 528.518C288.067 530.205 284.406 530.007 280.482 530.359C279.959 530.406 279.469 530.476 278.996 530.554L288.207 531.124L288.377 531.136L288.541 531.173L307.073 535.527L307.291 535.641L312.378 538.269C313.932 537.919 315.251 537.774 316.849 537.236C319.759 536.257 322.309 534.969 327.129 534.287C332.779 534.127 335.798 534.385 338.825 535.549C344.015 538.06 344.509 536.985 345.571 537.486C344.316 538.675 340.103 541.491 337.848 542.491C334.903 543.797 334.05 544.726 328.479 544.884C325.863 544.958 323.118 544.729 320.63 544.349C321.701 545.228 322.701 546.123 323.348 546.827C325.529 549.199 326.682 549.71 328.615 554.938C330.548 560.166 331.371 566.389 331.259 569.609C331.172 572.074 330.671 574.041 330.036 575.648Z" fill="white"/>
<path d="M568.701 198.139L554.39 214.322L543.39 232.322L533.39 249.322L529 265.359L527 283.359L527.984 297.359" stroke="white" stroke-width="4"/>
<path d="M526.624 288.802C525.963 290.347 524.861 295.052 524.751 297.361C524.608 300.377 524.045 301.477 525.969 306.229C527.893 310.982 531.332 315.663 533.532 317.73C535.216 319.313 536.898 320.29 538.447 320.941C538.666 317.089 538.2 315.528 538.053 312.818C537.899 309.967 537.668 307.334 536.521 302.998C534.57 298.18 533.201 295.748 530.97 293.681C528.894 291.367 527.495 289.49 526.624 288.802Z" fill="white"/>
<path d="M541.667 236.171C540.67 237.852 538.616 243.202 538.076 245.939C537.371 249.513 536.56 250.686 537.778 256.87C538.995 263.054 541.868 269.542 543.875 272.582C545.412 274.91 547.056 276.512 548.616 277.689C549.557 273.132 548.781 271.065 549.116 267.783C549.469 264.329 550.254 261.196 549.803 255.71C548.568 249.44 547.528 246.176 545.488 243.129C541.421 238.032 542.486 237.218 541.667 236.171Z" fill="white"/>
<path d="M506.197 277.532C506.314 275.634 507.59 270.206 508.653 267.71C510.041 264.449 510.031 263.062 514.394 258.753C518.758 254.444 524.619 250.797 527.897 249.45C530.407 248.419 532.606 248.029 534.505 247.936C532.769 252.116 531.013 253.355 529.487 256.179C527.881 259.15 526.798 262.1 523.433 266.266C519.009 270.634 516.386 272.691 513.077 274.026C507.017 275.9 507.428 277.138 506.197 277.532Z" fill="white"/>
<path d="M527.392 266.999C527.06 268.512 526.849 273.049 527.124 275.242C527.485 278.107 527.167 279.191 529.624 283.54C532.081 287.889 535.859 292.054 538.127 293.841C539.863 295.209 541.499 296.005 542.966 296.501C542.539 292.839 541.439 291.477 540.874 288.924C540.279 286.238 540.089 283.685 538.382 279.671C535.89 275.261 534.294 273.065 532 271.281C527.67 268.46 528.269 267.582 527.392 266.999Z" fill="white"/>
<path d="M510.035 300.055C511.417 299.601 515.189 297.607 516.832 296.337C518.978 294.678 520.007 294.418 522.353 290.354C524.7 286.29 526.267 281.246 526.63 278.558C526.909 276.5 526.772 274.797 526.473 273.373C523.714 275.466 523.137 277.006 521.341 278.682C519.452 280.445 517.477 281.817 515.043 285.115C512.664 289.235 511.649 291.575 511.3 294.283C511.084 299.132 510.089 299.067 510.035 300.055Z" fill="white"/>
<path d="M554.723 213.982C554.151 215.055 553.027 218.44 552.77 220.157C552.434 222.399 551.963 223.151 552.897 226.961C553.83 230.77 555.801 234.722 557.136 236.554C558.158 237.957 559.226 238.906 560.229 239.594C560.684 236.734 560.142 235.471 560.257 233.421C560.378 231.264 560.776 229.294 560.339 225.896C559.392 222.034 558.652 220.034 557.297 218.198C554.623 215.146 555.262 214.61 554.723 213.982Z" fill="white"/>
<path d="M509.668 248.729C510.473 246.842 513.763 241.643 515.777 239.353C518.408 236.363 518.895 234.962 525.027 231.55C531.159 228.138 538.626 225.712 542.554 225.053C545.561 224.549 548.011 224.625 550.04 224.936C546.714 228.779 544.424 229.653 541.807 232.173C539.052 234.826 536.855 237.568 531.823 241.049C525.605 244.509 522.111 246.022 518.155 246.662C511.116 247.26 511.103 248.594 509.668 248.729Z" fill="white"/>
<path d="M533.006 219.083C534.248 219.43 538.077 219.851 539.978 219.755C542.462 219.631 543.341 219.942 547.367 218.244C551.393 216.545 555.438 213.793 557.261 212.101C558.656 210.806 559.551 209.558 560.169 208.426C556.998 208.559 555.694 209.352 553.448 209.656C551.085 209.976 548.889 209.983 545.248 211.108C541.166 212.83 539.086 213.968 537.262 215.682C534.286 218.945 533.619 218.423 533.006 219.083Z" fill="white"/>
<path d="M60.8176 477.876L72.5786 463.058L81.3592 446.804L89.3123 431.472L92.4038 417.243L93.3141 401.409L91.8011 389.212" stroke="white" stroke-width="4"/>
<path d="M93.3897 396.631C93.895 395.249 94.6401 391.084 94.6281 389.06C94.6125 386.416 95.0536 385.427 93.1499 381.361C91.2463 377.295 88.021 373.362 86.0005 371.656C84.4536 370.351 82.9378 369.574 81.5528 369.077C81.5404 372.456 82.0213 373.799 82.2758 376.162C82.5436 378.648 82.8683 380.94 84.0733 384.678C86.0035 388.801 87.3143 390.864 89.3614 392.568C91.2846 394.494 92.5958 396.071 93.3897 396.631Z" fill="white"/>
<path d="M82.6858 443.358C83.4797 441.841 85.0264 437.067 85.3709 434.649C85.8209 431.49 86.4755 430.427 85.1226 425.076C83.7698 419.724 80.9555 414.185 79.0585 411.62C77.6061 409.656 76.094 408.331 74.675 407.375C74.0645 411.403 74.8394 413.175 74.699 416.061C74.5511 419.097 74.0105 421.874 74.6612 426.65C76.0329 432.076 77.0945 434.881 79.0208 437.452C82.8145 441.719 81.921 442.48 82.6858 443.358Z" fill="white"/>
<path d="M111.778 405.535C111.764 407.2 110.901 412.006 110.088 414.239C109.025 417.156 109.099 418.368 105.484 422.339C101.869 426.31 96.9137 429.773 94.1095 431.104C91.9627 432.122 90.0578 432.566 88.4014 432.735C89.7252 428.999 91.2028 427.834 92.4057 425.294C93.6715 422.62 94.481 419.99 97.2298 416.191C100.895 412.164 103.093 410.244 105.925 408.922C111.137 407 110.719 405.937 111.778 405.535Z" fill="white"/>
<path d="M93.7341 415.734C93.9536 414.395 93.9272 410.418 93.5838 408.513C93.1352 406.024 93.3626 405.061 91.0112 401.373C88.6597 397.684 85.1618 394.218 83.0954 392.761C81.5133 391.645 80.0456 391.026 78.7396 390.66C79.2843 393.842 80.3089 394.982 80.9224 397.188C81.568 399.51 81.8532 401.733 83.5331 405.164C85.9173 408.904 87.4153 410.75 89.505 412.204C93.4226 414.469 92.9401 415.264 93.7341 415.734Z" fill="white"/>
<path d="M107.372 386.018C106.184 386.479 102.978 388.399 101.601 389.586C99.8015 391.137 98.9137 391.412 97.0513 395.075C95.1888 398.738 94.0537 403.223 93.861 405.59C93.7134 407.403 93.9125 408.886 94.2396 410.117C96.555 408.158 96.9883 406.785 98.4804 405.236C100.051 403.605 101.714 402.313 103.688 399.317C105.576 395.602 106.355 393.509 106.534 391.125C106.497 386.874 107.371 386.885 107.372 386.018Z" fill="white"/>
<path d="M72.303 463.371C72.7533 462.405 73.5784 459.393 73.7235 457.88C73.913 455.904 74.2895 455.224 73.2956 451.936C72.3017 448.648 70.3939 445.284 69.1413 443.744C68.1823 442.565 67.2044 441.784 66.2949 441.23C66.0305 443.752 66.5629 444.831 66.558 446.629C66.5528 448.521 66.2961 450.263 66.837 453.213C67.8448 456.547 68.585 458.261 69.8559 459.804C72.3363 462.348 71.8026 462.847 72.303 463.371Z" fill="white"/>
<path d="M110.084 430.885C109.468 432.573 106.833 437.273 105.179 439.369C103.018 442.107 102.657 443.354 97.4534 446.624C92.2501 449.893 85.8331 452.363 82.4287 453.122C79.8224 453.703 77.6763 453.751 75.888 453.573C78.6176 450.058 80.5789 449.187 82.7505 446.86C85.0357 444.413 86.8296 441.912 91.0679 438.633C96.3438 435.318 99.3287 433.832 102.758 433.088C108.887 432.238 108.835 431.07 110.084 430.885Z" fill="white"/>
<path d="M91.0561 457.897C89.9539 457.652 86.586 457.463 84.9277 457.635C82.7617 457.859 81.9782 457.628 78.5368 459.3C75.0955 460.973 71.6858 463.569 70.1711 465.133C69.0115 466.331 68.2868 467.464 67.7988 468.483C70.5654 468.218 71.6695 467.465 73.6192 467.094C75.6709 466.704 77.5906 466.595 80.7223 465.442C84.2116 463.746 85.9778 462.654 87.4927 461.07C89.9437 458.078 90.5505 458.503 91.0561 457.897Z" fill="white"/>
<circle cx="290" cy="87.3586" r="4" fill="white"/>
<circle cx="342" cy="561.359" r="4" fill="white"/>
<circle cx="160" cy="529.359" r="4" fill="white"/>
<circle cx="524" cy="219.359" r="4" fill="white"/>
<circle cx="107" cy="458.359" r="3" fill="white"/>
<circle cx="294" cy="69.3589" r="6" fill="white"/>
<circle cx="174" cy="511.359" r="6" fill="white"/>
<circle cx="550" cy="305.359" r="4" fill="white"/>
<rect x="438" y="341.359" width="12" height="40" rx="6" fill="white"/>
<path d="M229.089 239.637C230.882 239.247 232.742 239.267 234.526 239.696C236.31 240.124 237.971 240.951 239.383 242.111C240.796 243.271 241.921 244.735 242.674 246.391C243.428 248.046 243.789 249.85 243.73 251.664C243.671 253.479 243.194 255.257 242.336 256.862C241.477 258.466 240.259 259.856 238.775 260.924C237.651 261.73 236.715 262.498 236.074 263.276C235.437 264.029 235.302 264.535 235.302 264.865C235.302 265.475 235.64 266.033 236.175 266.323L245.443 271.35C246.153 271.174 246.736 271.014 247.179 270.881C247.54 270.773 247.808 270.685 247.979 270.627C248.064 270.598 248.126 270.577 248.162 270.564C248.179 270.557 248.191 270.553 248.196 270.551C248.197 270.551 248.198 270.55 248.199 270.55L248.195 270.552H248.194V270.553C248.533 270.425 248.893 270.359 249.255 270.359C250.68 270.359 252.09 270.62 253.425 271.123L255.788 272.013C255.804 272.019 255.82 272.025 255.837 272.031L299.057 288.321C300.407 288.829 301.204 290.226 300.955 291.647L296.054 319.57C295.826 320.871 294.773 321.869 293.462 322.029L279.06 323.781C278.11 323.896 277.181 324.399 276.485 325.264C275.829 326.08 275.439 327.151 275.422 328.288L275.423 328.517V328.524L277.427 405.281C277.448 406.089 277.141 406.873 276.577 407.452C276.012 408.032 275.237 408.359 274.428 408.359H189.571C188.762 408.359 187.987 408.032 187.422 407.452C186.858 406.873 186.551 406.089 186.572 405.281L188.576 328.524V328.517C188.61 327.295 188.215 326.135 187.514 325.264C186.862 324.453 186.005 323.961 185.117 323.807L184.939 323.781L170.538 322.029C169.226 321.869 168.173 320.871 167.945 319.57L163.045 291.647C162.795 290.226 163.593 288.829 164.942 288.321L208.162 272.031C208.178 272.025 208.194 272.019 208.211 272.013L210.573 271.122V271.123C211.909 270.619 213.319 270.359 214.744 270.359L215.015 270.37C215.285 270.395 215.55 270.457 215.804 270.553V270.552L215.8 270.55C215.801 270.55 215.802 270.551 215.803 270.551C215.809 270.553 215.82 270.557 215.838 270.564C215.873 270.577 215.935 270.598 216.02 270.627C216.191 270.685 216.46 270.773 216.82 270.881C217.26 271.013 217.838 271.173 218.542 271.347L221.527 269.596C221.945 269.364 222.406 269.217 222.882 269.163C223.359 269.109 223.841 269.15 224.301 269.281C224.762 269.414 225.191 269.635 225.564 269.933C225.937 270.23 226.247 270.598 226.475 271.015C226.703 271.432 226.845 271.889 226.893 272.361C226.904 272.469 226.909 272.577 226.91 272.686C228.473 272.816 230.175 272.897 232 272.897C232.403 272.897 232.801 272.891 233.192 272.883L232.703 272.596C231.302 271.836 230.133 270.718 229.319 269.359C228.505 268 228.074 266.449 228.072 264.869C228.072 262.303 229.23 260.238 230.489 258.726C231.733 257.233 233.277 256.036 234.521 255.139C235.347 254.548 235.962 253.713 236.278 252.754C236.594 251.796 236.595 250.762 236.281 249.803C235.966 248.844 235.51 246.951 234.685 246.359C233.86 245.766 232.705 245.358 231.685 245.359C230.772 245.358 229.457 245.909 228.685 246.391C227.914 246.873 227.716 248.413 227.325 249.229C227.126 249.661 226.841 250.05 226.489 250.372C226.136 250.695 225.722 250.944 225.271 251.107C224.82 251.269 224.341 251.341 223.861 251.319C223.381 251.296 222.911 251.179 222.477 250.975C222.044 250.771 221.656 250.483 221.336 250.129C221.016 249.775 220.77 249.361 220.613 248.912C220.456 248.463 220.391 247.988 220.422 247.514C220.454 247.04 220.58 246.577 220.794 246.152C221.584 244.513 222.742 243.075 224.179 241.946C225.617 240.817 227.297 240.027 229.089 239.637ZM256.701 278.768C254.961 283.459 252.069 287.608 248.278 290.746C243.638 294.588 237.916 296.695 232 296.695C226.083 296.695 220.362 294.588 215.721 290.746C211.93 287.608 209.037 283.459 207.297 278.768L169.383 293.057L173.469 316.341L185.664 317.824H185.665C188.241 318.138 190.561 319.479 192.189 321.503C193.813 323.522 194.647 326.087 194.574 328.687L192.65 402.359H271.349L269.425 328.687C269.352 326.087 270.186 323.522 271.81 321.503C273.439 319.479 275.758 318.139 278.335 317.824H278.336L290.529 316.341L294.615 293.057L256.701 278.768ZM215.174 281.182C216.386 283.056 217.858 284.726 219.547 286.124C223.146 289.103 227.524 290.695 232 290.695C236.475 290.695 240.853 289.103 244.452 286.124C245.945 284.888 247.269 283.439 248.393 281.824L242.107 278.127C239.322 278.561 235.91 278.897 232 278.897C227.697 278.897 223.997 278.491 221.073 277.994L215.174 281.182Z" fill="white"/>
</svg>
