<svg width="28" height="28" viewBox="0 0 28 28" fill="none" xmlns="http://www.w3.org/2000/svg">
<circle cx="13.9184" cy="13.9184" r="13.9184" fill="#C2C2C2"/>
<path d="M20.675 5.93788C20.9969 6.16098 21.1658 6.54662 21.1053 6.93227L19.0655 20.1908C19.0177 20.4999 18.8296 20.7708 18.5555 20.9238C18.2815 21.0768 17.9532 21.0959 17.6631 20.9748L13.8513 19.3908L11.6681 21.7525C11.3845 22.0616 10.9383 22.1636 10.5463 22.0106C10.1542 21.8577 9.89926 21.4784 9.89926 21.0577V18.3932C9.89926 18.2658 9.94707 18.1446 10.0331 18.049L15.3748 12.2229C15.5596 12.0221 15.5533 11.713 15.362 11.5218C15.1708 11.3305 14.8616 11.3178 14.6609 11.4994L8.1782 17.2586L5.36396 15.8499C5.02612 15.681 4.80939 15.3431 4.79983 14.9671C4.79027 14.591 4.98787 14.2404 5.31296 14.0523L19.5914 5.89326C19.9324 5.69884 20.3531 5.71797 20.675 5.93788Z" fill="white"/>
</svg>
