<svg width="620" height="671" viewBox="0 0 620 671" fill="none" xmlns="http://www.w3.org/2000/svg">
<path d="M295 4.01929C304.282 -1.3397 315.718 -1.3397 325 4.01929L589.448 156.699C598.73 162.058 604.448 171.961 604.448 182.679V488.039C604.448 498.757 598.73 508.66 589.448 514.019L325 666.699C315.718 672.058 304.282 672.058 295 666.699L30.5518 514.019C21.2698 508.66 15.5519 498.757 15.5518 488.039V182.679C15.5518 171.961 21.2697 162.058 30.5518 156.699L295 4.01929ZM325 34.0193C315.718 28.6603 304.282 28.6603 295 34.0193L56.5322 171.699C47.2502 177.058 41.5322 186.962 41.5322 197.679V473.039C41.5323 483.757 47.2503 493.66 56.5322 499.019L295 636.699C304.282 642.058 315.718 642.058 325 636.699L563.468 499.019C572.75 493.66 578.468 483.757 578.468 473.039V197.679C578.468 186.962 572.75 177.058 563.468 171.699L325 34.0193Z" fill="#1B2A41"/>
<path d="M295 34.0191C304.282 28.6601 315.718 28.6602 325 34.0191L563.468 171.699C572.75 177.058 578.468 186.961 578.468 197.679V473.038C578.468 483.756 572.75 493.66 563.468 499.019L325 636.699C315.718 642.058 304.282 642.058 295 636.699L56.5321 499.019C47.2501 493.66 41.5321 483.756 41.5321 473.038V197.679C41.5321 186.961 47.2501 177.058 56.5321 171.699L295 34.0191Z" fill="white"/>
<mask id="mask0_2043_8532" style="mask-type:alpha" maskUnits="userSpaceOnUse" x="51" y="45" width="518" height="580">
<path d="M295.152 49.8165C304.356 44.5735 315.644 44.5735 324.848 49.8164L552.924 179.728C562.291 185.064 568.076 195.016 568.076 205.796V464.922C568.076 475.702 562.291 485.654 552.924 490.989L324.848 620.901C315.644 626.144 304.356 626.144 295.152 620.901L67.0762 490.989C57.7088 485.654 51.9244 475.702 51.9244 464.922V205.796C51.9244 195.016 57.7087 185.064 67.0762 179.728L295.152 49.8165Z" fill="#E5AAAA"/>
</mask>
<g mask="url(#mask0_2043_8532)">
<rect x="52" y="201.359" width="356" height="268" fill="#1B2A41"/>
<rect x="422" y="201.359" width="146" height="268" fill="#1B2A41"/>
<path d="M294.156 620.868C303.357 626.131 314.653 626.147 323.869 620.912L566 483.359L52 482.359L294.156 620.868Z" fill="#1B2A41"/>
<path d="M294.181 49.7772C303.371 44.5568 314.629 44.5568 323.819 49.7772L566 187.359H52L294.181 49.7772Z" fill="#1B2A41"/>
<rect x="408" y="247.359" width="14" height="356" transform="rotate(90 408 247.359)" fill="white"/>
<rect x="408" y="168.999" width="51" height="356" transform="rotate(90 408 168.999)" fill="#1B2A41"/>
<rect x="408" y="95.3586" width="14" height="106" fill="white"/>
</g>
<path d="M474 129.359L455 133.359L431 135.359L415 136.359H397L381 133.359L360 127.359L342 122.359L325 114.359L314 105.359" stroke="white" stroke-width="4"/>
<path d="M316.218 108.72C314.892 107.612 311.603 103.755 310.347 101.632C308.707 98.859 307.685 98.1199 306.879 92.604C306.074 87.0881 306.559 80.8319 307.337 77.7054C307.934 75.3117 308.833 73.4915 309.787 72.0505C311.913 75.5732 311.875 77.526 313.121 80.1641C314.433 82.9403 316.01 85.3219 317.249 90.0298C318.066 95.6226 318.16 98.6506 317.355 101.793C315.465 107.241 316.593 107.606 316.218 108.72Z" fill="white"/>
<path d="M405.491 137.101C403.279 136.935 396.968 135.361 394.072 134.082C390.29 132.411 388.671 132.401 383.714 127.244C378.756 122.086 374.594 115.192 373.074 111.346C371.91 108.402 371.49 105.831 371.411 103.614C376.26 105.705 377.678 107.773 380.947 109.597C384.388 111.517 387.813 112.826 392.619 116.818C397.646 122.047 400.004 125.139 401.509 129.02C403.601 136.119 405.051 135.658 405.491 137.101Z" fill="white"/>
<path d="M345.781 149.594C347.866 150.351 354.267 151.508 357.433 151.531C361.568 151.56 363.047 152.216 369.685 149.549C376.324 146.883 382.95 142.306 385.916 139.424C388.186 137.217 389.624 135.045 390.607 133.057C385.327 132.972 383.185 134.275 379.455 134.596C375.529 134.933 371.869 134.721 365.847 136.386C359.116 139.09 355.697 140.941 352.73 143.861C347.908 149.475 346.775 148.459 345.781 149.594Z" fill="white"/>
<path d="M369.846 131.623C367.721 130.989 361.89 128.105 359.334 126.237C355.995 123.797 354.416 123.443 350.673 117.346C346.931 111.249 344.335 103.626 343.67 99.5446C343.162 96.42 343.3 93.8183 343.696 91.6357C347.987 94.7135 348.931 97.0357 351.736 99.5159C354.688 102.126 357.754 104.136 361.599 109.061C365.394 115.242 367.037 118.766 367.68 122.879C368.209 130.261 369.724 130.12 369.846 131.623Z" fill="white"/>
<path d="M339.865 122.04C338.213 121.043 333.902 117.335 332.129 115.194C329.812 112.398 328.562 111.758 326.611 105.756C324.66 99.7539 323.96 92.6952 324.19 89.0714C324.367 86.2971 324.982 84.1074 325.732 82.3304C328.721 85.8744 329.062 88.0574 330.926 90.7736C332.888 93.6319 335.06 96.0029 337.321 101.027C339.299 107.113 339.993 110.47 339.738 114.116C338.76 120.526 340.052 120.731 339.865 122.04Z" fill="white"/>
<path d="M312.84 134.457C314.727 135.623 320.758 138.061 323.852 138.728C327.895 139.6 329.209 140.544 336.252 139.286C343.294 138.028 350.715 134.898 354.205 132.681C356.877 130.984 358.729 129.15 360.096 127.404C354.944 126.244 352.582 127.084 348.864 126.637C344.952 126.167 341.412 125.213 335.177 125.616C328.036 126.892 324.312 128.007 320.812 130.261C314.946 134.774 314.044 133.549 312.84 134.457Z" fill="white"/>
<path d="M450.451 133.298C449.103 133.406 445.153 133.053 443.289 132.556C440.853 131.905 439.877 132.052 436.405 129.412C432.933 126.773 429.777 123.012 428.499 120.839C427.521 119.176 427.026 117.666 426.769 116.339C429.887 117.141 430.935 118.253 433.077 119.044C435.33 119.876 437.516 120.343 440.787 122.294C444.308 124.97 446.019 126.61 447.291 128.806C449.22 132.885 450.05 132.471 450.451 133.298Z" fill="white"/>
<path d="M286.669 106.158C288.143 105.255 292.85 103.374 295.263 102.864C298.415 102.197 299.443 101.466 304.926 102.468C310.41 103.47 316.182 105.932 318.895 107.67C320.972 109.001 322.408 110.435 323.468 111.8C319.45 112.687 317.612 112.026 314.714 112.363C311.664 112.717 308.903 113.449 304.046 113.116C298.486 112.1 295.588 111.219 292.868 109.452C288.311 105.917 287.605 106.869 286.669 106.158Z" fill="white"/>
<path d="M397.318 162.837C399.451 162.851 405.77 161.867 408.787 160.895C412.728 159.625 414.265 159.741 420.057 155.307C425.85 150.874 431.255 144.759 433.51 141.286C435.236 138.628 436.178 136.26 436.722 134.198C431.68 135.778 429.899 137.598 426.412 139.05C422.742 140.578 419.218 141.538 413.815 144.894C407.942 149.39 405.052 152.094 402.803 155.601C399.319 162.066 398.041 161.525 397.318 162.837Z" fill="white"/>
<path d="M440.808 150.293C441.16 149.053 442.795 145.566 443.868 143.992C445.268 141.938 445.46 141.025 449.008 138.474C452.555 135.923 457.012 133.904 459.406 133.23C461.238 132.714 462.77 132.601 464.058 132.662C462.292 135.299 460.936 136 459.506 137.758C458.002 139.609 456.851 141.479 453.994 144.001C450.397 146.587 448.342 147.77 445.929 148.433C441.593 149.273 441.691 150.114 440.808 150.293Z" fill="white"/>
<path d="M330.036 575.648C327.225 572.644 326.857 570.726 325.091 568.404C323.232 565.96 321.195 563.956 319.006 559.608C317.046 554.307 316.326 551.365 316.46 548.125C316.624 546.816 316.687 545.799 316.691 544.997L305.677 539.309L298.671 537.663C298.871 537.807 299.058 537.946 299.227 538.08C302.073 540.334 303.429 540.702 306.583 546.169C309.737 551.635 311.888 558.394 312.415 561.987C312.818 564.737 312.669 567.008 312.305 568.902C308.645 566.056 307.859 563.991 305.472 561.72C302.96 559.332 300.343 557.462 297.089 553.017C293.891 547.474 292.515 544.334 292.007 540.714C291.874 538.419 291.623 536.947 291.352 535.943L287.788 535.106L273.335 534.211C275.392 535.12 277.22 536.225 280.639 539.825C285.566 545.012 289.688 551.93 291.185 555.785C292.331 558.736 292.736 561.309 292.801 563.526C287.965 561.406 286.559 559.331 283.3 557.488C279.871 555.547 276.455 554.216 271.673 550.197C266.677 544.938 264.338 541.832 262.855 537.942C262.255 535.857 261.702 534.423 261.215 533.4L247.589 532.453L238.679 532.667C238.56 532.691 238.438 532.72 238.315 532.744C238.32 532.721 238.328 532.698 238.334 532.676L236.101 532.728C239.213 533.294 241.07 533.474 246.265 536.999C252.185 541.015 257.686 546.895 259.971 550.342C261.721 552.98 262.667 555.408 263.204 557.56C258.027 556.521 256.21 554.793 252.633 553.687C248.868 552.523 245.247 551.953 239.717 549.046C233.714 544.974 230.765 542.438 228.487 538.954C227.149 536.479 226.128 535.054 225.337 534.166L214.244 536.519L198.86 540.801L198.858 540.799L187.595 544.189C189.617 544.245 190.72 544.136 194.271 545.812C198.215 547.673 202.083 550.698 203.784 552.558C205.086 553.982 205.883 555.356 206.409 556.602C203.193 556.463 201.937 555.594 199.678 555.264C197.301 554.918 195.066 554.915 191.461 553.685C187.462 551.798 185.448 550.549 183.747 548.665C182.694 547.282 181.938 546.519 181.375 546.06L175.963 547.687L158.314 555.497L156.696 551.839L167.034 547.265C168.05 545.143 169.048 544.182 169.94 542.442C171.028 540.32 171.765 538.251 174.036 535.192C177.018 531.916 178.784 530.333 181.006 529.183C185.072 527.462 184.804 526.66 185.629 526.301C185.543 527.589 184.667 531.339 183.945 533.1C183.002 535.4 183.002 536.333 180.061 539.564C178.743 541.013 177.221 542.39 175.748 543.578L193.307 538.297C193.566 536.872 193.98 535.308 194.638 533.596C196.123 529.732 200.142 522.627 204.888 517.088C209.634 511.55 211.162 511.345 214.753 509.285C217.503 507.708 223.479 505.433 225.569 505.004C225.135 506.438 223.773 506.174 221.706 513.221C220.234 517.118 217.968 520.364 213.156 525.98C208.567 530.385 205.318 532.055 202.045 534.311C200.981 535.045 200.124 535.783 199.269 536.535L213.291 532.632L231.142 528.845L231.329 528.841L239.812 528.641C240.289 527.646 240.867 526.61 241.582 525.542C243.885 522.107 249.417 516.253 255.358 512.267C261.298 508.28 262.883 508.616 266.934 507.786C270.035 507.152 276.535 506.955 278.732 507.262C277.995 508.578 276.677 507.821 273.124 514.314C270.829 517.786 267.867 520.306 261.844 524.348C256.832 526.95 253.391 527.655 249.99 528.612L269.561 529.968L270.403 530.021C271.294 528.584 272.449 527.077 274.002 525.556C276.956 522.663 283.565 518.06 290.194 515.368C296.822 512.676 298.305 513.327 302.44 513.341C305.606 513.352 312.01 514.486 314.098 515.235C313.109 516.372 311.97 515.362 307.17 520.993C304.214 523.924 300.802 525.788 294.081 528.518C288.067 530.205 284.406 530.007 280.482 530.359C279.959 530.406 279.469 530.476 278.996 530.554L288.207 531.124L288.377 531.136L288.541 531.173L307.073 535.527L307.291 535.641L312.378 538.269C313.932 537.919 315.251 537.774 316.849 537.236C319.759 536.257 322.309 534.969 327.129 534.287C332.779 534.127 335.798 534.385 338.825 535.549C344.015 538.06 344.509 536.985 345.571 537.486C344.316 538.675 340.103 541.491 337.848 542.491C334.903 543.797 334.05 544.726 328.479 544.884C325.863 544.958 323.118 544.729 320.63 544.349C321.701 545.228 322.701 546.123 323.348 546.827C325.529 549.199 326.682 549.71 328.615 554.938C330.548 560.166 331.371 566.389 331.259 569.609C331.172 572.074 330.671 574.041 330.036 575.648Z" fill="white"/>
<path d="M568.701 198.139L554.39 214.322L543.39 232.322L533.39 249.322L529 265.359L527 283.359L527.984 297.359" stroke="white" stroke-width="4"/>
<path d="M526.623 288.802C525.963 290.347 524.86 295.052 524.751 297.361C524.608 300.377 524.045 301.477 525.969 306.229C527.893 310.982 531.331 315.663 533.532 317.73C535.216 319.313 536.898 320.29 538.447 320.941C538.666 317.089 538.199 315.528 538.053 312.818C537.898 309.967 537.667 307.334 536.521 302.998C534.57 298.18 533.201 295.748 530.97 293.681C528.894 291.367 527.495 289.49 526.623 288.802Z" fill="white"/>
<path d="M541.667 236.171C540.67 237.852 538.616 243.202 538.076 245.939C537.371 249.513 536.56 250.686 537.778 256.87C538.995 263.054 541.868 269.542 543.875 272.582C545.412 274.91 547.056 276.512 548.616 277.689C549.557 273.132 548.78 271.065 549.116 267.783C549.469 264.329 550.254 261.196 549.802 255.71C548.568 249.44 547.528 246.176 545.487 243.129C541.421 238.032 542.486 237.218 541.667 236.171Z" fill="white"/>
<path d="M506.196 277.532C506.314 275.634 507.589 270.206 508.653 267.71C510.041 264.449 510.031 263.062 514.394 258.753C518.758 254.444 524.618 250.797 527.897 249.45C530.407 248.419 532.606 248.029 534.505 247.936C532.768 252.116 531.013 253.355 529.487 256.179C527.881 259.15 526.798 262.1 523.433 266.266C519.008 270.634 516.386 272.691 513.077 274.026C507.016 275.9 507.428 277.138 506.196 277.532Z" fill="white"/>
<path d="M527.392 266.999C527.06 268.512 526.848 273.049 527.124 275.242C527.485 278.107 527.167 279.191 529.624 283.54C532.081 287.889 535.859 292.054 538.127 293.841C539.863 295.209 541.499 296.005 542.966 296.501C542.538 292.839 541.439 291.477 540.874 288.924C540.279 286.238 540.089 283.685 538.382 279.671C535.89 275.261 534.294 273.065 531.999 271.281C527.67 268.46 528.268 267.582 527.392 266.999Z" fill="white"/>
<path d="M510.035 300.055C511.417 299.601 515.189 297.607 516.832 296.337C518.978 294.678 520.007 294.418 522.353 290.354C524.7 286.29 526.267 281.246 526.63 278.558C526.908 276.5 526.772 274.797 526.473 273.373C523.714 275.466 523.137 277.006 521.341 278.682C519.452 280.445 517.477 281.817 515.043 285.115C512.664 289.235 511.649 291.575 511.3 294.283C511.084 299.132 510.088 299.067 510.035 300.055Z" fill="white"/>
<path d="M554.723 213.982C554.151 215.055 553.027 218.44 552.77 220.157C552.434 222.399 551.963 223.151 552.897 226.961C553.83 230.77 555.801 234.722 557.136 236.554C558.158 237.957 559.225 238.906 560.229 239.594C560.684 236.734 560.142 235.471 560.257 233.421C560.378 231.264 560.776 229.294 560.339 225.896C559.392 222.034 558.652 220.034 557.297 218.198C554.623 215.146 555.262 214.61 554.723 213.982Z" fill="white"/>
<path d="M509.668 248.729C510.473 246.842 513.763 241.643 515.777 239.353C518.408 236.363 518.895 234.962 525.027 231.55C531.159 228.138 538.626 225.712 542.554 225.053C545.561 224.549 548.011 224.625 550.04 224.936C546.714 228.779 544.424 229.653 541.807 232.173C539.052 234.826 536.855 237.568 531.823 241.049C525.605 244.509 522.111 246.022 518.155 246.662C511.115 247.26 511.103 248.594 509.668 248.729Z" fill="white"/>
<path d="M533.006 219.083C534.248 219.43 538.077 219.851 539.978 219.755C542.462 219.631 543.341 219.942 547.367 218.244C551.393 216.545 555.438 213.793 557.26 212.101C558.656 210.806 559.551 209.558 560.169 208.426C556.998 208.559 555.693 209.352 553.448 209.656C551.085 209.976 548.889 209.983 545.248 211.108C541.166 212.83 539.086 213.968 537.262 215.682C534.285 218.945 533.619 218.423 533.006 219.083Z" fill="white"/>
<path d="M60.8176 477.876L72.5786 463.058L81.3592 446.804L89.3123 431.472L92.4038 417.243L93.3141 401.409L91.8011 389.212" stroke="white" stroke-width="4"/>
<path d="M93.3897 396.631C93.895 395.249 94.6401 391.084 94.6281 389.06C94.6125 386.416 95.0536 385.427 93.1499 381.361C91.2463 377.295 88.021 373.362 86.0005 371.656C84.4536 370.351 82.9378 369.574 81.5528 369.077C81.5404 372.456 82.0213 373.799 82.2758 376.162C82.5436 378.648 82.8683 380.94 84.0733 384.678C86.0035 388.801 87.3143 390.864 89.3614 392.568C91.2846 394.494 92.5958 396.071 93.3897 396.631Z" fill="white"/>
<path d="M82.6858 443.358C83.4797 441.841 85.0264 437.067 85.3709 434.649C85.8209 431.49 86.4755 430.427 85.1226 425.076C83.7698 419.724 80.9555 414.185 79.0585 411.62C77.6061 409.656 76.094 408.331 74.675 407.375C74.0645 411.403 74.8394 413.175 74.699 416.061C74.5511 419.097 74.0105 421.874 74.6612 426.65C76.0329 432.076 77.0945 434.881 79.0208 437.452C82.8145 441.719 81.921 442.48 82.6858 443.358Z" fill="white"/>
<path d="M111.778 405.535C111.764 407.2 110.901 412.006 110.088 414.239C109.025 417.156 109.099 418.368 105.484 422.339C101.869 426.31 96.9137 429.773 94.1095 431.104C91.9627 432.122 90.0578 432.566 88.4014 432.735C89.7252 428.999 91.2028 427.834 92.4057 425.294C93.6715 422.62 94.481 419.99 97.2298 416.191C100.895 412.164 103.093 410.244 105.925 408.922C111.137 407 110.719 405.937 111.778 405.535Z" fill="white"/>
<path d="M93.7341 415.734C93.9536 414.395 93.9272 410.418 93.5838 408.513C93.1352 406.024 93.3626 405.061 91.0112 401.373C88.6597 397.684 85.1618 394.218 83.0954 392.761C81.5133 391.645 80.0456 391.026 78.7396 390.66C79.2843 393.842 80.3089 394.982 80.9224 397.188C81.568 399.51 81.8532 401.733 83.5331 405.164C85.9173 408.904 87.4153 410.75 89.505 412.204C93.4226 414.469 92.9401 415.264 93.7341 415.734Z" fill="white"/>
<path d="M107.372 386.018C106.184 386.479 102.978 388.399 101.601 389.586C99.8015 391.137 98.9137 391.412 97.0513 395.075C95.1888 398.738 94.0537 403.223 93.861 405.59C93.7134 407.403 93.9125 408.886 94.2396 410.117C96.555 408.158 96.9883 406.785 98.4804 405.236C100.051 403.605 101.714 402.313 103.688 399.317C105.576 395.602 106.355 393.509 106.534 391.125C106.497 386.874 107.371 386.885 107.372 386.018Z" fill="white"/>
<path d="M72.303 463.371C72.7533 462.405 73.5784 459.393 73.7235 457.88C73.913 455.904 74.2895 455.224 73.2956 451.936C72.3017 448.648 70.3939 445.284 69.1413 443.744C68.1823 442.565 67.2044 441.784 66.2949 441.23C66.0305 443.752 66.5629 444.831 66.558 446.629C66.5528 448.521 66.2961 450.263 66.837 453.213C67.8448 456.547 68.585 458.261 69.8559 459.804C72.3363 462.348 71.8026 462.847 72.303 463.371Z" fill="white"/>
<path d="M110.084 430.885C109.468 432.573 106.833 437.273 105.179 439.369C103.018 442.107 102.657 443.354 97.4534 446.624C92.2501 449.893 85.8331 452.363 82.4287 453.122C79.8224 453.703 77.6763 453.751 75.888 453.573C78.6176 450.058 80.5789 449.187 82.7505 446.86C85.0357 444.413 86.8296 441.912 91.0679 438.633C96.3438 435.318 99.3287 433.832 102.758 433.088C108.887 432.238 108.835 431.07 110.084 430.885Z" fill="white"/>
<path d="M91.0561 457.897C89.9539 457.652 86.586 457.463 84.9277 457.635C82.7617 457.859 81.9782 457.628 78.5368 459.3C75.0955 460.973 71.6858 463.569 70.1711 465.133C69.0115 466.331 68.2868 467.464 67.7988 468.483C70.5654 468.218 71.6695 467.465 73.6192 467.094C75.6709 466.704 77.5906 466.595 80.7223 465.442C84.2116 463.746 85.9778 462.654 87.4927 461.07C89.9437 458.078 90.5505 458.503 91.0561 457.897Z" fill="white"/>
<circle cx="290" cy="87.3586" r="4" fill="white"/>
<circle cx="342" cy="561.359" r="4" fill="white"/>
<circle cx="160" cy="529.359" r="4" fill="white"/>
<circle cx="524" cy="219.359" r="4" fill="white"/>
<circle cx="107" cy="458.359" r="3" fill="white"/>
<circle cx="294" cy="69.3589" r="6" fill="white"/>
<circle cx="174" cy="511.359" r="6" fill="white"/>
<circle cx="550" cy="305.359" r="4" fill="white"/>
<rect x="438" y="341.359" width="12" height="40" rx="6" fill="white"/>
<path d="M271.089 239.644C272.882 239.245 274.741 239.266 276.524 239.705C278.308 240.143 279.97 240.988 281.382 242.174C282.794 243.361 283.921 244.859 284.674 246.552C285.427 248.246 285.787 250.092 285.729 251.948C285.67 253.804 285.194 255.623 284.335 257.264C283.476 258.906 282.258 260.327 280.773 261.42C279.65 262.245 278.714 263.031 278.072 263.827C277.436 264.597 277.301 265.115 277.301 265.452C277.301 266.076 277.639 266.646 278.174 266.944L297.998 278.233H313.976C316.042 278.232 318.037 278.976 319.587 280.322C321.136 281.668 322.133 283.525 322.39 285.544L337.933 407.976C338.082 409.151 337.976 410.344 337.621 411.475C337.266 412.606 336.672 413.65 335.876 414.538C335.08 415.425 334.102 416.136 333.006 416.623C331.91 417.109 330.721 417.361 329.519 417.361H300.77C298.883 417.362 297.049 416.742 295.56 415.6C294.07 414.458 293.009 412.86 292.547 411.058L272.998 336.667L253.449 411.058C252.987 412.86 251.927 414.459 250.437 415.6C248.948 416.742 247.113 417.362 245.226 417.361H216.479C215.276 417.361 214.087 417.109 212.991 416.623C211.895 416.136 210.917 415.425 210.121 414.538C209.325 413.65 208.73 412.606 208.375 411.475C208.02 410.344 207.914 409.151 208.063 407.976L223.606 285.544C223.863 283.525 224.861 281.668 226.41 280.322C227.96 278.976 229.955 278.232 232.021 278.233H249.998L263.525 270.292C263.944 270.055 264.405 269.904 264.881 269.849C265.357 269.794 265.839 269.835 266.3 269.97C266.76 270.105 267.189 270.332 267.562 270.636C267.936 270.941 268.245 271.317 268.474 271.744C268.702 272.17 268.844 272.638 268.892 273.121C268.939 273.603 268.892 274.091 268.752 274.554C268.612 275.018 268.382 275.449 268.076 275.822C267.77 276.195 267.394 276.503 266.97 276.728L264.248 278.233H283.139L274.701 273.361C273.301 272.583 272.132 271.44 271.317 270.049C270.503 268.659 270.073 267.073 270.071 265.457C270.071 262.831 271.228 260.718 272.487 259.171C273.732 257.644 275.275 256.419 276.52 255.501C277.345 254.897 277.96 254.043 278.276 253.062C278.592 252.082 278.594 251.025 278.279 250.044C277.965 249.063 277.508 247.126 276.684 246.52C275.859 245.914 274.703 245.497 273.684 245.498C272.771 245.497 271.455 246.059 270.684 246.552C269.912 247.045 269.715 248.621 269.323 249.456C269.124 249.898 268.84 250.296 268.487 250.625C268.135 250.955 267.721 251.211 267.27 251.377C266.818 251.544 266.339 251.617 265.859 251.594C265.38 251.571 264.909 251.452 264.476 251.243C264.042 251.034 263.654 250.74 263.334 250.377C263.014 250.015 262.768 249.592 262.611 249.132C262.455 248.673 262.391 248.187 262.422 247.703C262.453 247.218 262.579 246.744 262.793 246.309C263.583 244.633 264.741 243.16 266.179 242.005C267.616 240.85 269.296 240.043 271.089 239.644ZM253.082 306.059C252.39 313.487 248.97 320.411 243.463 325.534C237.956 330.656 230.74 333.626 223.169 333.884L213.652 408.665C213.602 409.058 213.638 409.458 213.757 409.836C213.876 410.215 214.076 410.565 214.344 410.862C214.611 411.158 214.941 411.394 215.309 411.555C215.677 411.716 216.076 411.799 216.479 411.795H245.226C245.853 411.796 246.463 411.592 246.959 411.214C247.455 410.837 247.81 410.307 247.967 409.708L270.172 325.182V306.059H253.082ZM275.824 306.059V325.182L298.022 409.667C298.171 410.274 298.524 410.814 299.022 411.2C299.521 411.586 300.136 411.796 300.77 411.795H329.519C329.919 411.796 330.315 411.712 330.681 411.55C331.046 411.388 331.372 411.151 331.638 410.856C331.907 410.561 332.11 410.213 332.231 409.835C332.353 409.458 332.392 409.058 332.345 408.665L322.828 333.884C315.257 333.626 308.04 330.656 302.533 325.534C297.027 320.411 293.606 313.487 292.914 306.059H275.824ZM226.701 306.059L223.883 328.25C229.82 327.845 235.426 325.403 239.724 321.348C244.021 317.294 246.738 311.883 247.401 306.059H226.701ZM298.595 306.059C299.258 311.883 301.976 317.294 306.273 321.348C310.571 325.403 316.177 327.845 322.114 328.25L319.295 306.059H298.595ZM232.021 283.798C231.329 283.793 230.66 284.038 230.139 284.487C229.618 284.936 229.282 285.557 229.195 286.233L227.408 300.494H318.589L316.802 286.233C316.715 285.557 316.379 284.936 315.858 284.487C315.338 284.038 314.668 283.793 313.976 283.798H232.021Z" fill="white"/>
<path d="M217.254 273.361C217.254 273.361 210.542 275.899 200 275.899C189.458 275.899 182.746 273.361 182.746 273.361C181.685 273.361 180.632 273.554 179.631 273.932L134 291.13L138.9 319.053L153.302 320.804C155.066 321.019 156.69 321.941 157.852 323.386C159.014 324.831 159.629 326.693 159.575 328.604L157.571 405.361H242.429L240.425 328.604C240.371 326.693 240.986 324.831 242.148 323.386C243.31 321.941 244.934 321.019 246.698 320.804L261.1 319.053L266 291.13L220.369 273.932C219.368 273.554 218.315 273.361 217.254 273.361Z" fill="#1B2A41"/>
<path d="M222.779 274.839C221.443 280.247 218.485 285.027 214.366 288.437C210.246 291.848 205.196 293.697 200 293.697C194.804 293.697 189.754 291.848 185.634 288.437C181.515 285.027 178.557 280.247 177.221 274.839" fill="#1B2A41"/>
<path d="M222.779 274.839C221.443 280.247 218.485 285.027 214.366 288.437C210.246 291.848 205.196 293.697 200 293.697C194.804 293.697 189.754 291.848 185.634 288.437C181.515 285.027 178.557 280.247 177.221 274.839M217.254 273.361C217.254 273.361 210.542 275.899 200 275.899C189.458 275.899 182.746 273.361 182.746 273.361C181.685 273.361 180.632 273.554 179.631 273.932L134 291.13L138.9 319.053L153.302 320.804C155.066 321.019 156.69 321.941 157.852 323.386C159.014 324.831 159.629 326.693 159.575 328.604L157.571 405.361H242.429L240.425 328.604C240.371 326.693 240.986 324.831 242.148 323.386C243.31 321.941 244.934 321.019 246.698 320.804L261.1 319.053L266 291.13L220.369 273.932C219.368 273.554 218.315 273.361 217.254 273.361Z" stroke="white" stroke-width="6" stroke-linecap="round" stroke-linejoin="round"/>
<path d="M196.686 246.392C197.457 245.91 198.773 245.36 199.686 245.361C200.705 245.36 201.861 245.768 202.686 246.361C203.51 246.953 203.966 248.846 204.281 249.805C204.595 250.764 204.594 251.797 204.278 252.756C203.962 253.714 203.347 254.549 202.521 255.14C201.277 256.037 199.733 257.234 198.489 258.727C197.23 260.239 196.073 262.305 196.073 264.871C196.074 266.451 196.505 268.001 197.319 269.361C198.134 270.72 199.302 271.838 200.703 272.598L219 283.361L222.424 276.223L204.176 266.326C203.64 266.035 203.303 265.477 203.303 264.866C203.303 264.537 203.438 264.031 204.074 263.278C204.716 262.5 205.651 261.732 206.775 260.926C208.26 259.858 209.477 258.468 210.336 256.863C211.195 255.259 211.672 253.481 211.731 251.667C211.789 249.852 211.428 248.048 210.675 246.392C209.922 244.737 208.796 243.273 207.384 242.113C205.972 240.953 204.31 240.127 202.526 239.698C200.743 239.269 198.883 239.249 197.09 239.639C195.297 240.028 193.618 240.818 192.18 241.947C190.742 243.076 189.584 244.515 188.794 246.154C188.58 246.579 188.454 247.042 188.423 247.516C188.392 247.99 188.457 248.465 188.613 248.914C188.77 249.363 189.016 249.777 189.336 250.131C189.656 250.485 190.044 250.773 190.477 250.977C190.911 251.181 191.381 251.298 191.861 251.321C192.341 251.343 192.82 251.271 193.271 251.109C193.723 250.946 194.137 250.696 194.489 250.374C194.842 250.051 195.126 249.663 195.325 249.23C195.717 248.415 195.914 246.875 196.686 246.392Z" fill="white"/>
<path d="M190.883 269.166C190.406 269.219 189.946 269.366 189.527 269.598L178 276.361L181 282.361L192.971 275.889C193.396 275.67 193.772 275.369 194.078 275.004C194.384 274.639 194.614 274.218 194.754 273.764C194.894 273.311 194.941 272.834 194.893 272.363C194.845 271.891 194.703 271.434 194.475 271.017C194.247 270.6 193.937 270.232 193.564 269.935C193.191 269.637 192.762 269.416 192.301 269.284C191.841 269.152 191.359 269.112 190.883 269.166Z" fill="white"/>
</svg>
