<svg width="441" height="96" viewBox="0 0 441 96" fill="none" xmlns="http://www.w3.org/2000/svg">
<path d="M57.3 -7.15256e-07C62.5 -7.15256e-07 77.3 3 76.9 5.5C76.7 7 76.5 8.9 76.5 11V62.4C76.5 78.8 73.7 90.7 72.3 94.3C71.4 95.3 69.3 95.8 68.1 95.5C67.3 92.7 65.6 83.8 65.6 69V52.1H60.7C56.5 52.1 53.8 53 52.5 54.1C50.1 53.5 47.4 50.8 45.9 48.9C42.6 56.5 34.6 61.1 23.8 61.1C9.5 61.1 3.21865e-06 53 3.21865e-06 40.9C3.21865e-06 29.4 8.5 21.5 21.5 20.7C21.6 20.3 21.7 20 21.7 19.6C21.7 18.6 21.4 17.5 20 16.5C20 14.1 27.7 16.5 27.7 17.7C27.7 18.2 27.1 19.6 26.7 20.7C39.3 21.8 47.5 29.6 47.5 40.9C47.5 42.7 47.3 44.3 46.9 45.9C49.8 46.3 55.7 46.5 61.4 46.5H65.6V31.8H60.7C56.5 31.8 53.8 32.7 52.5 33.8C49.2 32.9 45.1 28.1 44.8 26.9C44.7 26.5 45.3 25.2 45.7 25.3C47.7 25.8 54.7 26.2 61.4 26.2H65.6V10.8C65.6 8.4 57.6 3.9 55.1 2.7C54.5 2.4 56.6 -7.15256e-07 57.3 -7.15256e-07ZM23.4 55C31 55 36.1 49.2 36.1 40.6C36.1 31.9 31.1 26.2 23.6 26.2C16.3 26.2 11.3 31.9 11.3 40.6C11.3 49.2 16.2 55 23.4 55ZM155.046 -7.15256e-07C160.346 -7.15256e-07 175.046 3 174.746 5.5C174.546 7 174.346 8.9 174.346 11V37C174.346 47.1 171.546 54 170.146 57.1C169.246 58.1 167.146 58.6 165.946 58.3C165.046 55.5 163.446 51.1 163.446 37V36.6L155.046 36.7C154.946 46.4 152.646 53.1 151.146 56.1C150.246 57.1 148.146 57.6 146.946 57.3C146.146 54.4 144.446 50 144.446 36V14.8C144.446 12.9 139.046 9.1 136.546 7.9C135.946 7.6 138.046 5.7 138.746 5.7C143.946 5.7 155.746 8.6 155.546 10.1C155.246 11.6 155.046 13.5 155.046 15.6V31H163.446V10.8C163.446 8.4 155.446 3.9 152.946 2.7C152.346 2.4 154.446 -7.15256e-07 155.046 -7.15256e-07ZM125.946 51.8L109.746 51.9C109.246 52.8 108.746 53.8 108.246 55C107.246 56.1 105.346 56.6 103.946 56.3C102.846 53.5 101.146 48.2 100.746 39.3L99.9461 24.1C99.8461 22.3 96.0461 19.4 93.5461 18.2C92.9461 17.9 95.1461 15.8 95.7461 15.8C101.046 15.8 111.546 18.1 111.346 19.5C111.146 21.1 110.946 23 110.946 25.1V27.1L125.246 26.9V20.3C125.246 18.4 121.346 15.6 118.846 14.3C118.246 14 120.346 12.1 120.946 12.1C126.246 12.1 136.846 14.4 136.646 15.9C136.446 17.4 136.246 19.3 136.246 21.4L135.946 36.9C135.746 48.6 133.246 52.8 132.046 55C131.046 56.1 129.046 56.6 127.746 56.3C127.146 54.6 126.346 53.4 125.946 51.8ZM125.346 46.1L125.246 32.6L110.946 32.7V46.3L125.346 46.1ZM162.846 60.6C164.146 60 173.346 61.8 173.646 62.9C173.246 66 173.246 69.7 173.246 74.2C173.246 84.3 170.446 91.3 168.946 94.3C168.046 95.3 166.046 95.8 164.746 95.5C163.946 92.7 162.346 88.3 162.346 74.2V67.9H132.946C128.846 67.9 126.046 69 124.846 70.1C121.546 69.2 115.346 64.2 115.046 63C114.946 62.6 115.546 61.4 115.946 61.5C117.946 62 124.946 62.3 131.646 62.3L156.546 62.2C159.846 62.2 161.546 61.7 162.846 60.6ZM221.789 43.8C217.989 43.8 215.089 40.9 215.089 37.1C215.089 33.3 217.989 30.4 221.789 30.4C225.589 30.4 228.489 33.3 228.489 37.1C228.489 40.9 225.589 43.8 221.789 43.8ZM221.789 82C217.989 82 215.089 79.1 215.089 75.3C215.089 71.5 217.989 68.6 221.789 68.6C225.589 68.6 228.489 71.5 228.489 75.3C228.489 79.1 225.589 82 221.789 82ZM286.712 12.4C281.812 20.7 273.012 30.3 263.512 36.3L262.712 35.5C269.412 27.7 275.912 13.7 278.212 5L291.312 9.2C291.012 10.1 290.412 10.7 289.012 11C310.512 16 300.112 29.4 293.412 23.7C292.412 20.6 289.912 16.1 286.712 12.4ZM338.312 36.9H327.812V48.1H334.512L339.512 41.4C339.512 41.4 345.212 46.1 348.712 49.3C348.412 50.3 347.512 50.8 346.212 50.8H327.812V78.3C327.812 85 326.312 89.3 315.312 90.2C315.212 87.2 314.812 85 313.812 83.5C312.612 82.1 310.812 81.1 306.912 80.3V79.1C306.912 79.1 314.312 79.6 316.012 79.6C317.412 79.6 317.712 79.1 317.712 78.1V61.2C317.112 61.5 316.412 61.5 315.412 61.4C312.412 68.6 305.312 77.8 297.812 83.8L296.812 82.7L297.512 81.6H278.912V87C278.912 88.1 275.212 90.2 271.112 90.2H269.712V32.1L279.412 36.1H287.812L291.912 31.9L299.312 37.5C307.112 28.6 314.612 14.5 316.212 5.1L330.812 8.2C330.612 9.2 329.812 9.8 327.412 10.1C331.712 18.3 341.712 24.4 349.812 27.5V28.6C345.512 30.1 342.812 34.3 342.112 38.8C341.312 38.1 340.512 37.3 339.812 36.6C339.412 36.8 338.812 36.9 338.312 36.9ZM307.012 34.3H327.812L332.412 28.1L334.212 29.7C330.612 24.1 327.812 17.6 326.312 11C322.612 19.9 315.112 28.1 307.012 34.3ZM274.812 27.3H284.012L288.712 21.5C288.712 21.5 293.812 25.5 296.912 28.5C296.712 29.5 295.812 30 294.612 30H275.612L274.812 27.3ZM299.912 48.1H317.712V36.9H306.812L306.212 35C303.712 36.8 301.112 38.5 298.612 40L298.212 39.6L297.412 39.8V59.1C297.312 59.7 293.912 61.1 291.112 61.4C290.812 61.5 290.412 61.5 290.012 61.5H288.612V58.7H278.912V67.5H286.212L291.112 61.4C291.612 61.8 296.612 65.7 299.812 68.6C299.712 69.6 298.812 70.1 297.512 70.1H278.912V79H286.712L291.812 72.2C291.812 72.2 295.812 75.4 299.112 78.4C302.612 71.1 305.012 61.9 306.012 55.4L317.712 60.1V50.8H300.712L299.912 48.1ZM288.612 38.7H278.912V46.1H288.612V38.7ZM288.612 48.6H278.912V56.1H288.612V48.6ZM330.512 56.8L331.512 56.2C357.612 68 348.412 87.9 338.912 79.4C338.112 71.8 334.112 63.1 330.512 56.8ZM429.059 17.7L440.259 26.6C439.459 27.4 438.159 28.4 435.959 28.8V85.6C435.859 86.5 430.559 89.5 426.259 89.5H424.459V81.4H380.659V85.8C380.659 87.2 376.159 89.9 371.259 89.9H369.259V19.1L381.559 24H391.459C392.859 18.3 394.259 10.2 395.059 4.5L410.959 8.3C410.559 9.5 409.559 10.2 407.459 10.2C404.159 14.1 399.259 19.7 394.359 24H423.359L429.059 17.7ZM424.459 26.5H380.659V50.9H424.459V26.5ZM380.659 78.7H424.459V53.6H380.659V78.7Z" fill="#1B2A41"/>
</svg>
