<svg width="28" height="28" viewBox="0 0 28 28" fill="none" xmlns="http://www.w3.org/2000/svg">
<path fill-rule="evenodd" clip-rule="evenodd" d="M19.5478 12.7427C20.2818 12.4382 21.0796 12.3195 21.8704 12.3971C22.6613 12.4747 23.4208 12.7462 24.0815 13.1875C24.7423 13.6288 25.2838 14.2263 25.6582 14.927C26.0325 15.6276 26.228 16.4098 26.2274 17.2041V18.6748C26.9848 18.9058 27.5584 19.5514 27.6884 20.3496L27.7173 20.5187C27.8473 21.3108 28 22.2265 28 23.1733C28 24.12 27.8473 25.0358 27.7173 25.8278L27.6884 25.997C27.6127 26.462 27.383 26.8881 27.0362 27.2071C26.6893 27.5261 26.2454 27.7195 25.7755 27.7564L25.0946 27.81C23.9287 27.9008 22.6761 27.9998 21.3967 27.9998C20.1173 27.9998 18.8627 27.9008 17.6968 27.81L17.0159 27.7564C16.546 27.7195 16.1021 27.5261 15.7552 27.2071C15.4084 26.8881 15.1787 26.462 15.103 25.997L15.0741 25.8278C14.9441 25.0358 14.7914 24.12 14.7914 23.1733C14.7914 22.2265 14.9441 21.3108 15.0741 20.5187L15.103 20.3496C15.233 19.5514 15.8087 18.9058 16.564 18.6748V17.2041C16.5637 16.2488 16.8472 15.3149 17.3783 14.5207C17.9095 13.7265 18.6646 13.1077 19.5478 12.7427ZM23.1322 18.3984C22.5543 18.365 21.9756 18.3478 21.3967 18.3468C20.8093 18.3482 20.2301 18.3654 19.6592 18.3984V17.2021C19.6592 16.7417 19.8422 16.3003 20.1678 15.9747C20.4935 15.6492 20.9352 15.4664 21.3957 15.4664C21.8562 15.4664 22.2979 15.6492 22.6236 15.9747C22.9492 16.3003 23.1322 16.7417 23.1322 17.2021V18.3984Z" fill="#1B2A41"/>
<path fill-rule="evenodd" clip-rule="evenodd" d="M5.93057 0.381581C7.74854 0.179446 9.65317 0 11.6073 0C13.5615 0 15.4661 0.179446 17.2841 0.381581C18.7076 0.54524 20.0336 1.18647 21.0456 2.20056C22.0575 3.21465 22.6956 4.5417 22.8556 5.96503C22.9959 7.29335 23.1239 8.66704 23.1816 10.0737C22.0894 9.80203 20.9497 9.78267 19.8489 10.0171C18.7481 10.2515 17.7152 10.7336 16.8286 11.4267C15.9421 12.1198 15.2252 13.0057 14.7324 14.0171C14.2396 15.0286 13.9838 16.1389 13.9845 17.2639V17.3217C13.2273 18.0298 12.7253 18.9681 12.5566 19.9907L12.5256 20.1763C12.3997 20.9395 12.2161 22.043 12.2119 23.198L11.6073 23.2042C9.65317 23.2042 7.74854 23.0248 5.93057 22.8226C4.50702 22.659 3.18103 22.0178 2.1691 21.0037C1.15718 19.9896 0.5191 18.6625 0.359053 17.2392C0.169209 15.4324 0 13.541 0 11.6021C0 9.66327 0.167146 7.77187 0.361117 5.96503C0.521074 4.54201 1.15885 3.2152 2.17037 2.20115C3.18188 1.18709 4.50739 0.545676 5.93057 0.381581Z" fill="#CDD7E7"/>
<path fill-rule="evenodd" clip-rule="evenodd" d="M12.212 23.1983C12.2161 22.0433 12.3977 20.9418 12.5256 20.1787L12.5566 19.991C12.7278 18.9452 13.2437 18.015 13.9845 17.322V17.2642C13.9845 16.5836 14.0794 15.907 14.2631 15.2552C13.5461 15.0561 12.8055 14.9548 12.0613 14.9541C8.04157 14.9541 4.59342 17.8871 3.75975 21.7875C3.75975 21.7875 3.72261 21.9154 3.67102 22.1196C4.36024 22.4888 5.12374 22.7342 5.93058 22.8229C7.74855 23.025 9.65318 23.2045 11.6073 23.2045C11.8096 23.2045 12.0111 23.2024 12.212 23.1983Z" fill="#1B2A41"/>
<path d="M11.6073 12.6975C13.9804 12.6975 15.3134 11.363 15.3134 8.99105C15.3134 6.61906 13.9804 5.28662 11.6073 5.28662C9.23427 5.28662 7.89917 6.61906 7.89917 8.99105C7.89917 11.363 9.23427 12.6975 11.6073 12.6975Z" fill="#1B2A41"/>
</svg>
